<svg xmlns="http://www.w3.org/2000/svg" viewBox="0 0 64 64">
  <defs>
    <style>
      .a {
        fill: #4f5d73;
      }

      .b {
        opacity: 0.2;
      }

      .c {
        fill: #231f20;
      }

      .d {
        fill: #e0e0d1;
      }
    </style>
  </defs>
  <title>Elegant_circle-icons</title>
  <circle class="a" cx="32" cy="32" r="32"/>
  <g class="b">
    <path class="c" d="M44.55,38c-.9,0-1.16-.62-.56-1.38l4.76-6a1.32,1.32,0,0,1,2.17,0l4.76,6c.59.76.34,1.38-.57,1.38Z"/>
  </g>
  <g class="b">
    <path class="c" d="M8.89,38c-.91,0-1.16-.62-.57-1.38l4.76-6a1.32,1.32,0,0,1,2.17,0l4.76,6c.6.76.34,1.38-.56,1.38Z"/>
  </g>
  <path class="d" d="M44.55,36c-.9,0-1.16-.62-.56-1.38l4.76-6a1.32,1.32,0,0,1,2.17,0l4.76,6c.59.76.34,1.38-.57,1.38Z"/>
  <path class="d" d="M8.89,36c-.91,0-1.16-.62-.57-1.38l4.76-6a1.32,1.32,0,0,1,2.17,0l4.76,6c.6.76.34,1.38-.56,1.38Z"/>
  <g class="b">
    <path class="c" d="M32,56A20,20,0,0,1,12,36a2,2,0,0,1,4,0,16,16,0,0,0,32,0,2,2,0,0,1,4,0A20,20,0,0,1,32,56Z"/>
  </g>
  <path class="d" d="M32,54A20,20,0,0,1,12,34a2,2,0,0,1,4,0,16,16,0,0,0,32,0,2,2,0,0,1,4,0A20,20,0,0,1,32,54Z"/>
  <rect class="d" x="30" y="20" width="4" height="32"/>
  <g class="b">
    <path class="c" d="M32,24a6,6,0,1,1,6-6A6,6,0,0,1,32,24Zm0-8a2,2,0,1,0,2,2A2,2,0,0,0,32,16Z"/>
  </g>
  <g class="b">
    <path class="c" d="M40,31a2,2,0,0,1-2,2H26a2,2,0,0,1-2-2h0a2,2,0,0,1,2-2H38a2,2,0,0,1,2,2Z"/>
  </g>
  <path class="d" d="M32,22a6,6,0,1,1,6-6A6,6,0,0,1,32,22Zm0-8a2,2,0,1,0,2,2A2,2,0,0,0,32,14Z"/>
  <path class="d" d="M40,29a2,2,0,0,1-2,2H26a2,2,0,0,1-2-2h0a2,2,0,0,1,2-2H38a2,2,0,0,1,2,2Z"/>
</svg>
