<svg xmlns="http://www.w3.org/2000/svg" viewBox="0 0 64 64">
  <defs>
    <style>
      .a {
        fill: #e0e0d1;
      }

      .b {
        opacity: 0.2;
      }

      .c {
        fill: #231f20;
      }

      .d {
        fill: #4f5d73;
      }
    </style>
  </defs>
  <title>Elegant_circle-icons_3</title>
  <circle class="a" cx="32" cy="32" r="32"/>
  <g class="b">
    <path class="c" d="M19,13.83A24,24,0,0,0,9.32,26.16L19,35.85Z"/>
  </g>
  <g class="b">
    <path class="c" d="M8.42,29.52A24.48,24.48,0,0,0,8,34a24,24,0,0,0,2.18,10H22.91Z"/>
  </g>
  <g class="b">
    <path class="c" d="M27.52,57.58A24.48,24.48,0,0,0,32,58a24,24,0,0,0,10-2.18V43.09Z"/>
  </g>
  <g class="b">
    <path class="c" d="M11.83,47a24,24,0,0,0,12.33,9.68L33.85,47Z"/>
  </g>
  <g class="b">
    <path class="c" d="M55.58,38.48A24.48,24.48,0,0,0,56,34a24,24,0,0,0-2.18-10H41.09Z"/>
  </g>
  <g class="b">
    <path class="c" d="M45,54.17a24,24,0,0,0,9.68-12.33L45,32.15Z"/>
  </g>
  <g class="b">
    <path class="c" d="M52.17,21a24,24,0,0,0-12.33-9.68L30.15,21Z"/>
  </g>
  <g class="b">
    <path class="c" d="M36.48,10.42A24.48,24.48,0,0,0,32,10a24,24,0,0,0-10,2.18V24.91Z"/>
  </g>
  <g>
    <path class="d" d="M19,11.83A24,24,0,0,0,9.32,24.16L19,33.85Z"/>
    <path class="d" d="M8.42,27.52A24.48,24.48,0,0,0,8,32a24,24,0,0,0,2.18,10H22.91Z"/>
    <path class="d" d="M27.52,55.58A24.48,24.48,0,0,0,32,56a24,24,0,0,0,10-2.18V41.09Z"/>
    <path class="d" d="M11.83,45a24,24,0,0,0,12.33,9.68L33.85,45Z"/>
    <path class="d" d="M55.58,36.48A24.48,24.48,0,0,0,56,32a24,24,0,0,0-2.18-10H41.09Z"/>
    <path class="d" d="M45,52.17a24,24,0,0,0,9.68-12.33L45,30.15Z"/>
    <path class="d" d="M52.17,19A24,24,0,0,0,39.84,9.32L30.15,19Z"/>
    <path class="d" d="M36.48,8.42A24.48,24.48,0,0,0,32,8a24,24,0,0,0-10,2.18V22.91Z"/>
  </g>
</svg>
