<svg xmlns="http://www.w3.org/2000/svg" viewBox="0 0 64 64">
  <defs>
    <style>
      .a {
        fill: #76c2af;
      }

      .b {
        opacity: 0.2;
      }

      .c {
        fill: #231f20;
      }

      .d {
        fill: #fff;
      }

      .e {
        fill: none;
        stroke: #fff;
        stroke-linecap: round;
        stroke-linejoin: round;
        stroke-width: 3px;
      }
    </style>
  </defs>
  <title>Elegant_circle-icons_2</title>
  <circle class="a" cx="32" cy="32" r="32"/>
  <g class="b">
    <path class="c" d="M19,35a6,6,0,1,1-6,6,6,6,0,0,1,6-6m0-3a9,9,0,1,0,9,9,9,9,0,0,0-9-9Z"/>
  </g>
  <g class="b">
    <path class="c" d="M46,35a6,6,0,1,1-6,6,6,6,0,0,1,6-6m0-3a9,9,0,1,0,9,9,9,9,0,0,0-9-9Z"/>
  </g>
  <g class="b">
    <path class="c" d="M32.5,44.5A1.5,1.5,0,0,1,31,43V35.7l-8.23-7.93a1.54,1.54,0,0,1-.46-1.07,1.52,1.52,0,0,1,.44-1.07l5.19-5.19a1.5,1.5,0,0,1,2.08,0L36.09,26H39a1.5,1.5,0,0,1,0,3H35.5a1.49,1.49,0,0,1-1-.4l-5.44-5L26,26.67,33.54,34A1.54,1.54,0,0,1,34,35.06V43A1.5,1.5,0,0,1,32.5,44.5Z"/>
  </g>
  <g class="b">
    <circle class="c" cx="34.5" cy="16.5" r="3.5"/>
  </g>
  <path class="d" d="M19,33a6,6,0,1,1-6,6,6,6,0,0,1,6-6m0-3a9,9,0,1,0,9,9,9,9,0,0,0-9-9Z"/>
  <path class="d" d="M46,33a6,6,0,1,1-6,6,6,6,0,0,1,6-6m0-3a9,9,0,1,0,9,9,9,9,0,0,0-9-9Z"/>
  <polyline class="e" points="32.5 41 32.5 33.06 23.81 24.69 29 19.5 35.5 25.5 39 25.5"/>
  <circle class="d" cx="34.5" cy="14.5" r="3.5"/>
</svg>
