<svg xmlns="http://www.w3.org/2000/svg" viewBox="0 0 64 64">
  <defs>
    <style>
      .a {
        fill: #76c2af;
      }

      .b, .e {
        opacity: 0.2;
      }

      .c, .e {
        fill: #231f20;
      }

      .d {
        fill: none;
        stroke: #fff;
        stroke-linecap: round;
        stroke-miterlimit: 10;
        stroke-width: 3px;
      }

      .f {
        fill: #4f5d73;
      }
    </style>
  </defs>
  <title>Elegant_circle-icons_2</title>
  <circle class="a" cx="32" cy="32" r="32"/>
  <g class="b">
    <path class="c" d="M32,52a1.79,1.79,0,0,1-1.5-2V13A1.79,1.79,0,0,1,32,11a1.79,1.79,0,0,1,1.5,2V50A1.79,1.79,0,0,1,32,52Z"/>
    <path class="c" d="M50.06,35H13.94A1.76,1.76,0,0,1,12,33.5,1.76,1.76,0,0,1,13.94,32H50.06A1.76,1.76,0,0,1,52,33.5,1.76,1.76,0,0,1,50.06,35Z"/>
    <path class="c" d="M44.5,48.56a1.51,1.51,0,0,1-1.06-.44L16.88,21.56A1.5,1.5,0,1,1,19,19.44L45.56,46a1.49,1.49,0,0,1,0,2.12A1.51,1.51,0,0,1,44.5,48.56Z"/>
    <path class="c" d="M18.94,49a1.51,1.51,0,0,1-1.06-.44,1.49,1.49,0,0,1,0-2.12L46.44,17.88A1.5,1.5,0,1,1,48.56,20L20,48.56A1.51,1.51,0,0,1,18.94,49Z"/>
  </g>
  <g>
    <line class="d" x1="32" y1="12" x2="32" y2="52"/>
    <line class="d" x1="52" y1="31.5" x2="12" y2="31.5"/>
    <line class="d" x1="46.14" y1="46.14" x2="17.86" y2="17.86"/>
    <line class="d" x1="17.86" y1="46.14" x2="46.14" y2="17.86"/>
  </g>
  <g class="b">
    <circle class="c" cx="32" cy="33" r="2"/>
  </g>
  <circle class="a" cx="32" cy="32" r="2"/>
  <path class="e" d="M32,16A18,18,0,1,1,14,34,18,18,0,0,1,32,16m0-4A22,22,0,1,0,54,34,22,22,0,0,0,32,12Z"/>
  <path class="f" d="M32,14A18,18,0,1,1,14,32,18,18,0,0,1,32,14m0-4A22,22,0,1,0,54,32,22,22,0,0,0,32,10Z"/>
</svg>
