<svg xmlns="http://www.w3.org/2000/svg" viewBox="0 0 64 64">
  <defs>
    <style>
      .a {
        fill: #76c2af;
      }

      .b {
        fill: #231f20;
        opacity: 0.2;
      }

      .c {
        fill: #4f5d73;
      }

      .d {
        fill: none;
        stroke: #fff;
        stroke-linecap: round;
        stroke-linejoin: round;
        stroke-width: 3px;
      }
    </style>
  </defs>
  <title>Elegant_circle-icons_2</title>
  <circle class="a" cx="32" cy="32" r="32"/>
  <path class="b" d="M46,32a6,6,0,1,1-6,6,6,6,0,0,1,6-6m0-4A10,10,0,1,0,56,38,10,10,0,0,0,46,28Z"/>
  <path class="b" d="M18,31a7,7,0,1,1-7,7,7,7,0,0,1,7-7m0-3A10,10,0,1,0,28,38,10,10,0,0,0,18,28Z"/>
  <path class="c" d="M18,29a7,7,0,1,1-7,7,7,7,0,0,1,7-7m0-3A10,10,0,1,0,28,36,10,10,0,0,0,18,26Z"/>
  <path class="c" d="M46,29a7,7,0,1,1-7,7,7,7,0,0,1,7-7m0-3A10,10,0,1,0,56,36,10,10,0,0,0,46,26Z"/>
  <path class="b" d="M47.33,37.31l-9-17.5A1.48,1.48,0,0,0,37,19H32a1.5,1.5,0,0,0,0,3h4.08l3.09,6H30.43l-2.09-4.17A1.49,1.49,0,0,0,27,23H22a1.5,1.5,0,0,0,0,3h4.07l1.41,2.81L17.05,37.34A1.5,1.5,0,0,0,18,40H32a1.5,1.5,0,0,0,1.06-.44l8-8,3.65,7.09A1.5,1.5,0,0,0,46,39.5a1.44,1.44,0,0,0,.69-.17A1.5,1.5,0,0,0,47.33,37.31ZM22.2,37l6.65-5.44,2.66,5.31-.13.13Zm11.54-2.37L31.93,31h5.45Z"/>
  <polyline class="d" points="46 36 37 18.5 32 18.5"/>
  <polyline class="d" points="33 34 27 22.5 22 22.5"/>
  <polygon class="d" points="18 36.5 32 36.5 41 27.5 29 27.5 18 36.5"/>
</svg>
