<svg xmlns="http://www.w3.org/2000/svg" viewBox="0 0 64 64">
  <defs>
    <style>
      .a {
        fill: #77b3d4;
      }

      .b, .g {
        opacity: 0.2;
      }

      .c, .g {
        fill: #231f20;
      }

      .d {
        fill: #4f5d73;
      }

      .e {
        fill: #c75c5c;
      }

      .f {
        fill: #fff;
      }
    </style>
  </defs>
  <title>Elegant_circle-icons_2</title>
  <circle class="a" cx="32" cy="32" r="32"/>
  <g class="b">
    <path class="c" d="M39,44H29c-1.11,0-1,.9-1,2s1.89,2,3,2h6c1.1,0,3-.9,3-2S40.1,44,39,44Z"/>
    <path class="c" d="M34,22a41.29,41.29,0,0,0-13.57,2.13A17,17,0,0,0,12.81,22H7c-1.1.36,3.43,5.45,5.81,7.32A5,5,0,0,0,12,32a4.92,4.92,0,0,0,.64,2.39c-2.14,1-3.58,3.69-5.46,5.61l0,.24c-.68.9-.23,1.64,1,1.64l5,.12c.59,0,3.37-1.26,6-2.62A39.67,39.67,0,0,0,34,42c12.15,0,22-4.48,22-10S46.15,22,34,22Z"/>
  </g>
  <path class="d" d="M40,44c0,1.1-1.9,2-3,2H31c-1.11,0-3-.9-3-2h0c0-1.1-.11-2,1-2H39c1.1,0,1,.9,1,2Z"/>
  <path class="e" d="M14,28c-1.23,0-8.35-7.56-7-8h5.81C16,20,20.66,21.61,23,24l-3,.24c.69.9.24,1.64-1,1.64Z"/>
  <path class="e" d="M13.18,40c1.23,0,12.17-5.56,10.82-6l-9.63-2c-3.19,0-4.85,3.61-7.19,6l0,.24c-.68.9-.23,1.64,1,1.64Z"/>
  <ellipse class="f" cx="34" cy="30" rx="22" ry="10"/>
  <path class="g" d="M7.45,31.9C6.65,31.9,6,32,6,31.17H6c0-.8.65-.72,1.45-.72L19,29c.8,0,2.9,1.37,2.9,2.17h0c0,.8-2.1,2.17-2.9,2.17Z"/>
  <path class="e" d="M7,31c-.8,0-1-.37-1-1.17H6C6,29,6.2,29,7,29l12-1c.8,0,3,1.2,3,2h-.07c0,.8-2.1,2-2.9,2Z"/>
</svg>
