<svg xmlns="http://www.w3.org/2000/svg" viewBox="0 0 64 64">
  <defs>
    <style>
      .a {
        fill: #4f5d73;
      }

      .b {
        fill: #231f20;
        opacity: 0.2;
      }

      .c {
        fill: #f5cf87;
      }
    </style>
  </defs>
  <title>Elegant_circle-icons_3</title>
  <circle class="a" cx="32" cy="32" r="32"/>
  <path class="b" d="M46.88,17.53A1,1,0,0,0,46,17H29a1,1,0,0,0-.89.55l-8,16A1,1,0,0,0,21,35h5.45L18.09,53.59a1,1,0,0,0,1.55,1.18l24-20a1,1,0,0,0,.3-1.11A1,1,0,0,0,43,33H36.9l9.92-14.43A1,1,0,0,0,46.88,17.53Z"/>
  <path class="c" d="M46.88,15.53A1,1,0,0,0,46,15H29a1,1,0,0,0-.89.55l-8,16A1,1,0,0,0,21,33h5.45L18.09,51.59a1,1,0,0,0,1.55,1.18l24-20a1,1,0,0,0,.3-1.11A1,1,0,0,0,43,31H36.9l9.92-14.43A1,1,0,0,0,46.88,15.53Z"/>
</svg>
