<svg xmlns="http://www.w3.org/2000/svg" viewBox="0 0 64 64">
  <defs>
    <style>
      .a {
        fill: #e0995e;
      }

      .b {
        opacity: 0.2;
      }

      .c {
        fill: #231f20;
      }

      .d {
        fill: #e0e0d1;
      }

      .e {
        fill: #4f5d73;
      }

      .f {
        fill: #c75c5c;
      }

      .g {
        fill: #f5cf87;
      }
    </style>
  </defs>
  <title>Elegant_circle-icons</title>
  <circle class="a" cx="31.83" cy="33" r="32"/>
  <g class="b">
    <path class="c" d="M37.56,28.06a1,1,0,0,1-.72-1.68c.27-.3,6.85-7.22,10.64-9.15A1,1,0,1,1,48.39,19c-3.49,1.77-10,8.66-10.1,8.73A1,1,0,0,1,37.56,28.06Z"/>
  </g>
  <g>
    <path class="d" d="M37.56,25.06S44.25,18,47.94,16.12"/>
    <path class="d" d="M37.56,26.06a1,1,0,0,1-.72-1.68c.27-.3,6.85-7.21,10.64-9.15A1,1,0,1,1,48.39,17c-3.49,1.77-10,8.66-10.1,8.73A1,1,0,0,1,37.56,26.06Z"/>
  </g>
  <g class="b">
    <circle class="c" cx="28" cy="38" r="16"/>
  </g>
  <g class="b">
    <path class="c" d="M38.86,34.06c-1.12,1.22-2.69,1.6-3.52.85l-5-4.55c-.83-.76-.6-2.36.52-3.59l4-4.43c1.12-1.22,2.69-1.6,3.52-.85l5,4.55c.82.76.59,2.36-.53,3.58Z"/>
  </g>
  <circle class="e" cx="28" cy="36" r="16"/>
  <path class="e" d="M38.86,32.06c-1.12,1.22-2.69,1.6-3.52.85l-5-4.55c-.83-.76-.6-2.36.52-3.59l4-4.43c1.12-1.22,2.69-1.6,3.52-.85l5,4.55c.82.76.59,2.36-.53,3.58Z"/>
  <g class="b">
    <circle class="c" cx="47" cy="18" r="4"/>
  </g>
  <circle class="f" cx="47" cy="17" r="4"/>
  <circle class="g" cx="47" cy="17" r="2"/>
</svg>
