<svg xmlns="http://www.w3.org/2000/svg" viewBox="0 0 64 64">
  <defs>
    <style>
      .a {
        fill: #c75c5c;
      }

      .b, .f {
        opacity: 0.2;
      }

      .c, .f {
        fill: #231f20;
      }

      .d {
        fill: #e0e0d1;
      }

      .e {
        fill: #fff;
      }
    </style>
  </defs>
  <title>Elegant_circle-icons_3</title>
  <circle class="a" cx="32" cy="32" r="32"/>
  <g class="b">
    <path class="c" d="M25,43.34v7.89a2.41,2.41,0,0,0,1,1.55l5.26,3a1.69,1.69,0,0,0,1.52,0l5.26-3a2.41,2.41,0,0,0,1-1.55V43.34a15.59,15.59,0,0,1-14,0Z"/>
  </g>
  <path class="d" d="M25,41.34v7.89a2.41,2.41,0,0,0,1,1.55l5.26,3a1.69,1.69,0,0,0,1.52,0l5.26-3a2.41,2.41,0,0,0,1-1.55V41.34a15.59,15.59,0,0,1-14,0Z"/>
  <g class="b">
    <circle class="c" cx="32" cy="34.57" r="14.43" transform="translate(-4.28 64.61) rotate(-86.84)"/>
  </g>
  <circle class="e" cx="32" cy="32" r="14.43" transform="translate(-1.71 62.19) rotate(-86.84)"/>
  <g>
    <path class="f" d="M33.5,15.5A1.5,1.5,0,0,1,32,17h0a1.5,1.5,0,0,1-1.5-1.5v-2A1.5,1.5,0,0,1,32,12h0a1.5,1.5,0,0,1,1.5,1.5Z"/>
    <path class="f" d="M50.5,35.5A1.5,1.5,0,0,1,49,34h0a1.5,1.5,0,0,1,1.5-1.5h2A1.5,1.5,0,0,1,54,34h0a1.5,1.5,0,0,1-1.5,1.5Z"/>
    <path class="f" d="M13.5,32.5A1.5,1.5,0,0,1,15,34h0a1.5,1.5,0,0,1-1.5,1.5h-2A1.5,1.5,0,0,1,10,34h0a1.5,1.5,0,0,1,1.5-1.5Z"/>
    <path class="f" d="M24.05,17.23a1.5,1.5,0,0,1-.55,2.05h0a1.5,1.5,0,0,1-2.05-.55l-1-1.73A1.5,1.5,0,0,1,21,15h0a1.49,1.49,0,0,1,2.05.55Z"/>
    <path class="f" d="M48.77,26.05a1.5,1.5,0,0,1-2.05-.55h0a1.5,1.5,0,0,1,.55-2.05l1.73-1a1.5,1.5,0,0,1,2,.55h0a1.49,1.49,0,0,1-.55,2.05Z"/>
    <path class="f" d="M15.23,42a1.5,1.5,0,0,1,2.05.55h0a1.5,1.5,0,0,1-.55,2l-1.73,1A1.5,1.5,0,0,1,13,45h0a1.49,1.49,0,0,1,.55-2Z"/>
    <path class="f" d="M16.73,23.45a1.5,1.5,0,0,1,.55,2.05h0a1.5,1.5,0,0,1-2.05.55l-1.73-1A1.49,1.49,0,0,1,13,23h0A1.5,1.5,0,0,1,15,22.45Z"/>
    <path class="f" d="M47.27,44.55a1.5,1.5,0,0,1-.55-2h0A1.5,1.5,0,0,1,48.77,42l1.73,1a1.49,1.49,0,0,1,.55,2h0a1.5,1.5,0,0,1-2,.55Z"/>
    <path class="f" d="M42.55,18.73a1.5,1.5,0,0,1-2,.55h0A1.5,1.5,0,0,1,40,17.23l1-1.73A1.49,1.49,0,0,1,43,15h0A1.5,1.5,0,0,1,43.55,17Z"/>
  </g>
  <circle class="e" cx="32" cy="32" r="14.43" transform="translate(-1.71 62.19) rotate(-86.84)"/>
  <g>
    <path class="d" d="M33.5,13.5A1.5,1.5,0,0,1,32,15h0a1.5,1.5,0,0,1-1.5-1.5v-2A1.5,1.5,0,0,1,32,10h0a1.5,1.5,0,0,1,1.5,1.5Z"/>
    <path class="d" d="M50.5,33.5A1.5,1.5,0,0,1,49,32h0a1.5,1.5,0,0,1,1.5-1.5h2A1.5,1.5,0,0,1,54,32h0a1.5,1.5,0,0,1-1.5,1.5Z"/>
    <path class="d" d="M13.5,30.5A1.5,1.5,0,0,1,15,32h0a1.5,1.5,0,0,1-1.5,1.5h-2A1.5,1.5,0,0,1,10,32h0a1.5,1.5,0,0,1,1.5-1.5Z"/>
    <path class="d" d="M24.05,15.23a1.5,1.5,0,0,1-.55,2.05h0a1.5,1.5,0,0,1-2.05-.55l-1-1.73A1.5,1.5,0,0,1,21,13h0a1.49,1.49,0,0,1,2.05.55Z"/>
    <path class="d" d="M48.77,24.05a1.5,1.5,0,0,1-2.05-.55h0a1.5,1.5,0,0,1,.55-2.05l1.73-1a1.5,1.5,0,0,1,2,.55h0a1.49,1.49,0,0,1-.55,2.05Z"/>
    <path class="d" d="M15.23,40a1.5,1.5,0,0,1,2.05.55h0a1.5,1.5,0,0,1-.55,2l-1.73,1A1.5,1.5,0,0,1,13,43h0a1.49,1.49,0,0,1,.55-2Z"/>
    <path class="d" d="M16.73,21.45a1.5,1.5,0,0,1,.55,2.05h0a1.5,1.5,0,0,1-2.05.55l-1.73-1A1.49,1.49,0,0,1,13,21h0A1.5,1.5,0,0,1,15,20.45Z"/>
    <path class="d" d="M47.27,42.55a1.5,1.5,0,0,1-.55-2h0A1.5,1.5,0,0,1,48.77,40l1.73,1a1.49,1.49,0,0,1,.55,2h0a1.5,1.5,0,0,1-2,.55Z"/>
    <path class="d" d="M42.55,16.73a1.5,1.5,0,0,1-2,.55h0A1.5,1.5,0,0,1,40,15.23l1-1.73A1.49,1.49,0,0,1,43,13h0A1.5,1.5,0,0,1,43.55,15Z"/>
  </g>
</svg>
