<svg xmlns="http://www.w3.org/2000/svg" viewBox="0 0 64 64">
  <defs>
    <style>
      .a {
        fill: #4f5d73;
      }

      .b {
        opacity: 0.2;
      }

      .c {
        fill: #231f20;
      }

      .d {
        fill: #e0e0d1;
      }

      .e {
        fill: #f5cf87;
      }

      .f {
        fill: #e0995e;
      }

      .g {
        fill: #76c2af;
      }
    </style>
  </defs>
  <title>Elegant_circle-icons</title>
  <circle class="a" cx="31.83" cy="32" r="32"/>
  <g class="b">
    <circle class="c" cx="44" cy="39" r="2"/>
    <circle class="c" cx="44" cy="51" r="2"/>
    <path class="c" d="M26,22H22V18a2,2,0,0,0-4,0v4H14a2,2,0,0,0,0,4h4v4a2,2,0,0,0,4,0V26h4a2,2,0,0,0,0-4Z"/>
    <path class="c" d="M38,26H50a2,2,0,0,0,0-4H38a2,2,0,0,0,0,4Z"/>
    <path class="c" d="M50,43H38a2,2,0,0,0,0,4H50a2,2,0,0,0,0-4Z"/>
    <path class="c" d="M26.83,39.17a2,2,0,0,0-2.83,0l-4,4-4-4A2,2,0,0,0,13.17,42l4,4-4,4A2,2,0,0,0,16,52.83l4-4,4,4A2,2,0,0,0,26.83,50l-4-4,4-4A2,2,0,0,0,26.83,39.17Z"/>
  </g>
  <circle class="d" cx="44" cy="37" r="2"/>
  <circle class="d" cx="44" cy="49" r="2"/>
  <path class="e" d="M28,22a2,2,0,0,1-2,2H14a2,2,0,0,1-2-2h0a2,2,0,0,1,2-2H26a2,2,0,0,1,2,2Z"/>
  <path class="f" d="M52,22a2,2,0,0,1-2,2H38a2,2,0,0,1-2-2h0a2,2,0,0,1,2-2H50a2,2,0,0,1,2,2Z"/>
  <path class="e" d="M20,30a2,2,0,0,1-2-2V16a2,2,0,0,1,2-2h0a2,2,0,0,1,2,2V28a2,2,0,0,1-2,2Z"/>
  <path class="d" d="M52,43a2,2,0,0,1-2,2H38a2,2,0,0,1-2-2h0a2,2,0,0,1,2-2H50a2,2,0,0,1,2,2Z"/>
  <path class="g" d="M26.83,50.83a2,2,0,0,1-2.83,0L13.17,40a2,2,0,0,1,0-2.83h0a2,2,0,0,1,2.83,0L26.83,48a2,2,0,0,1,0,2.83Z"/>
  <path class="g" d="M13.17,50.83a2,2,0,0,1,0-2.83L24,37.17a2,2,0,0,1,2.83,0h0a2,2,0,0,1,0,2.83L16,50.83a2,2,0,0,1-2.83,0Z"/>
</svg>
