<svg xmlns="http://www.w3.org/2000/svg" viewBox="0 0 64 64">
  <defs>
    <style>
      .a {
        fill: #77b3d4;
      }

      .b {
        opacity: 0.2;
      }

      .c {
        fill: #231f20;
      }

      .d {
        fill: #fff;
      }

      .e {
        fill: #c75c5c;
      }

      .f {
        fill: #4f5d73;
      }

      .g {
        fill: #e0e0d1;
      }
    </style>
  </defs>
  <title>Elegant_circle-icons</title>
  <circle class="a" cx="32" cy="32" r="32"/>
  <g>
    <g class="b">
      <path class="c" d="M12,25V50a4,4,0,0,0,4,4H48a4,4,0,0,0,4-4V25Z"/>
    </g>
    <path class="d" d="M12,23V48a4,4,0,0,0,4,4H48a4,4,0,0,0,4-4V23Z"/>
    <g class="b">
      <path class="c" d="M48,14H16a4,4,0,0,0-4,4v7H52V18A4,4,0,0,0,48,14Z"/>
    </g>
    <path class="e" d="M48,12H16a4,4,0,0,0-4,4v7H52V16A4,4,0,0,0,48,12Z"/>
    <path class="f" d="M32,48a2,2,0,0,1-2-2,21,21,0,0,1,3.49-12H27a2,2,0,0,1,0-4H38a2,2,0,0,1,1.16,3.63C39,33.78,34,37.49,34,46A2,2,0,0,1,32,48Z"/>
    <g class="b">
      <path class="c" d="M20,21a2,2,0,0,1-2-2V12a2,2,0,0,1,2-2h0a2,2,0,0,1,2,2v7a2,2,0,0,1-2,2Z"/>
    </g>
    <g class="b">
      <path class="c" d="M45,21a2,2,0,0,1-2-2V12a2,2,0,0,1,2-2h0a2,2,0,0,1,2,2v7a2,2,0,0,1-2,2Z"/>
    </g>
    <path class="g" d="M20,19a2,2,0,0,1-2-2V10a2,2,0,0,1,2-2h0a2,2,0,0,1,2,2v7a2,2,0,0,1-2,2Z"/>
    <path class="g" d="M45,19a2,2,0,0,1-2-2V10a2,2,0,0,1,2-2h0a2,2,0,0,1,2,2v7a2,2,0,0,1-2,2Z"/>
  </g>
</svg>
