<svg xmlns="http://www.w3.org/2000/svg" viewBox="0 0 64 64">
  <defs>
    <style>
      .a {
        fill: #e0995e;
      }

      .b {
        opacity: 0.2;
      }

      .c {
        fill: #231f20;
      }

      .d {
        fill: #4f5d73;
      }

      .e {
        fill: #77b3d4;
      }

      .f {
        fill: #fff;
      }
    </style>
  </defs>
  <title>Elegant_circle-icons</title>
  <circle class="a" cx="32" cy="32" r="32"/>
  <g>
    <g class="b">
      <path class="c" d="M49.5,22.33h-5s-1.45,0-2.5-2.66C41.46,18.31,40.88,17,39.5,17h-10c-1.38,0-2,1.3-2.5,2.67-1,2.66-2.5,2.66-2.5,2.66H22a2.58,2.58,0,0,0-2.5-2.66H17a2.58,2.58,0,0,0-2.5,2.66A2.59,2.59,0,0,0,12,25V46.33A2.59,2.59,0,0,0,14.5,49h35A2.59,2.59,0,0,0,52,46.33V25A2.59,2.59,0,0,0,49.5,22.33Z"/>
    </g>
    <path class="d" d="M49.5,20h-5s-1.45.33-2.5-2.33C41.46,16.31,40.88,15,39.5,15h-10c-1.38,0-2,1.3-2.5,2.67C26,20.33,24.5,20,24.5,20H22c0-1.47-1.12-2-2.5-2H17c-1.38,0-2.5.53-2.5,2-1.38,0-2.5,1.53-2.5,3V44.33A2.59,2.59,0,0,0,14.5,47h35A2.59,2.59,0,0,0,52,44.33V23C52,21.53,50.88,20,49.5,20Z"/>
    <circle class="e" cx="34" cy="33" r="9"/>
    <g class="b">
      <path class="c" d="M34,46A11,11,0,1,1,45,35,11,11,0,0,1,34,46Zm0-18a7,7,0,1,0,7,7A7,7,0,0,0,34,28Z"/>
    </g>
    <path class="f" d="M34,43.5A10.5,10.5,0,1,1,44.5,33,10.51,10.51,0,0,1,34,43.5Zm0-18A7.5,7.5,0,1,0,41.5,33,7.5,7.5,0,0,0,34,25.5Z"/>
  </g>
</svg>
