<svg xmlns="http://www.w3.org/2000/svg" viewBox="0 0 64 64">
  <defs>
    <style>
      .a {
        fill: #e0e0d1;
      }

      .b, .e {
        fill: #231f20;
      }

      .b, .d {
        opacity: 0.2;
      }

      .c {
        fill: #4f5d73;
      }

      .f {
        fill: none;
      }

      .f, .g, .h {
        stroke: #c75c5c;
        stroke-miterlimit: 10;
      }

      .f, .g {
        stroke-width: 4px;
      }

      .g {
        fill: #c75c5c;
      }

      .h {
        fill: #f5cf87;
        stroke-width: 2px;
      }
    </style>
  </defs>
  <title>Elegant_circle-icons_2</title>
  <circle class="a" cx="32" cy="32" r="32"/>
  <g>
    <rect class="b" x="14" y="37" width="6" height="15" rx="2"/>
    <rect class="b" x="44" y="37" width="6" height="15" rx="2"/>
    <rect class="c" x="14" y="35" width="6" height="15" rx="2"/>
    <rect class="c" x="44" y="35" width="6" height="15" rx="2"/>
    <g class="d">
      <path class="e" d="M44,37H20a6,6,0,0,1-6-6l0-.39,2-10.13C17,17.05,19.21,15,22,15H42c2.79,0,5,2.05,5.93,5.48l0,.13L50,31A6,6,0,0,1,44,37ZM18,31.16A2,2,0,0,0,20,33H44a2,2,0,0,0,2-1.84l-1.94-9.7c-.22-.79-.83-2.46-2-2.46H22c-1.22,0-1.83,1.67-2.05,2.46Z"/>
    </g>
    <path class="f" d="M48,29a4,4,0,0,1-4,4H20a4,4,0,0,1-4-4l2-10c.54-2,1.79-4,4-4H42c2.21,0,3.46,2,4,4Z"/>
    <g class="d">
      <rect class="e" x="12" y="33" width="40" height="13" rx="4"/>
      <path class="e" d="M48,48H16a6,6,0,0,1-6-6V37a6,6,0,0,1,6-6H48a6,6,0,0,1,6,6v5A6,6,0,0,1,48,48ZM16,35a2,2,0,0,0-2,2v5a2,2,0,0,0,2,2H48a2,2,0,0,0,2-2V37a2,2,0,0,0-2-2Z"/>
    </g>
    <rect class="g" x="12" y="31" width="40" height="13" rx="4"/>
    <path class="h" d="M21,38a4,4,0,0,1-4,4h0a4,4,0,0,1-4-4h0a4,4,0,0,1,4-4h0a4,4,0,0,1,4,4Z"/>
    <path class="h" d="M51,38a4,4,0,0,1-4,4h0a4,4,0,0,1-4-4h0a4,4,0,0,1,4-4h0a4,4,0,0,1,4,4Z"/>
  </g>
</svg>
