<svg xmlns="http://www.w3.org/2000/svg" viewBox="0 0 64 64">
  <defs>
    <style>
      .a {
        fill: #e0e0d1;
      }

      .b {
        opacity: 0.2;
      }

      .c {
        fill: #231f20;
      }

      .d {
        fill: #e0995e;
      }

      .e {
        fill: #4f5d73;
      }
    </style>
  </defs>
  <title>Elegant_circle-icons</title>
  <circle class="a" cx="32" cy="32" r="32"/>
  <g class="b">
    <path class="c" d="M49,26H15a3,3,0,0,0-3,3l4,18a3,3,0,0,0,3,3H45a3,3,0,0,0,3-3l4-18A3,3,0,0,0,49,26ZM24,45a2,2,0,0,1-4,0V39a2,2,0,0,1,4,0Zm10,0a2,2,0,0,1-4,0V39a2,2,0,0,1,4,0Zm10,0a2,2,0,0,1-4,0V39a2,2,0,0,1,4,0Z"/>
  </g>
  <path class="d" d="M49,24H15a3,3,0,0,0-3,3l4,18a3,3,0,0,0,3,3H45a3,3,0,0,0,3-3l4-18A3,3,0,0,0,49,24ZM24,43a2,2,0,0,1-4,0V37a2,2,0,0,1,4,0Zm10,0a2,2,0,0,1-4,0V37a2,2,0,0,1,4,0Zm10,0a2,2,0,0,1-4,0V37a2,2,0,0,1,4,0Z"/>
  <g class="b">
    <path class="c" d="M56,28a2,2,0,0,1-2,2H10a2,2,0,0,1-2-2H8a2,2,0,0,1,2-2H54a2,2,0,0,1,2,2Z"/>
  </g>
  <path class="d" d="M56,26a2,2,0,0,1-2,2H10a2,2,0,0,1-2-2H8a2,2,0,0,1,2-2H54a2,2,0,0,1,2,2Z"/>
  <g class="b">
    <path class="c" d="M42.83,15.17a2,2,0,0,1,0,2.83L31.41,33.41a2,2,0,0,1-2.82,0h0a2,2,0,0,1,0-2.82L40,15.17a2,2,0,0,1,2.83,0Z"/>
  </g>
  <path class="e" d="M42.83,13.17a2,2,0,0,1,0,2.83L31.41,31.41a2,2,0,0,1-2.82,0h0a2,2,0,0,1,0-2.82L40,13.17a2,2,0,0,1,2.83,0Z"/>
</svg>
