<svg xmlns="http://www.w3.org/2000/svg" viewBox="0 0 64 64">
  <defs>
    <style>
      .a {
        fill: #77b3d4;
      }

      .b {
        opacity: 0.2;
      }

      .c {
        fill: #231f20;
      }

      .d {
        fill: #fff;
      }

      .e {
        fill: #4f5d73;
      }
    </style>
  </defs>
  <title>Elegant_circle-icons</title>
  <circle class="a" cx="32" cy="32" r="32"/>
  <g class="b">
    <path class="c" d="M52,32c0-9.94-9-18-20-18S12,22.06,12,32c0,9.57,8.3,17.37,18.77,17.94C31.46,53.6,32,56,32,56a46.51,46.51,0,0,0,9.64-8.23C47.81,44.71,52,38.79,52,32Z"/>
  </g>
  <path class="d" d="M49,28.8C49,43.76,32,54,32,54s-9.39-42,0-42A16.9,16.9,0,0,1,49,28.8Z"/>
  <ellipse class="d" cx="32" cy="30" rx="20" ry="18"/>
  <circle class="e" cx="32" cy="30" r="2"/>
  <circle class="e" cx="40" cy="30" r="2"/>
  <circle class="e" cx="24" cy="30" r="2"/>
</svg>
