<svg xmlns="http://www.w3.org/2000/svg" viewBox="0 0 64 64">
  <defs>
    <style>
      .a {
        fill: #76c2af;
      }

      .b {
        opacity: 0.2;
      }

      .c {
        fill: #231f20;
      }

      .d {
        fill: #fff;
      }

      .e {
        fill: #4f5d73;
      }

      .f {
        fill: #c75c5c;
      }
    </style>
  </defs>
  <title>Elegant_circle-icons</title>
  <circle class="a" cx="32" cy="32" r="32"/>
  <g class="b">
    <rect class="c" x="18" y="21" width="28" height="28" rx="4"/>
  </g>
  <g>
    <rect class="d" x="20" y="21" width="24" height="24" rx="2"/>
    <path class="e" d="M42,23V43H22V23H42m0-4H22a4,4,0,0,0-4,4V43a4,4,0,0,0,4,4H42a4,4,0,0,0,4-4V23a4,4,0,0,0-4-4Z"/>
  </g>
  <g class="b">
    <path class="c" d="M32.45,41a2,2,0,0,1-1.59-.79l-6.12-8a2,2,0,0,1,3.18-2.42l4.19,5.47c2.31-4.16,7.33-11.78,15.3-16.94a2,2,0,1,1,2.18,3.36c-10.21,6.6-15.25,18-15.3,18.12A2,2,0,0,1,32.69,41Z"/>
  </g>
  <path class="f" d="M32.45,39a2,2,0,0,1-1.59-.79l-6.12-8a2,2,0,0,1,3.18-2.42l4.19,5.47c2.31-4.16,7.32-11.78,15.3-16.94a2,2,0,1,1,2.18,3.36c-10.21,6.6-15.25,18-15.3,18.12A2,2,0,0,1,32.69,39Z"/>
</svg>
