<svg xmlns="http://www.w3.org/2000/svg" viewBox="0 0 64 64">
  <defs>
    <style>
      .a {
        fill: #77b3d4;
      }

      .b, .f {
        opacity: 0.2;
      }

      .c, .f {
        fill: #231f20;
      }

      .d {
        fill: #4f5d73;
      }

      .e {
        fill: #fff;
      }
    </style>
  </defs>
  <title>Elegant_circle-icons_3</title>
  <circle class="a" cx="32" cy="32" r="32"/>
  <g class="b">
    <path class="c" d="M50.33,29H12V51a2,2,0,0,0,2,2H50a2,2,0,0,0,2-2V29Z"/>
    <path class="c" d="M18.06,27.74l6.09-1.28,5.44-1.13,6.09-1.27,5.43-1.13,10-2.1L49.93,15a2,2,0,0,0-2.36-1.55l-.56.12-5.44,1.13-6.09,1.27-5.43,1.13L24,18.33l-5.43,1.14-6.21,1.29a2,2,0,0,0-1.55,2.37L12,29l.63-.13Z"/>
  </g>
  <path class="d" d="M12,34V49a2,2,0,0,0,2,2H50a2,2,0,0,0,2-2V34Z"/>
  <g>
    <polygon class="d" points="12 27 12 34 13.67 34 20.67 27 12 27"/>
    <polygon class="d" points="38.33 27 31.33 34 37.67 34 44.67 27 38.33 27"/>
    <polygon class="d" points="26.33 27 19.33 34 25.67 34 32.67 27 26.33 27"/>
    <polygon class="e" points="20.67 27 13.67 34 19.33 34 26.33 27 20.67 27"/>
    <polygon class="e" points="32.67 27 25.67 34 31.33 34 38.33 27 32.67 27"/>
    <polygon class="e" points="44.67 27 37.67 34 43.33 34 50.33 27 44.67 27"/>
    <g>
      <polygon class="d" points="52 27 50.33 27 43.33 34 49.34 34 52 31.34 52 27"/>
      <polygon class="e" points="49.34 34 52 34 52 31.34 49.34 34"/>
    </g>
  </g>
  <g>
    <polygon class="d" points="23.96 16.33 18.06 25.73 24.16 24.46 30.05 15.06 23.96 16.33"/>
    <polygon class="d" points="35.48 13.93 29.59 23.33 35.68 22.06 41.57 12.66 35.48 13.93"/>
    <path class="d" d="M12.32,18.76a2,2,0,0,0-1.55,2.37L12,27l.63-.13,5.9-9.4Z"/>
    <polygon class="e" points="18.53 17.47 12.63 26.87 18.06 25.73 23.96 16.33 18.53 17.47"/>
    <polygon class="e" points="30.05 15.06 24.16 24.46 29.59 23.33 35.48 13.93 30.05 15.06"/>
    <polygon class="e" points="47.01 11.53 41.57 12.66 35.68 22.06 41.11 20.93 47.01 11.53"/>
    <g>
      <path class="d" d="M49.93,13a2,2,0,0,0-2.36-1.55l-.56.12-5.9,9.4,6.11-1.28,3.08-4.92Z"/>
      <polygon class="e" points="50.3 14.73 47.22 19.65 51.16 18.83 50.3 14.73"/>
    </g>
  </g>
  <circle class="f" cx="13" cy="29" r="3"/>
  <circle class="d" cx="13" cy="27" r="3"/>
</svg>
