<svg xmlns="http://www.w3.org/2000/svg" viewBox="0 0 64 64">
  <defs>
    <style>
      .a {
        fill: #e0e0d1;
      }

      .b {
        opacity: 0.2;
      }

      .c {
        fill: #231f20;
      }

      .d {
        fill: #c75c5c;
      }

      .e {
        fill: #4f5d73;
      }
    </style>
  </defs>
  <title>Elegant_circle-icons</title>
  <circle class="a" cx="32" cy="32" r="32"/>
  <g class="b">
    <path class="c" d="M32,16A18,18,0,1,1,14,34,18,18,0,0,1,32,16Zm0-4A22,22,0,1,0,54,34,22,22,0,0,0,32,12Z"/>
  </g>
  <path class="d" d="M32,14A18,18,0,1,1,14,32,18,18,0,0,1,32,14m0-4A22,22,0,1,0,54,32,22,22,0,0,0,32,10Z"/>
  <g class="b">
    <path class="c" d="M40,44a2,2,0,0,1-1.41-.59L30,34.83V26a2,2,0,0,1,4,0v7.17l7.41,7.42A2,2,0,0,1,40,44Z"/>
  </g>
  <path class="e" d="M40,42a2,2,0,0,1-1.41-.59L30,32.83V24a2,2,0,0,1,4,0v7.17l7.41,7.42A2,2,0,0,1,40,42Z"/>
</svg>
