<svg xmlns="http://www.w3.org/2000/svg" viewBox="0 0 64 64">
  <defs>
    <style>
      .a {
        fill: #e0e0d1;
      }

      .b {
        opacity: 0.2;
      }

      .c {
        fill: #231f20;
      }

      .d {
        fill: #77b3d4;
      }

      .e {
        fill: #76c2af;
      }

      .f {
        fill: #e0995e;
      }

      .g {
        fill: #c75c5c;
      }

      .h {
        fill: #f5cf87;
      }

      .i {
        fill: #4f5d73;
      }
    </style>
  </defs>
  <title>Elegant_circle-icons_3</title>
  <circle class="a" cx="32" cy="32" r="32"/>
  <g class="b">
    <path class="c" d="M19.48,37.47A2,2,0,0,0,17.56,36H12.41a2,2,0,0,0-2,2.4A21.85,21.85,0,0,0,16.93,50a2,2,0,0,0,1.37.55l.29,0a2,2,0,0,0,1.44-1l2.6-4.5a2,2,0,0,0-.25-2.35A13,13,0,0,1,19.48,37.47Z"/>
    <path class="c" d="M36.9,47.66a2,2,0,0,0-1.73-1,2.15,2.15,0,0,0-.43,0A12.64,12.64,0,0,1,32,47a12.92,12.92,0,0,1-3.76-.56,1.93,1.93,0,0,0-.58-.08,2,2,0,0,0-1.73,1l-2.56,4.42a2,2,0,0,0,1,2.87A21.68,21.68,0,0,0,32,56a21.93,21.93,0,0,0,6.35-.93,2,2,0,0,0,1.15-2.92Z"/>
    <path class="c" d="M44.52,30.53A2,2,0,0,0,46.44,32H51.6a2,2,0,0,0,1.54-.73,2,2,0,0,0,.42-1.67,22,22,0,0,0-7.47-12.49,2,2,0,0,0-1.28-.47l-.35,0a2,2,0,0,0-1.38,1l-2.56,4.43a2,2,0,0,0,.37,2.46A12.94,12.94,0,0,1,44.52,30.53Z"/>
    <path class="c" d="M38.35,12.93A21.93,21.93,0,0,0,32,12a21.68,21.68,0,0,0-7.59,1.35,2,2,0,0,0-1,2.87l2.56,4.42a2,2,0,0,0,1.73,1,1.93,1.93,0,0,0,.58-.08A12.92,12.92,0,0,1,32,21a12.64,12.64,0,0,1,2.74.3,2.15,2.15,0,0,0,.43,0,2,2,0,0,0,1.73-1l2.6-4.49a2,2,0,0,0-1.15-2.92Z"/>
    <path class="c" d="M51.6,36H46.44a2,2,0,0,0-1.92,1.47,12.94,12.94,0,0,1-3.63,6,2,2,0,0,0-.37,2.46l2.56,4.43a2,2,0,0,0,1.38,1l.35,0a2,2,0,0,0,1.28-.47A22,22,0,0,0,53.56,38.4a2,2,0,0,0-.42-1.67A2,2,0,0,0,51.6,36Z"/>
    <path class="c" d="M20,18.43a2,2,0,0,0-1.44-1l-.29,0a2,2,0,0,0-1.37.55A21.85,21.85,0,0,0,10.45,29.6a2,2,0,0,0,2,2.4h5.15a2,2,0,0,0,1.92-1.47,13,13,0,0,1,2.9-5.25,2,2,0,0,0,.25-2.35Z"/>
  </g>
  <g>
    <path class="d" d="M19.48,35.47A2,2,0,0,0,17.56,34H12.41a2,2,0,0,0-2,2.4A21.85,21.85,0,0,0,16.93,48a2,2,0,0,0,1.37.55l.29,0a2,2,0,0,0,1.44-1l2.6-4.5a2,2,0,0,0-.25-2.35A13,13,0,0,1,19.48,35.47Z"/>
    <path class="e" d="M36.9,45.66a2,2,0,0,0-1.73-1,2.15,2.15,0,0,0-.43,0A12.64,12.64,0,0,1,32,45a12.92,12.92,0,0,1-3.76-.56,1.93,1.93,0,0,0-.58-.08,2,2,0,0,0-1.73,1l-2.56,4.42a2,2,0,0,0,1,2.87A21.68,21.68,0,0,0,32,54a21.93,21.93,0,0,0,6.35-.93,2,2,0,0,0,1.15-2.92Z"/>
    <path class="f" d="M44.52,28.53A2,2,0,0,0,46.44,30H51.6a2,2,0,0,0,1.54-.73,2,2,0,0,0,.42-1.67,22,22,0,0,0-7.47-12.49,2,2,0,0,0-1.28-.47l-.35,0a2,2,0,0,0-1.38,1l-2.56,4.43a2,2,0,0,0,.37,2.46A12.94,12.94,0,0,1,44.52,28.53Z"/>
    <path class="g" d="M38.35,10.93A21.93,21.93,0,0,0,32,10a21.68,21.68,0,0,0-7.59,1.35,2,2,0,0,0-1,2.87l2.56,4.42a2,2,0,0,0,1.73,1,1.93,1.93,0,0,0,.58-.08A12.92,12.92,0,0,1,32,19a12.64,12.64,0,0,1,2.74.3,2.15,2.15,0,0,0,.43,0,2,2,0,0,0,1.73-1l2.6-4.49a2,2,0,0,0-1.15-2.92Z"/>
    <path class="h" d="M51.6,34H46.44a2,2,0,0,0-1.92,1.47,12.94,12.94,0,0,1-3.63,6,2,2,0,0,0-.37,2.46l2.56,4.43a2,2,0,0,0,1.38,1l.35,0a2,2,0,0,0,1.28-.47A22,22,0,0,0,53.56,36.4a2,2,0,0,0-.42-1.67A2,2,0,0,0,51.6,34Z"/>
    <path class="i" d="M20,16.43a2,2,0,0,0-1.44-1l-.29,0a2,2,0,0,0-1.37.55A21.85,21.85,0,0,0,10.45,27.6a2,2,0,0,0,2,2.4h5.15a2,2,0,0,0,1.92-1.47,13,13,0,0,1,2.9-5.25,2,2,0,0,0,.25-2.35Z"/>
  </g>
</svg>
