<svg xmlns="http://www.w3.org/2000/svg" viewBox="0 0 64 64">
  <defs>
    <style>
      .a {
        fill: #4f5d73;
      }

      .b {
        fill: #77b3d4;
      }

      .c {
        opacity: 0.2;
      }

      .d {
        fill: #231f20;
      }

      .e {
        fill: #fff;
      }

      .f {
        fill: #c75c5c;
      }
    </style>
  </defs>
  <title>Elegant_circle-icons</title>
  <circle class="a" cx="32" cy="32" r="32"/>
  <circle class="b" cx="32" cy="32" r="22"/>
  <g class="c">
    <path class="d" d="M32,16A18,18,0,1,1,14,34,18,18,0,0,1,32,16Zm0-4A22,22,0,1,0,54,34,22,22,0,0,0,32,12Z"/>
  </g>
  <path class="e" d="M32,14A18,18,0,1,1,14,32,18,18,0,0,1,32,14m0-4A22,22,0,1,0,54,32,22,22,0,0,0,32,10Z"/>
  <g class="c">
    <path class="d" d="M41.81,25.91l-2.9,4.66L37,33.67c0,.11-5.19,5.3-5.3,5.3l-3.11,1.94-4.65,2.9a1.21,1.21,0,0,1-.66.19,1.33,1.33,0,0,1-.89-.36,1.26,1.26,0,0,1-.17-1.55l2.9-4.65L27,34.33c0-.11,5.19-5.3,5.3-5.3l3.1-1.94,4.66-2.9a1.24,1.24,0,0,1,1.54.18A1.23,1.23,0,0,1,41.81,25.91ZM29.5,34A2.5,2.5,0,1,0,32,31.5,2.5,2.5,0,0,0,29.5,34Z"/>
  </g>
  <path class="f" d="M41.81,23.91l-2.9,4.66L37,31.67c0,.11-5.19,5.3-5.3,5.3l-3.11,1.94-4.65,2.9a1.21,1.21,0,0,1-.66.19,1.33,1.33,0,0,1-.89-.36,1.26,1.26,0,0,1-.17-1.55l2.9-4.65L27,32.33c0-.11,5.19-5.3,5.3-5.3l3.1-1.94,4.66-2.9a1.24,1.24,0,0,1,1.54.18A1.23,1.23,0,0,1,41.81,23.91ZM29.5,32A2.5,2.5,0,1,0,32,29.5,2.5,2.5,0,0,0,29.5,32Z"/>
  <g class="c">
    <circle class="d" cx="32" cy="34" r="5"/>
  </g>
  <circle class="e" cx="32" cy="32" r="5"/>
</svg>
