<svg xmlns="http://www.w3.org/2000/svg" viewBox="0 0 64 64">
  <defs>
    <style>
      .a {
        fill: #4f5d73;
      }

      .b {
        opacity: 0.2;
      }

      .c {
        fill: #231f20;
      }

      .d {
        fill: #e0e0d1;
      }
    </style>
  </defs>
  <title>Elegant_circle-icons_3</title>
  <circle class="a" cx="32" cy="32" r="32"/>
  <g class="b">
    <path class="c" d="M54.5,32.5H51.92A19.17,19.17,0,0,0,51,27.87l2.37-1a1.5,1.5,0,1,0-1.13-2.77l-2.38,1A19.5,19.5,0,0,0,47.15,21L49,19.15A1.5,1.5,0,0,0,46.85,17L45,18.85a20,20,0,0,0-3.91-2.64l1-2.36a1.5,1.5,0,0,0-2.77-1.17l-1,2.37a19.59,19.59,0,0,0-4.86-1V11.5a1.5,1.5,0,0,0-3,0v2.58a19.17,19.17,0,0,0-4.63.89l-1-2.37a1.5,1.5,0,1,0-2.77,1.13l1,2.38A19.5,19.5,0,0,0,19,18.85L17.15,17A1.5,1.5,0,0,0,15,19.15L16.85,21a20,20,0,0,0-2.64,3.91l-2.36-1a1.5,1.5,0,0,0-1.17,2.77l2.37,1a19.59,19.59,0,0,0-1,4.86H9.5a1.5,1.5,0,0,0,0,3h2.58A19.17,19.17,0,0,0,13,40.13l-2.37,1a1.5,1.5,0,0,0-.83,1.95,1.51,1.51,0,0,0,1.39.94,1.46,1.46,0,0,0,.57-.12l2.38-1A19.5,19.5,0,0,0,16.85,47L15,48.85A1.49,1.49,0,0,0,15,51a1.5,1.5,0,0,0,2.12,0L19,49.15a20,20,0,0,0,3.91,2.64l-1,2.36a1.5,1.5,0,1,0,2.77,1.17l1-2.37a19.59,19.59,0,0,0,4.86,1V56.5a1.5,1.5,0,0,0,3,0V53.92A19.17,19.17,0,0,0,38.13,53l1,2.37a1.48,1.48,0,0,0,1.39.94,1.59,1.59,0,0,0,.56-.11,1.5,1.5,0,0,0,.82-2l-1-2.38A19.5,19.5,0,0,0,45,49.15L46.85,51A1.5,1.5,0,0,0,49,51a1.49,1.49,0,0,0,0-2.12L47.15,47a20,20,0,0,0,2.64-3.91l2.36,1a1.5,1.5,0,1,0,1.17-2.77l-2.37-1a19.59,19.59,0,0,0,1-4.86H54.5a1.5,1.5,0,0,0,0-3ZM49,34A17,17,0,1,1,32,17,17,17,0,0,1,49,34Z"/>
    <path class="c" d="M32,20A14,14,0,1,0,46,34,14,14,0,0,0,32,20ZM21,34A11,11,0,0,1,32,23V45A11,11,0,0,1,21,34Z"/>
  </g>
  <g>
    <path class="d" d="M54.5,30.5H51.92A19.17,19.17,0,0,0,51,25.87l2.37-1a1.5,1.5,0,1,0-1.13-2.77l-2.38,1A19.5,19.5,0,0,0,47.15,19L49,17.15A1.5,1.5,0,0,0,46.85,15L45,16.85a20,20,0,0,0-3.91-2.64l1-2.36a1.5,1.5,0,0,0-2.77-1.17l-1,2.37a19.59,19.59,0,0,0-4.86-1V9.5a1.5,1.5,0,0,0-3,0v2.58a19.17,19.17,0,0,0-4.63.89l-1-2.37a1.5,1.5,0,1,0-2.77,1.13l1,2.38A19.5,19.5,0,0,0,19,16.85L17.15,15A1.5,1.5,0,0,0,15,17.15L16.85,19a20,20,0,0,0-2.64,3.91l-2.36-1a1.5,1.5,0,0,0-1.17,2.77l2.37,1a19.59,19.59,0,0,0-1,4.86H9.5a1.5,1.5,0,0,0,0,3h2.58A19.17,19.17,0,0,0,13,38.13l-2.37,1a1.5,1.5,0,0,0-.83,1.95,1.51,1.51,0,0,0,1.39.94,1.46,1.46,0,0,0,.57-.12l2.38-1A19.5,19.5,0,0,0,16.85,45L15,46.85A1.49,1.49,0,0,0,15,49a1.5,1.5,0,0,0,2.12,0L19,47.15a20,20,0,0,0,3.91,2.64l-1,2.36a1.5,1.5,0,1,0,2.77,1.17l1-2.37a19.59,19.59,0,0,0,4.86,1V54.5a1.5,1.5,0,0,0,3,0V51.92A19.17,19.17,0,0,0,38.13,51l1,2.37a1.48,1.48,0,0,0,1.39.94,1.59,1.59,0,0,0,.56-.11,1.5,1.5,0,0,0,.82-2l-1-2.38A19.5,19.5,0,0,0,45,47.15L46.85,49A1.5,1.5,0,0,0,49,49a1.49,1.49,0,0,0,0-2.12L47.15,45a20,20,0,0,0,2.64-3.91l2.36,1a1.5,1.5,0,1,0,1.17-2.77l-2.37-1a19.59,19.59,0,0,0,1-4.86H54.5a1.5,1.5,0,0,0,0-3ZM49,32A17,17,0,1,1,32,15,17,17,0,0,1,49,32Z"/>
    <path class="d" d="M32,18A14,14,0,1,0,46,32,14,14,0,0,0,32,18ZM21,32A11,11,0,0,1,32,21V43A11,11,0,0,1,21,32Z"/>
  </g>
</svg>
