<svg xmlns="http://www.w3.org/2000/svg" viewBox="0 0 64 64">
  <defs>
    <style>
      .a {
        fill: #c75c5c;
      }

      .b {
        opacity: 0.2;
      }

      .c {
        fill: #231f20;
      }

      .d {
        fill: #77b3d4;
      }

      .e {
        fill: #fff;
      }

      .f {
        fill: #76c2af;
      }

      .g {
        fill: #e0995e;
      }

      .h {
        fill: #4f5d73;
      }

      .i {
        fill: #e0e0d1;
      }

      .j {
        fill: #f5cf87;
      }
    </style>
  </defs>
  <title>Elegant_circle-icons</title>
  <circle class="a" cx="32" cy="32" r="32"/>
  <g>
    <g class="b">
      <path class="c" d="M49,26a2,2,0,0,1-2-2V21a2,2,0,0,1,2-2h0a2,2,0,0,1,2,2v3a2,2,0,0,1-2,2Z"/>
    </g>
    <g class="b">
      <path class="c" d="M49,35a2,2,0,0,1-2-2V30a2,2,0,0,1,2-2h0a2,2,0,0,1,2,2v3a2,2,0,0,1-2,2Z"/>
    </g>
    <g class="b">
      <path class="c" d="M49,44a2,2,0,0,1-2-2V39a2,2,0,0,1,2-2h0a2,2,0,0,1,2,2v3a2,2,0,0,1-2,2Z"/>
    </g>
    <path class="d" d="M49,24a2,2,0,0,1-2-2V19a2,2,0,0,1,2-2h0a2,2,0,0,1,2,2v3a2,2,0,0,1-2,2Z"/>
    <path class="e" d="M49,33a2,2,0,0,1-2-2V28a2,2,0,0,1,2-2h0a2,2,0,0,1,2,2v3a2,2,0,0,1-2,2Z"/>
    <path class="f" d="M49,42a2,2,0,0,1-2-2V37a2,2,0,0,1,2-2h0a2,2,0,0,1,2,2v3a2,2,0,0,1-2,2Z"/>
    <g class="b">
      <rect class="c" x="17" y="14" width="32" height="40" rx="4"/>
    </g>
    <rect class="g" x="16" y="12" width="32" height="40" rx="4"/>
    <rect class="h" x="22" y="12" width="3" height="40"/>
    <g class="b">
      <path class="c" d="M20,22a2,2,0,0,1-2,2H15a2,2,0,0,1-2-2h0a2,2,0,0,1,2-2h3a2,2,0,0,1,2,2Z"/>
      <path class="c" d="M20,30a2,2,0,0,1-2,2H15a2,2,0,0,1-2-2h0a2,2,0,0,1,2-2h3a2,2,0,0,1,2,2Z"/>
      <path class="c" d="M20,38a2,2,0,0,1-2,2H15a2,2,0,0,1-2-2h0a2,2,0,0,1,2-2h3a2,2,0,0,1,2,2Z"/>
      <path class="c" d="M20,46a2,2,0,0,1-2,2H15a2,2,0,0,1-2-2h0a2,2,0,0,1,2-2h3a2,2,0,0,1,2,2Z"/>
    </g>
    <g>
      <path class="i" d="M20,20a2,2,0,0,1-2,2H15a2,2,0,0,1-2-2h0a2,2,0,0,1,2-2h3a2,2,0,0,1,2,2Z"/>
      <path class="i" d="M20,28a2,2,0,0,1-2,2H15a2,2,0,0,1-2-2h0a2,2,0,0,1,2-2h3a2,2,0,0,1,2,2Z"/>
      <path class="i" d="M20,36a2,2,0,0,1-2,2H15a2,2,0,0,1-2-2h0a2,2,0,0,1,2-2h3a2,2,0,0,1,2,2Z"/>
      <path class="i" d="M20,44a2,2,0,0,1-2,2H15a2,2,0,0,1-2-2h0a2,2,0,0,1,2-2h3a2,2,0,0,1,2,2Z"/>
    </g>
    <circle class="j" cx="36" cy="27" r="4"/>
    <path class="j" d="M42,39.26c0,3-2.69,2.72-6,2.72s-6,.29-6-2.72S32.69,32,36,32,42,36.25,42,39.26Z"/>
  </g>
</svg>
