<svg xmlns="http://www.w3.org/2000/svg" viewBox="0 0 64 64">
  <defs>
    <style>
      .a {
        fill: #f5cf87;
      }

      .b {
        fill: #e0995e;
      }

      .c {
        opacity: 0.2;
      }

      .d {
        fill: #231f20;
      }

      .e {
        fill: none;
      }

      .f {
        fill: #4f5d73;
      }
    </style>
  </defs>
  <title>Elegant_circle-icons_3</title>
  <circle class="a" cx="32" cy="32" r="32"/>
  <path class="b" d="M32,14.4V32L44.32,45.2C57.52,27.6,41.72,14.4,32,14.4Z"/>
  <g class="c">
    <path class="d" d="M32,10.5A23.5,23.5,0,1,0,55.5,34,23.52,23.52,0,0,0,32,10.5Zm20.42,22h-2A18.49,18.49,0,0,0,33.5,15.58v-2A20.48,20.48,0,0,1,52.42,32.5Zm-21.92,0H16.58A15.52,15.52,0,0,1,30.5,18.58Zm0,3V49.42A15.52,15.52,0,0,1,16.58,35.5Zm3,0H47.42A15.52,15.52,0,0,1,33.5,49.42Zm0-3V18.58A15.52,15.52,0,0,1,47.42,32.5Zm-3-18.92v2A18.49,18.49,0,0,0,13.58,32.5h-2A20.48,20.48,0,0,1,30.5,13.58ZM11.58,35.5h2A18.49,18.49,0,0,0,30.5,52.42v2A20.48,20.48,0,0,1,11.58,35.5ZM33.5,54.42v-2A18.49,18.49,0,0,0,50.42,35.5h2A20.48,20.48,0,0,1,33.5,54.42Z"/>
  </g>
  <g>
    <path class="e" d="M30.5,47.42V33.5H16.58A15.52,15.52,0,0,0,30.5,47.42Z"/>
    <path class="e" d="M47.42,33.5H33.5V47.42A15.52,15.52,0,0,0,47.42,33.5Z"/>
    <path class="e" d="M33.5,16.58V30.5H47.42A15.52,15.52,0,0,0,33.5,16.58Z"/>
    <path class="e" d="M33.5,13.58A18.49,18.49,0,0,1,50.42,30.5h2A20.48,20.48,0,0,0,33.5,11.58Z"/>
    <path class="e" d="M16.58,30.5H30.5V16.58A15.52,15.52,0,0,0,16.58,30.5Z"/>
    <path class="e" d="M13.58,30.5A18.49,18.49,0,0,1,30.5,13.58v-2A20.48,20.48,0,0,0,11.58,30.5Z"/>
    <path class="e" d="M50.42,33.5A18.49,18.49,0,0,1,33.5,50.42v2A20.48,20.48,0,0,0,52.42,33.5Z"/>
    <path class="e" d="M30.5,50.42A18.49,18.49,0,0,1,13.58,33.5h-2A20.48,20.48,0,0,0,30.5,52.42Z"/>
    <path class="f" d="M32,8.5A23.5,23.5,0,1,0,55.5,32,23.52,23.52,0,0,0,32,8.5Zm20.42,22h-2A18.49,18.49,0,0,0,33.5,13.58v-2A20.48,20.48,0,0,1,52.42,30.5Zm-21.92,0H16.58A15.52,15.52,0,0,1,30.5,16.58Zm0,3V47.42A15.52,15.52,0,0,1,16.58,33.5Zm3,0H47.42A15.52,15.52,0,0,1,33.5,47.42Zm0-3V16.58A15.52,15.52,0,0,1,47.42,30.5Zm-3-18.92v2A18.49,18.49,0,0,0,13.58,30.5h-2A20.48,20.48,0,0,1,30.5,11.58ZM11.58,33.5h2A18.49,18.49,0,0,0,30.5,50.42v2A20.48,20.48,0,0,1,11.58,33.5ZM33.5,52.42v-2A18.49,18.49,0,0,0,50.42,33.5h2A20.48,20.48,0,0,1,33.5,52.42Z"/>
  </g>
</svg>
