<svg xmlns="http://www.w3.org/2000/svg" viewBox="0 0 64 64">
  <defs>
    <style>
      .a {
        fill: #e0e0d1;
      }

      .b {
        opacity: 0.2;
      }

      .c {
        fill: #231f20;
      }

      .d {
        fill: #4f5d73;
      }
    </style>
  </defs>
  <title>Elegant_circle-icons_3</title>
  <circle class="a" cx="32" cy="32" r="32"/>
  <g class="b">
    <path class="c" d="M50.5,45H25L43,27V42h5V22l2.77-2.77a2.5,2.5,0,0,0-3.54-3.54L43.46,19.5H24V24H38.46L21,42V17a2.5,2.5,0,0,0-5,0v2H13.5a2.5,2.5,0,0,0,0,5H16V47.5A2.5,2.5,0,0,0,18.5,50H43v2.5a2.5,2.5,0,0,0,5,0V50h2.5a2.5,2.5,0,0,0,0-5Z"/>
  </g>
  <path class="d" d="M50.5,43H25L43,25V40h5V20l2.77-2.77a2.5,2.5,0,0,0-3.54-3.54L44,17H24v5H39L21,40V15a2.5,2.5,0,0,0-5,0v2H13.5a2.5,2.5,0,0,0,0,5H16V45.5A2.5,2.5,0,0,0,18.5,48H43v2.5a2.5,2.5,0,0,0,5,0V48h2.5a2.5,2.5,0,0,0,0-5Z"/>
</svg>
