<svg xmlns="http://www.w3.org/2000/svg" viewBox="0 0 64 64">
  <defs>
    <style>
      .a {
        fill: #77b3d4;
      }

      .b, .e {
        opacity: 0.2;
      }

      .c, .e {
        fill: #231f20;
      }

      .d {
        fill: none;
        stroke: #f5cf87;
        stroke-linecap: round;
        stroke-miterlimit: 10;
        stroke-width: 4px;
      }

      .f {
        fill: #4f5d73;
      }

      .g {
        fill: #fff;
      }
    </style>
  </defs>
  <title>Elegant_circle-icons_2</title>
  <circle class="a" cx="32" cy="32" r="32"/>
  <g class="b">
    <path class="c" d="M32,60a2,2,0,0,1-2-2V14a2,2,0,0,1,4,0V58A2,2,0,0,1,32,60Z"/>
  </g>
  <line class="d" x1="32" y1="12" x2="32" y2="56"/>
  <path class="e" d="M18.49,16a2.14,2.14,0,0,0-1.31.55l-4.95,4.9a.77.77,0,0,0,0,1.1l4.95,4.9a2.14,2.14,0,0,0,1.31.55H39.24a.78.78,0,0,0,.76-.8V16.8a.78.78,0,0,0-.76-.8Z"/>
  <path class="e" d="M49.51,42a2.14,2.14,0,0,0,1.31-.55l5-4.9a.77.77,0,0,0,0-1.1l-5-4.9A2.14,2.14,0,0,0,49.51,30H24.76a.78.78,0,0,0-.76.8V41.2a.78.78,0,0,0,.76.8Z"/>
  <path class="f" d="M18.49,14a2.14,2.14,0,0,0-1.31.55l-4.95,4.9a.77.77,0,0,0,0,1.1l4.95,4.9a2.14,2.14,0,0,0,1.31.55H39.24a.78.78,0,0,0,.76-.8V14.8a.78.78,0,0,0-.76-.8Z"/>
  <path class="g" d="M49.51,40a2.14,2.14,0,0,0,1.31-.55l5-4.9a.77.77,0,0,0,0-1.1l-5-4.9A2.14,2.14,0,0,0,49.51,28H24.76a.78.78,0,0,0-.76.8V39.2a.78.78,0,0,0,.76.8Z"/>
</svg>
