<svg xmlns="http://www.w3.org/2000/svg" viewBox="0 0 64 64">
  <defs>
    <style>
      .a {
        fill: #4f5d73;
      }

      .b {
        fill: #231f20;
        opacity: 0.2;
      }

      .c {
        fill: #e0e0d1;
        stroke: #e0e0d1;
      }

      .c, .e {
        stroke-linejoin: round;
        stroke-width: 2px;
      }

      .d {
        fill: #77b3d4;
      }

      .e {
        fill: #fff;
        stroke: #fff;
      }
    </style>
  </defs>
  <title>Elegant_circle-icons_2</title>
  <circle class="a" cx="32" cy="32.19" r="32"/>
  <path class="b" d="M56.82,33.43A1,1,0,0,0,56,33H48.87l-4.06-5.59A1,1,0,0,0,44,27H39.43l-3-4.56a1,1,0,0,0-.84-.44H20.85a1,1,0,0,0-1,.88L19.36,27H16a1,1,0,0,0-1,.82L14.07,33H10a1,1,0,0,0-1,1,22.85,22.85,0,0,0,1,7c1.46,5,4.61,5,6,5H42.8c9.58,0,14-11.17,14.13-11.64A1,1,0,0,0,56.82,33.43Z"/>
  <polygon class="c" points="39.94 27.55 20.06 27.55 20.85 21 35.55 21 39.94 27.55"/>
  <polygon class="c" points="52 37 14 37 16 26 44 26 52 37"/>
  <circle class="d" cx="23" cy="30" r="2"/>
  <circle class="d" cx="31" cy="30" r="2"/>
  <circle class="d" cx="39" cy="30" r="2"/>
  <path class="e" d="M16,43H42.8C51.8,43,56,32,56,32H10a22.1,22.1,0,0,0,1,6.75C12.25,43,14.69,43,16,43Z"/>
</svg>
