<svg xmlns="http://www.w3.org/2000/svg" viewBox="0 0 64 64">
  <defs>
    <style>
      .a {
        fill: #76c2af;
      }

      .b {
        opacity: 0.2;
      }

      .c {
        fill: #231f20;
      }

      .d {
        fill: #e0e0d1;
      }

      .e {
        fill: #fff;
      }

      .f {
        fill: #4f5d73;
      }
    </style>
  </defs>
  <title>Elegant_circle-icons</title>
  <circle class="a" cx="32" cy="32" r="32"/>
  <g class="b">
    <path class="c" d="M49.43,19.65,35.71,11.73a8.41,8.41,0,0,0-7.42,0L14.57,19.65a8.24,8.24,0,0,0-3.71,6.43V41.92a8.24,8.24,0,0,0,3.71,6.43l13.72,7.92a8.18,8.18,0,0,0,7.42,0l13.72-7.92a8.24,8.24,0,0,0,3.71-6.43V26.08A8.24,8.24,0,0,0,49.43,19.65Z"/>
  </g>
  <g>
    <g>
      <path class="d" d="M35.46,10.17a7.67,7.67,0,0,0-6.92,0L14.82,18.08a7.7,7.7,0,0,0-3.46,6V39.92a7.7,7.7,0,0,0,3.46,6l13.72,7.91a7.67,7.67,0,0,0,6.92,0l13.72-7.91a7.7,7.7,0,0,0,3.46-6V24.08a7.7,7.7,0,0,0-3.46-6Z"/>
      <path class="d" d="M32,55.16a7.46,7.46,0,0,1-3.71-.9L14.57,46.35a8.24,8.24,0,0,1-3.71-6.43V24.08a8.24,8.24,0,0,1,3.71-6.43L28.29,9.74a8.35,8.35,0,0,1,7.42,0l13.72,7.91a8.24,8.24,0,0,1,3.71,6.43V39.92a8.24,8.24,0,0,1-3.71,6.43L35.71,54.26A7.46,7.46,0,0,1,32,55.16ZM32,9.84a6.48,6.48,0,0,0-3.21.76L15.07,18.52a7.21,7.21,0,0,0-3.21,5.56V39.92a7.21,7.21,0,0,0,3.21,5.56L28.79,53.4a7.38,7.38,0,0,0,6.42,0l13.72-7.92a7.21,7.21,0,0,0,3.21-5.56V24.08a7.21,7.21,0,0,0-3.21-5.56L35.21,10.6A6.48,6.48,0,0,0,32,9.84Z"/>
    </g>
    <path class="e" d="M32,29.83a6.11,6.11,0,0,1-3-.7L15.32,21.22c-.59-.34-.92-.76-.92-1.14s.33-.79.92-1.13L29,11A6.69,6.69,0,0,1,35,11L48.68,19c.59.34.92.75.92,1.13s-.33.8-.92,1.14L35,29.13A6.11,6.11,0,0,1,32,29.83Z"/>
    <path class="e" d="M29.91,53.3a2.15,2.15,0,0,1-1-.33L15.16,45.05a6.66,6.66,0,0,1-3-5.13V24.08c0-.44.09-1.47.93-1.47a2.18,2.18,0,0,1,1,.34l13.71,7.92a6.64,6.64,0,0,1,3,5.13V51.83a2,2,0,0,1-.31,1.2.75.75,0,0,1-.61.27Z"/>
    <path class="e" d="M33.93,53.3c-.84,0-.93-1-.93-1.47V36a6.67,6.67,0,0,1,3-5.13L49.68,23a2.18,2.18,0,0,1,1-.34c.84,0,.93,1,.93,1.47V39.92a6.68,6.68,0,0,1-3,5.13L35,53a2.15,2.15,0,0,1-1,.33Z"/>
    <path class="f" d="M32,21.5c-1.26,0-2.33-.65-2.33-1.42s1.07-1.41,2.33-1.41,2.33.65,2.33,1.41S33.26,21.5,32,21.5Z"/>
    <path class="f" d="M15.15,42.37c-.77,0-1.42-.95-1.42-2.08s.65-2.08,1.42-2.08,1.41,1,1.41,2.08S15.91,42.37,15.15,42.37Z"/>
    <path class="f" d="M48.35,42.37c-.76,0-1.41-.95-1.41-2.08s.65-2.08,1.41-2.08,1.42,1,1.42,2.08S49.12,42.37,48.35,42.37Z"/>
    <path class="f" d="M15.15,30.43c-.77,0-1.42-.95-1.42-2.08s.65-2.07,1.42-2.07,1.41.95,1.41,2.07S15.91,30.43,15.15,30.43Z"/>
    <path class="f" d="M26.92,38.12c-.77,0-1.42-.95-1.42-2.08S26.15,34,26.92,34s1.41,1,1.41,2.08S27.68,38.12,26.92,38.12Z"/>
    <path class="f" d="M37,38.12c-.77,0-1.42-.95-1.42-2.08S36.19,34,37,34s1.42,1,1.42,2.08S37.73,38.12,37,38.12Z"/>
    <path class="f" d="M26.92,49.14c-.77,0-1.42-1-1.42-2.08S26.15,45,26.92,45s1.41.95,1.41,2.07S27.68,49.14,26.92,49.14Z"/>
  </g>
</svg>
