<svg xmlns="http://www.w3.org/2000/svg" viewBox="0 0 64 64">
  <defs>
    <style>
      .a {
        fill: #76c2af;
      }

      .b {
        fill: #231f20;
        opacity: 0.2;
      }

      .c, .f {
        fill: #f5cf87;
      }

      .c {
        stroke: #f5cf87;
      }

      .c, .d, .e, .f {
        stroke-linecap: round;
        stroke-linejoin: round;
      }

      .c, .e {
        stroke-width: 2px;
      }

      .d {
        fill: none;
        stroke: #fff;
      }

      .d, .f {
        stroke-width: 3px;
      }

      .e {
        fill: #e0995e;
        stroke: #e0995e;
      }

      .f {
        stroke: #4f5d73;
      }
    </style>
  </defs>
  <title>Elegant_circle-icons_2</title>
  <circle class="a" cx="32" cy="32" r="32"/>
  <path class="b" d="M48,42.39l-3-9.54a1,1,0,0,0-1.25-.66L34.85,35l7.08-4.44a1,1,0,0,0,.32-1.37l-6.91-11A1,1,0,0,0,34,17.8l-8.74,5.48L23.88,19A5.34,5.34,0,0,0,17,15.4a1.5,1.5,0,0,0,.9,2.86A2.36,2.36,0,0,1,21,19.9l8,25.5a5.5,5.5,0,1,0,7.88,7.15,5.41,5.41,0,0,0,.6-2.69l8.34-2.61a1.5,1.5,0,0,0-.9-2.86L36.59,47h0L47.3,43.64a1,1,0,0,0,.59-.49A1,1,0,0,0,48,42.39Zm-17.59-6a1,1,0,0,0-.59.49,1,1,0,0,0-.07.76l2.15,6.89h0L27.31,30l3.84,6.13v0Z"/>
  <polygon class="c" points="32 32.57 32 32.57 41.4 26.68 41.4 26.68 34.49 15.65 34.49 15.65 25.09 21.54 25.09 21.54 32 32.57"/>
  <path class="d" d="M45.36,42.82,32,47,22.45,16.46s-1.19-3.82-5-2.63"/>
  <polygon class="e" points="33.64 43.87 33.64 43.87 47 39.69 47 39.69 44.02 30.15 44.02 30.15 30.65 34.32 30.65 34.32 33.64 43.87"/>
  <circle class="f" cx="32" cy="47" r="4"/>
</svg>
