<svg xmlns="http://www.w3.org/2000/svg" viewBox="0 0 64 64">
  <defs>
    <style>
      .a {
        fill: #c75c5c;
      }

      .b {
        opacity: 0.2;
      }

      .c {
        fill: #231f20;
      }

      .d {
        fill: #fff;
      }

      .e {
        fill: #8c81d4;
      }
    </style>
  </defs>
  <title>Elegant_circle-icons</title>
  <circle class="a" cx="32" cy="32" r="32"/>
  <g class="b">
    <path class="c" d="M40,11.17a.11.11,0,0,0,0-.05C40,11,40,11,40,11.17Z"/>
    <path class="c" d="M24,11.12s0,0,0,.06C24,11,24,11,24,11.12Z"/>
  </g>
  <g>
    <g class="b">
      <path class="c" d="M48,32a16,16,0,0,0-9.37-14.55A1.77,1.77,0,0,0,36,19.12v8.5A1.4,1.4,0,0,0,37.5,29h3.06c1.47,0,1.88,1.13.92,2.36l-7.72,9.83a2.13,2.13,0,0,1-3.52,0l-7.72-9.83c-1-1.23-.55-2.36.92-2.36H26.5A1.4,1.4,0,0,0,28,27.62v-8.5a2,2,0,0,0-2.75-1.61h0a16,16,0,0,0-8.75,10.62A10,10,0,0,0,18,48H48a8,8,0,0,0,0-16Z"/>
    </g>
    <path class="d" d="M48,30a16,16,0,0,0-9.37-14.55A1.77,1.77,0,0,0,36,17.12v8.5A1.4,1.4,0,0,0,37.5,27h3.06c1.47,0,1.88,1.13.92,2.36l-7.72,9.83a2.13,2.13,0,0,1-3.52,0l-7.72-9.83c-1-1.23-.55-2.36.92-2.36H26.5A1.4,1.4,0,0,0,28,25.62v-8.5a2,2,0,0,0-2.75-1.61h0a16,16,0,0,0-8.75,10.62A10,10,0,0,0,18,46H48a8,8,0,0,0,0-16Z"/>
    <path class="e" d="M40,9.17a.11.11,0,0,0,0-.05C40,9,40,9,40,9.17Z"/>
    <path class="e" d="M24,9.12s0,0,0,.06C24,9,24,9,24,9.12Z"/>
  </g>
</svg>
