<svg xmlns="http://www.w3.org/2000/svg" viewBox="0 0 64 64">
  <defs>
    <style>
      .a {
        fill: #4f5d73;
      }

      .b, .f {
        opacity: 0.2;
      }

      .c, .f {
        fill: #231f20;
      }

      .d {
        fill: #f5cf87;
      }

      .d, .e {
        stroke: #e0995e;
      }

      .d, .e, .h, .i {
        stroke-linecap: round;
        stroke-width: 3px;
      }

      .d, .e, .h {
        stroke-linejoin: round;
      }

      .e, .h, .i {
        fill: none;
      }

      .g {
        fill: #fff;
      }

      .h {
        stroke: #f5cf87;
      }

      .i {
        stroke: #c75c5c;
        stroke-miterlimit: 10;
      }
    </style>
  </defs>
  <title>Elegant_circle-icons_3</title>
  <circle class="a" cx="32" cy="32" r="32"/>
  <g class="b">
    <line class="c" x1="28" y1="14" x2="19" y2="54"/>
    <path class="c" d="M19,55.5a1.24,1.24,0,0,1-.33,0,1.49,1.49,0,0,1-1.13-1.79l9-40a1.5,1.5,0,0,1,2.92.66l-9,40A1.49,1.49,0,0,1,19,55.5Z"/>
  </g>
  <g class="b">
    <line class="c" x1="37" y1="14" x2="45" y2="54"/>
    <path class="c" d="M45,55.5a1.5,1.5,0,0,1-1.47-1.21l-8-40a1.5,1.5,0,1,1,2.94-.58l8,40a1.49,1.49,0,0,1-1.18,1.76A1.43,1.43,0,0,1,45,55.5Z"/>
  </g>
  <g class="b">
    <path class="c" d="M32,55.5A1.5,1.5,0,0,1,30.5,54V37.38a1.5,1.5,0,1,1,3,0V54A1.5,1.5,0,0,1,32,55.5Z"/>
  </g>
  <line class="d" x1="28" y1="12" x2="19" y2="52"/>
  <line class="d" x1="37" y1="12" x2="45" y2="52"/>
  <line class="e" x1="32" y1="35.38" x2="32" y2="52"/>
  <path class="f" d="M49,40.24A2,2,0,0,1,46.88,42H17.12A2,2,0,0,1,15,40.24V21.76A2,2,0,0,1,17.12,20H46.88A2,2,0,0,1,49,21.76Z"/>
  <path class="g" d="M49,38.24A2,2,0,0,1,46.88,40H17.12A2,2,0,0,1,15,38.24V19.76A2,2,0,0,1,17.12,18H46.88A2,2,0,0,1,49,19.76Z"/>
  <g class="b">
    <path class="c" d="M41,21.5H23a1.5,1.5,0,0,1,0-3H41a1.5,1.5,0,0,1,0,3Z"/>
  </g>
  <g class="b">
    <path class="c" d="M41,43.5H23a1.5,1.5,0,0,1,0-3H41a1.5,1.5,0,0,1,0,3Z"/>
  </g>
  <line class="h" x1="23" y1="18.5" x2="41" y2="18.5"/>
  <line class="h" x1="23" y1="40.5" x2="41" y2="40.5"/>
  <path class="i" d="M19.5,36s11-18,11-10,0,10,2,8,7-8,12-9"/>
</svg>
