<svg xmlns="http://www.w3.org/2000/svg" viewBox="0 0 64 64">
  <defs>
    <style>
      .a {
        fill: #77b3d4;
      }

      .b {
        opacity: 0.2;
      }

      .c {
        fill: #231f20;
      }

      .d {
        fill: #fff;
      }
    </style>
  </defs>
  <title>Elegant_circle-icons</title>
  <circle class="a" cx="32" cy="32" r="32"/>
  <g class="b">
    <path class="c" d="M32,12A22,22,0,1,0,42.07,53.56,2,2,0,0,0,40.24,50,17.8,17.8,0,0,1,32,52a18,18,0,1,1,15.81-9.39,10.89,10.89,0,0,1-4.39-8.53V25.29a2,2,0,0,0-4,0v.09A11.38,11.38,0,1,0,41.11,40.8a16.78,16.78,0,0,0,6.4,6.4,2,2,0,0,0,2.55-.64A22,22,0,0,0,32,12Zm0,29.38A7.38,7.38,0,1,1,39.38,34,7.39,7.39,0,0,1,32,41.38Z"/>
  </g>
  <path class="d" d="M32,54a22,22,0,1,1,18.06-9.44,2,2,0,0,1-2.55.64C47.18,45,39.42,41,39.42,32.08V23.29a2,2,0,0,1,4,0v8.79a10.89,10.89,0,0,0,4.39,8.53A18,18,0,1,0,40.24,48a2,2,0,0,1,1.83,3.55A22,22,0,0,1,32,54Z"/>
  <path class="d" d="M32,24.62A7.38,7.38,0,1,1,24.62,32,7.39,7.39,0,0,1,32,24.62m0-4A11.38,11.38,0,1,0,43.38,32,11.37,11.37,0,0,0,32,20.62Z"/>
</svg>
