<svg xmlns="http://www.w3.org/2000/svg" viewBox="0 0 64 64">
  <defs>
    <style>
      .a {
        fill: #c75c5c;
      }

      .b {
        fill: #231f20;
        opacity: 0.2;
      }

      .c {
        fill: #e0e0d1;
      }

      .d {
        fill: #4f5d73;
      }
    </style>
  </defs>
  <title>Elegant_circle-icons_3</title>
  <circle class="a" cx="32" cy="32" r="32"/>
  <path class="b" d="M37.24,25.29A33.09,33.09,0,0,1,40.15,28l-15,15a3.21,3.21,0,0,1-1.37.66h0l-.29.05-.14,0-.14,0a9,9,0,0,0-.9.25L21,44.35l.4-1.68c.07-.22.13-.43.17-.62l0-.11v-.11c0-.08,0-.15,0-.22v0h0a3.36,3.36,0,0,1,.65-1.37L37.24,25.29M37,21.24,20.2,38.08a6,6,0,0,0-1.44,2.79h0a.31.31,0,0,0,0,.09c0,.14-.06.28-.08.42a6.77,6.77,0,0,1-1.87,3.19h0l-.88.88c-1.08,1.08-1.31,2.59-.51,3.39l1,1a1.71,1.71,0,0,0,1.24.47,3.1,3.1,0,0,0,2.14-1l.89-.88a6.59,6.59,0,0,1,3.16-1.74,5.48,5.48,0,0,0,.56-.1h.08a6,6,0,0,0,2.79-1.44L44.19,28.23a36.73,36.73,0,0,0-7.15-7Z"/>
  <path class="c" d="M37.24,23.29A33.09,33.09,0,0,1,40.15,26l-15,15a3.21,3.21,0,0,1-1.37.66h0l-.29.05-.14,0-.14,0a9,9,0,0,0-.9.25L21,42.35l.4-1.68c.07-.22.13-.43.17-.62l0-.11v-.11c0-.08,0-.15,0-.22v0h0a3.36,3.36,0,0,1,.65-1.37L37.24,23.29M37,19.24,20.2,36.08a6,6,0,0,0-1.44,2.79h0a.31.31,0,0,0,0,.09c0,.14-.06.28-.08.42a6.77,6.77,0,0,1-1.87,3.19h0l-.88.88c-1.08,1.08-1.31,2.59-.51,3.39l1,1a1.71,1.71,0,0,0,1.24.47,3.1,3.1,0,0,0,2.14-1l.89-.88a6.59,6.59,0,0,1,3.16-1.74,5.48,5.48,0,0,0,.56-.1h.08a6,6,0,0,0,2.79-1.44L44.19,26.23a36.73,36.73,0,0,0-7.15-7Z"/>
  <path class="b" d="M43.9,27.19,49.11,22a2.9,2.9,0,0,0-.24-4.07l-1.44-1.44a2.9,2.9,0,0,0-4.07-.24l-5.28,5.29A34.67,34.67,0,0,1,43.9,27.19Z"/>
  <path class="b" d="M45.6,31l-2.12,2.12L32.17,21.76l2.12-2.12,1.41-1.42a2,2,0,0,1,2.83,0L47,26.71a2,2,0,0,1,0,2.82Z"/>
  <path class="d" d="M43.9,25.19,49.11,20a2.9,2.9,0,0,0-.24-4.07l-1.44-1.44a2.9,2.9,0,0,0-4.07-.24l-5.28,5.29A34.67,34.67,0,0,1,43.9,25.19Z"/>
  <path class="d" d="M45.6,29l-2.12,2.12L32.17,19.76l2.12-2.12,1.41-1.42a2,2,0,0,1,2.83,0L47,24.71a2,2,0,0,1,0,2.82Z"/>
</svg>
