<svg xmlns="http://www.w3.org/2000/svg" viewBox="0 0 64 64">
  <defs>
    <style>
      .a {
        fill: #c75c5c;
      }

      .b {
        opacity: 0.2;
      }

      .c {
        fill: #231f20;
      }

      .d {
        fill: #fff;
      }
    </style>
  </defs>
  <title>Elegant_circle-icons</title>
  <circle class="a" cx="32" cy="32" r="32"/>
  <g class="b">
    <path class="c" d="M50.19,43.38c-2-1.52-8.38-4.19-8.38-4.19s-7,5.43-14-6C19.71,20,16,18,16,18s-4,4-4,8,4,10,4,22a2,2,0,0,0,4,0V34s4,0,8,8,8,8,12,8,12-.19,12-1.69C52,46.57,52.38,45,50.19,43.38Z"/>
  </g>
  <path class="d" d="M16,16s-4,4-4,8,4,10,4,22h4V32s4,0,8,8,8,8,12,8,12-.19,12-1.69c0-1.74.38-3.29-1.81-4.93-2-1.52-8.38-4.19-8.38-4.19s-7,5.43-14-6C19.71,18,16,16,16,16Z"/>
  <path class="d" d="M20,46a2,2,0,0,1-2,2h0a2,2,0,0,1-2-2h0a2,2,0,0,1,2-2h0a2,2,0,0,1,2,2Z"/>
</svg>
