<svg xmlns="http://www.w3.org/2000/svg" viewBox="0 0 64 64">
  <defs>
    <style>
      .a {
        fill: #77b3d4;
      }

      .b, .e {
        fill: #231f20;
      }

      .b, .d {
        opacity: 0.2;
      }

      .c {
        fill: #4f5d73;
      }

      .f {
        fill: #fff;
      }
    </style>
  </defs>
  <title>Elegant_circle-icons_3</title>
  <circle class="a" cx="32" cy="32" r="32"/>
  <circle class="b" cx="32" cy="33.92" r="13.08" transform="translate(-11.4 16.85) rotate(-25.2)"/>
  <circle class="c" cx="32" cy="33.08" r="13.08" transform="translate(-6.02 59.03) rotate(-80.26)"/>
  <circle class="c" cx="32" cy="32" r="13.08"/>
  <g class="d">
    <path class="e" d="M32,12A22,22,0,1,0,54,34,22,22,0,0,0,32,12ZM14.5,30.5A5.5,5.5,0,1,1,20,36,5.5,5.5,0,0,1,14.5,30.5Zm10,19A5.5,5.5,0,1,1,30,44,5.5,5.5,0,0,1,24.47,49.5Zm2-28A5.5,5.5,0,1,1,32,27,5.5,5.5,0,0,1,26.5,21.5Zm13,28A5.5,5.5,0,1,1,45,44,5.5,5.5,0,0,1,39.47,49.5ZM44,36a5.5,5.5,0,1,1,5.5-5.5A5.5,5.5,0,0,1,44,36Z"/>
  </g>
  <path class="f" d="M32,10A22,22,0,1,0,54,32,22,22,0,0,0,32,10ZM14.5,28.5A5.5,5.5,0,1,1,20,34,5.5,5.5,0,0,1,14.5,28.5Zm10,19A5.5,5.5,0,1,1,30,42,5.5,5.5,0,0,1,24.47,47.5Zm2-28A5.5,5.5,0,1,1,32,25,5.5,5.5,0,0,1,26.5,19.5Zm13,28A5.5,5.5,0,1,1,45,42,5.5,5.5,0,0,1,39.47,47.5ZM44,34a5.5,5.5,0,1,1,5.5-5.5A5.5,5.5,0,0,1,44,34Z"/>
</svg>
