<svg xmlns="http://www.w3.org/2000/svg" viewBox="0 0 64 64">
  <defs>
    <style>
      .a {
        fill: #e0e0d1;
      }

      .b {
        opacity: 0.2;
      }

      .c {
        fill: #231f20;
      }

      .d {
        fill: #76c2af;
      }

      .e {
        fill: #c75c5c;
      }

      .f {
        fill: #e0995e;
      }
    </style>
  </defs>
  <title>Elegant_circle-icons</title>
  <circle class="a" cx="31.83" cy="32" r="32"/>
  <g class="b">
    <path class="c" d="M38.61,22V18.34c0,.9-3.9,3.28-5.17,4.11A2.94,2.94,0,0,1,35,22Z"/>
    <path class="c" d="M38.61,18.34c0-.21-.22-.34-.75-.34H20V38H32V25a3.1,3.1,0,0,1,.08-.69,2.92,2.92,0,0,1,1-1.6C33.5,22.34,38.59,19.37,38.61,18.34Z"/>
  </g>
  <g>
    <path class="d" d="M38.61,20V16.34c0,.9-3.9,3.28-5.17,4.11A2.94,2.94,0,0,1,35,20Z"/>
    <path class="e" d="M38.61,16.34c0-.21-.22-.34-.75-.34H20V36H32V23a3.1,3.1,0,0,1,.08-.69,2.92,2.92,0,0,1,1-1.6C33.5,20.34,38.59,17.37,38.61,16.34Z"/>
  </g>
  <g class="b">
    <path class="c" d="M49,20H38.61V19H34a3,3,0,0,0-3,3V39a3,3,0,0,0,3,3H49a3,3,0,0,0,3-3V23A3,3,0,0,0,49,20Z"/>
  </g>
  <path class="e" d="M49,20H35a3,3,0,0,0-3,3V37a3,3,0,0,0,3,3H49a3,3,0,0,0,3-3V23A3,3,0,0,0,49,20Z"/>
  <g class="b">
    <path class="c" d="M20,52a2,2,0,0,1-2,2h0a2,2,0,0,1-2-2V18a2,2,0,0,1,2-2h0a2,2,0,0,1,2,2Z"/>
  </g>
  <path class="f" d="M20,50a2,2,0,0,1-2,2h0a2,2,0,0,1-2-2V16a2,2,0,0,1,2-2h0a2,2,0,0,1,2,2Z"/>
  <g class="b">
    <circle class="c" cx="18" cy="17" r="3"/>
  </g>
  <circle class="f" cx="18" cy="15" r="3"/>
</svg>
