<svg xmlns="http://www.w3.org/2000/svg" viewBox="0 0 64 64">
  <defs>
    <style>
      .a {
        fill: #c75c5c;
      }

      .b {
        opacity: 0.2;
      }

      .c {
        fill: #231f20;
      }

      .d {
        fill: #f5cf87;
      }
    </style>
  </defs>
  <title>Elegant_circle-icons</title>
  <circle class="a" cx="32" cy="32" r="32"/>
  <g class="b">
    <path class="c" d="M28.12,58.06S12.06,55.69,12.06,42s21-15,16.36-32c0,0,15.72,4.92,11.88,20.25A13.21,13.21,0,0,0,44,26.36s8,6.15,8,15.52-11,16.24-16.27,16.18c0,0,5.64-7.62.51-12.53C28.89,38.55,32,34.08,32,34.08S14.25,42.76,28.12,58.06Z"/>
  </g>
  <path class="d" d="M28.12,56.06S12.06,53.69,12.06,40s21-15,16.36-32c0,0,15.72,4.92,11.88,20.25A13.21,13.21,0,0,0,44,24.36s8,6.15,8,15.52-11,16.24-16.27,16.18c0,0,5.64-7.62.51-12.53C28.89,36.55,32,32.08,32,32.08S14.25,40.76,28.12,56.06Z"/>
</svg>
