<svg xmlns="http://www.w3.org/2000/svg" viewBox="0 0 64 64">
  <defs>
    <style>
      .a {
        fill: #4f5d73;
      }

      .b {
        fill: none;
        stroke-miterlimit: 10;
      }

      .b, .d {
        stroke: #76c2af;
        stroke-linecap: round;
        stroke-width: 4px;
      }

      .c {
        fill: #231f20;
        opacity: 0.2;
      }

      .d {
        fill: #76c2af;
        stroke-linejoin: round;
      }

      .e {
        fill: #c75c5c;
      }

      .f {
        fill: #f5cf87;
      }
    </style>
  </defs>
  <title>Elegant_circle-icons_3</title>
  <circle class="a" cx="32" cy="32" r="32"/>
  <line class="b" x1="32" y1="24" x2="32" y2="49"/>
  <path class="c" d="M49.91,37.22a2,2,0,0,0-2.18.23,75.33,75.33,0,0,1-10.13,6.8A15.18,15.18,0,0,0,32,49.44a15.18,15.18,0,0,0-5.65-5.19,72.42,72.42,0,0,1-10-6.78,2,2,0,0,0-2.18-.26A2,2,0,0,0,13,39.12c.39,6.33,4.84,18.31,18.91,18.31H32c14.14,0,18.61-12,19-18.31A2,2,0,0,0,49.91,37.22Z"/>
  <path class="d" d="M32,53.43s0-5.81,6.57-9.43A77.27,77.27,0,0,0,49,37S48,53.43,32,53.43Z"/>
  <path class="d" d="M31.91,53.43s0-5.81-6.58-9.43A73.13,73.13,0,0,1,15,37S16,53.43,31.91,53.43Z"/>
  <circle class="c" cx="26" cy="24" r="8"/>
  <circle class="c" cx="38" cy="24" r="8"/>
  <circle class="c" cx="32" cy="20" r="8"/>
  <circle class="c" cx="32" cy="30" r="8"/>
  <circle class="e" cx="26" cy="22" r="8"/>
  <circle class="e" cx="38" cy="22" r="8"/>
  <circle class="e" cx="32" cy="16" r="8"/>
  <circle class="e" cx="32" cy="28" r="8"/>
  <circle class="c" cx="32" cy="24" r="5"/>
  <circle class="f" cx="32" cy="22" r="5"/>
</svg>
