<svg xmlns="http://www.w3.org/2000/svg" viewBox="0 0 64 64">
  <defs>
    <style>
      .a {
        fill: #4f5d73;
      }

      .b {
        opacity: 0.2;
      }

      .c {
        fill: #231f20;
      }

      .d, .e {
        fill: none;
        stroke-linecap: round;
        stroke-linejoin: round;
        stroke-width: 3px;
      }

      .d {
        stroke: #fff;
      }

      .e {
        stroke: #c75c5c;
      }
    </style>
  </defs>
  <title>Elegant_circle-icons_3</title>
  <circle class="a" cx="32" cy="32" r="32"/>
  <g class="b">
    <path class="c" d="M16.5,28A1.5,1.5,0,0,1,15,26.5v-8A1.5,1.5,0,0,1,16.5,17h8a1.5,1.5,0,0,1,0,3H18v6.5A1.5,1.5,0,0,1,16.5,28Z"/>
  </g>
  <g class="b">
    <path class="c" d="M47.5,28A1.5,1.5,0,0,1,46,26.5V20H39.5a1.5,1.5,0,0,1,0-3h8A1.5,1.5,0,0,1,49,18.5v8A1.5,1.5,0,0,1,47.5,28Z"/>
  </g>
  <g class="b">
    <path class="c" d="M47.5,51h-8a1.5,1.5,0,0,1,0-3H46V41.5a1.5,1.5,0,0,1,3,0v8A1.5,1.5,0,0,1,47.5,51Z"/>
  </g>
  <g class="b">
    <path class="c" d="M24.5,51h-8A1.5,1.5,0,0,1,15,49.5v-8a1.5,1.5,0,0,1,3,0V48h6.5a1.5,1.5,0,0,1,0,3Z"/>
  </g>
  <g class="b">
    <path class="c" d="M35,38.5H29A1.5,1.5,0,0,1,27.5,37V31A1.5,1.5,0,0,1,29,29.5h6A1.5,1.5,0,0,1,36.5,31v6A1.5,1.5,0,0,1,35,38.5Zm-4.5-3h3v-3h-3Z"/>
  </g>
  <polyline class="d" points="16.5 24.5 16.5 16.5 24.5 16.5"/>
  <polyline class="d" points="39.5 16.5 47.5 16.5 47.5 24.5"/>
  <polyline class="d" points="47.5 39.5 47.5 47.5 39.5 47.5"/>
  <polyline class="d" points="24.5 47.5 16.5 47.5 16.5 39.5"/>
  <rect class="e" x="29" y="29" width="6" height="6"/>
</svg>
