<svg xmlns="http://www.w3.org/2000/svg" viewBox="0 0 64 64">
  <defs>
    <style>
      .a {
        fill: #e0995e;
      }

      .b {
        opacity: 0.2;
      }

      .c {
        fill: #231f20;
      }

      .d {
        fill: #fff;
      }

      .e {
        fill: #e0e0d1;
      }
    </style>
  </defs>
  <title>Elegant_circle-icons</title>
  <circle class="a" cx="32" cy="32" r="32"/>
  <g class="b">
    <path class="c" d="M32,22.92H14.5A2.45,2.45,0,0,0,12,25.35V47.54A2.48,2.48,0,0,0,14.5,50h35A2.48,2.48,0,0,0,52,47.54V22.92Z"/>
  </g>
  <path class="d" d="M32,20.92H14.5A2.45,2.45,0,0,0,12,23.35V45.54A2.48,2.48,0,0,0,14.5,48h35A2.48,2.48,0,0,0,52,45.54V20.92Z"/>
  <path class="e" d="M52,18.46A2.48,2.48,0,0,0,49.5,16H37a2.48,2.48,0,0,0-2.5,2.46A2.91,2.91,0,0,1,32,20.92H52Z"/>
</svg>
