<svg xmlns="http://www.w3.org/2000/svg" viewBox="0 0 64 64">
  <defs>
    <style>
      .a {
        fill: #4f5d73;
      }

      .b, .d {
        fill: #231f20;
      }

      .b, .c {
        opacity: 0.2;
      }

      .e {
        fill: #fff;
      }

      .f {
        fill: #e0e0d1;
      }
    </style>
  </defs>
  <title>Elegant_circle-icons_3</title>
  <circle class="a" cx="32" cy="32" r="32"/>
  <path class="b" d="M37,21V39H15V21H37m0-3H15a3,3,0,0,0-3,3V39a3,3,0,0,0,3,3H37a3,3,0,0,0,3-3V21a3,3,0,0,0-3-3Z"/>
  <g class="c">
    <path class="d" d="M48.5,52H24a1.5,1.5,0,0,1,0-3H47V30a1.5,1.5,0,0,1,3,0V50.5A1.5,1.5,0,0,1,48.5,52Z"/>
  </g>
  <g class="c">
    <path class="d" d="M43.5,47H19a1.5,1.5,0,0,1,0-3H42V25a1.5,1.5,0,0,1,3,0V45.5A1.5,1.5,0,0,1,43.5,47Z"/>
  </g>
  <path class="e" d="M37,19V37H15V19H37m0-3H15a3,3,0,0,0-3,3V37a3,3,0,0,0,3,3H37a3,3,0,0,0,3-3V19a3,3,0,0,0-3-3Z"/>
  <path class="f" d="M48.5,50H24a1.5,1.5,0,0,1,0-3H47V28a1.5,1.5,0,0,1,3,0V48.5A1.5,1.5,0,0,1,48.5,50Z"/>
  <path class="f" d="M43.5,45H19a1.5,1.5,0,0,1,0-3H42V23a1.5,1.5,0,0,1,3,0V43.5A1.5,1.5,0,0,1,43.5,45Z"/>
</svg>
