<svg xmlns="http://www.w3.org/2000/svg" viewBox="0 0 64 64">
  <defs>
    <style>
      .a {
        fill: #76c2af;
      }

      .b {
        fill: #231f20;
        opacity: 0.2;
      }

      .c {
        fill: #4f5d73;
      }

      .d {
        fill: #e0e0d1;
      }
    </style>
  </defs>
  <title>Elegant_circle-icons_3</title>
  <circle class="a" cx="32" cy="32" r="32"/>
  <path class="b" d="M32,39.8c9.2,0,9.55,3.05,13,6.1S55,50,55,39.8s-4.6-16.27-4.6-16.27S46,16,40,21.88a11.73,11.73,0,0,1-16,0C18,16,13.6,23.53,13.6,23.53S9,29.63,9,39.8,15.55,49,19,45.9,22.8,39.8,32,39.8Z"/>
  <path class="c" d="M32,36.8c9.2,0,9.55,3.05,13,6.1S55,47,55,36.8s-4.6-16.27-4.6-16.27S46,13,40,18.88a11.73,11.73,0,0,1-16,0C18,13,13.6,20.53,13.6,20.53S9,26.63,9,36.8,15.55,46,19,42.9,22.8,36.8,32,36.8Z"/>
  <circle class="d" cx="44" cy="34" r="2"/>
  <circle class="d" cx="48" cy="29" r="2"/>
  <path class="d" d="M19,35.5A1.5,1.5,0,0,1,17.5,37h0A1.5,1.5,0,0,1,16,35.5v-7A1.5,1.5,0,0,1,17.5,27h0A1.5,1.5,0,0,1,19,28.5Z"/>
  <path class="d" d="M14,33.5A1.5,1.5,0,0,1,12.5,32h0A1.5,1.5,0,0,1,14,30.5h7A1.5,1.5,0,0,1,22.5,32h0A1.5,1.5,0,0,1,21,33.5Z"/>
</svg>
