<svg xmlns="http://www.w3.org/2000/svg" viewBox="0 0 64 64">
  <defs>
    <style>
      .a {
        fill: #e0e0d1;
      }

      .b {
        fill: #231f20;
        opacity: 0.2;
      }

      .c {
        fill: #c75c5c;
      }

      .d, .e {
        fill: none;
        stroke: #4f5d73;
        stroke-linecap: round;
        stroke-miterlimit: 10;
      }

      .d {
        stroke-width: 4px;
      }

      .e {
        stroke-width: 5px;
      }
    </style>
  </defs>
  <title>Elegant_circle-icons_2</title>
  <circle class="a" cx="32" cy="32" r="32"/>
  <path class="b" d="M44,16H30l-2.23,2.23a2.52,2.52,0,0,0-3.54,0L22.5,20a17.2,17.2,0,0,0-8.07-3.91,2,2,0,1,0-.86,3.9,13.64,13.64,0,0,1,6.1,2.85l-1.44,1.43a2.52,2.52,0,0,0,0,3.54L16,30V48a4,4,0,0,0,4,4H48a4,4,0,0,0,4-4V24C52,21.79,46.21,16,44,16Zm4,8.45V29l-9-9h4.55A15.72,15.72,0,0,1,48,24.45Z"/>
  <path class="c" d="M43.55,18A15.72,15.72,0,0,1,48,22.45V46H20V29.66L31.66,18H43.55M44,14H30L16,28V46a4,4,0,0,0,4,4H48a4,4,0,0,0,4-4V22c0-2.21-5.79-8-8-8Z"/>
  <g>
    <path class="c" d="M20,48.5A2.5,2.5,0,0,1,17.5,46V35.67L37,18.07,48.38,29.5H49a7.82,7.82,0,0,0,1.5-.15V46A2.5,2.5,0,0,1,48,48.5Z"/>
    <path class="c" d="M36.9,20.14l10,10,.88.88H49V46a1,1,0,0,1-1,1H20a1,1,0,0,1-1-1V36.33L36.9,20.14M37,16,16,35V46a4,4,0,0,0,4,4H48a4,4,0,0,0,4-4V29c0-1.05-.18-1.33-.61-1.33A20,20,0,0,1,49,28L37,16Z"/>
  </g>
  <path class="d" d="M24,24s-1-6-10-8"/>
  <line class="e" x1="20" y1="24" x2="26" y2="18"/>
  <g>
    <path class="c" d="M20,48.5A2.5,2.5,0,0,1,17.5,46V28.62L30.62,15.5H32A2.5,2.5,0,0,1,34.5,18v.13l5,28A2.5,2.5,0,0,1,37,48.5Z"/>
    <path class="c" d="M32,17a1,1,0,0,1,1,1v.27l0,.26L38,46.18A1,1,0,0,1,37,47H20a1,1,0,0,1-1-1V29.24L31.24,17H32m0-3H30L16,28V46a4,4,0,0,0,4,4H37a4,4,0,0,0,4-4L36,18a4,4,0,0,0-4-4Z"/>
  </g>
</svg>
