<svg xmlns="http://www.w3.org/2000/svg" viewBox="0 0 64 64">
  <defs>
    <style>
      .a {
        fill: #76c2af;
      }

      .b {
        opacity: 0.2;
      }

      .c {
        fill: #231f20;
      }

      .d {
        fill: #4f5d73;
      }

      .e {
        fill: #fff;
      }
    </style>
  </defs>
  <title>Elegant_circle-icons</title>
  <circle class="a" cx="32" cy="32" r="32"/>
  <g class="b">
    <path class="c" d="M27.5,34A4.5,4.5,0,1,0,32,29.5,4.49,4.49,0,0,0,27.5,34Z"/>
  </g>
  <g class="b">
    <path class="c" d="M54,32.57a1.72,1.72,0,0,0-1-1.33l-4.13-1.47a2.34,2.34,0,0,1-1.27-1.28l-.65-1.58a2.39,2.39,0,0,1,0-1.8l1.88-3.95a1.6,1.6,0,0,0-.24-1.64l-2-2a1.6,1.6,0,0,0-1.64-.24l-4,1.88a2.39,2.39,0,0,1-1.8,0l-1.58-.65a2.34,2.34,0,0,1-1.28-1.27l-1.47-4.13a1.72,1.72,0,0,0-1.33-1S32.82,12,32,12s-1.43.05-1.43.05a1.72,1.72,0,0,0-1.33,1l-1.47,4.13a2.34,2.34,0,0,1-1.28,1.27l-1.57.65a2.41,2.41,0,0,1-1.81,0l-3.95-1.88a1.6,1.6,0,0,0-1.64.24l-2,2a1.6,1.6,0,0,0-.24,1.64l1.88,3.95a2.39,2.39,0,0,1,0,1.8l-.65,1.58a2.34,2.34,0,0,1-1.27,1.28l-4.13,1.47a1.72,1.72,0,0,0-1,1.33S10,33.18,10,34s.05,1.43.05,1.43a1.72,1.72,0,0,0,1,1.33l4.13,1.47a2.34,2.34,0,0,1,1.27,1.28l.66,1.58a2.43,2.43,0,0,1,0,1.8l-1.88,4a1.63,1.63,0,0,0,.24,1.64l2,2a1.62,1.62,0,0,0,1.65.24l3.94-1.88a2.41,2.41,0,0,1,1.81,0l1.58.65a2.38,2.38,0,0,1,1.28,1.27l1.46,4.13a1.72,1.72,0,0,0,1.34,1s.6,0,1.42,0,1.43,0,1.43,0a1.72,1.72,0,0,0,1.33-1l1.47-4.13a2.34,2.34,0,0,1,1.28-1.27l1.58-.66a2.43,2.43,0,0,1,1.8,0l4,1.88a1.63,1.63,0,0,0,1.64-.24l2-2a1.62,1.62,0,0,0,.24-1.65l-1.88-3.94a2.41,2.41,0,0,1,0-1.81l.65-1.58a2.38,2.38,0,0,1,1.27-1.28l4.13-1.46a1.72,1.72,0,0,0,1-1.34s0-.6,0-1.42S54,32.57,54,32.57ZM32,44A10,10,0,1,1,42,34,10,10,0,0,1,32,44Z"/>
  </g>
  <path class="d" d="M27.5,32A4.5,4.5,0,1,0,32,27.5,4.49,4.49,0,0,0,27.5,32Z"/>
  <path class="e" d="M54,30.57a1.72,1.72,0,0,0-1-1.33l-4.13-1.47a2.34,2.34,0,0,1-1.27-1.28l-.65-1.58a2.39,2.39,0,0,1,0-1.8l1.88-3.95a1.6,1.6,0,0,0-.24-1.64l-2-2a1.6,1.6,0,0,0-1.64-.24l-4,1.88a2.39,2.39,0,0,1-1.8,0l-1.58-.65a2.34,2.34,0,0,1-1.28-1.27l-1.47-4.13a1.72,1.72,0,0,0-1.33-1S32.82,10,32,10s-1.43.05-1.43.05a1.72,1.72,0,0,0-1.33,1l-1.47,4.13a2.34,2.34,0,0,1-1.28,1.27l-1.57.65a2.41,2.41,0,0,1-1.81,0l-3.95-1.88a1.6,1.6,0,0,0-1.64.24l-2,2a1.6,1.6,0,0,0-.24,1.64l1.88,3.95a2.39,2.39,0,0,1,0,1.8l-.65,1.58a2.34,2.34,0,0,1-1.27,1.28l-4.13,1.47a1.72,1.72,0,0,0-1,1.33S10,31.18,10,32s.05,1.43.05,1.43a1.72,1.72,0,0,0,1,1.33l4.13,1.47a2.34,2.34,0,0,1,1.27,1.28l.66,1.58a2.43,2.43,0,0,1,0,1.8l-1.88,4a1.63,1.63,0,0,0,.24,1.64l2,2a1.62,1.62,0,0,0,1.65.24l3.94-1.88a2.41,2.41,0,0,1,1.81,0l1.58.65a2.38,2.38,0,0,1,1.28,1.27l1.46,4.13a1.72,1.72,0,0,0,1.34,1s.6,0,1.42,0,1.43,0,1.43,0a1.72,1.72,0,0,0,1.33-1l1.47-4.13a2.34,2.34,0,0,1,1.28-1.27l1.58-.66a2.43,2.43,0,0,1,1.8,0l4,1.88a1.63,1.63,0,0,0,1.64-.24l2-2a1.62,1.62,0,0,0,.24-1.65l-1.88-3.94a2.41,2.41,0,0,1,0-1.81l.65-1.58a2.38,2.38,0,0,1,1.27-1.28l4.13-1.46a1.72,1.72,0,0,0,1-1.34s0-.6,0-1.42S54,30.57,54,30.57ZM32,42A10,10,0,1,1,42,32,10,10,0,0,1,32,42Z"/>
</svg>
