<svg xmlns="http://www.w3.org/2000/svg" viewBox="0 0 64 64">
  <defs>
    <style>
      .a {
        fill: #e0995e;
      }

      .b {
        opacity: 0.2;
      }

      .c {
        fill: #231f20;
      }

      .d {
        fill: #fff;
      }
    </style>
  </defs>
  <title>Elegant_circle-icons</title>
  <circle class="a" cx="32" cy="32" r="32"/>
  <g class="b">
    <path class="c" d="M54.08,21.25c-.88-1.53-2.93-3.35-7.71-3.35a26.06,26.06,0,0,0-5.42.65c-2-6.19-5.19-10-9-10s-7,3.86-8.95,10.05a26.06,26.06,0,0,0-5.42-.65c-4.78,0-6.83,1.82-7.71,3.35C8,24.5,9.77,29.2,14.12,34,9.77,38.8,8,43.5,9.92,46.75c.88,1.53,2.93,3.35,7.71,3.35a26.06,26.06,0,0,0,5.42-.65c2,6.19,5.19,10,9,10s7-3.86,9-10a26.06,26.06,0,0,0,5.42.65c4.78,0,6.83-1.82,7.71-3.35,1.88-3.25.15-8-4.2-12.75C54.23,29.2,56,24.5,54.08,21.25Zm-7.71-.35c2.61,0,4.43.66,5.12,1.85,1.07,1.86-.3,5.28-3.73,9.1a48.18,48.18,0,0,0-5-4.08,49.61,49.61,0,0,0-1-6.32A22.78,22.78,0,0,1,46.37,20.9ZM36.05,41c-1.35.78-2.7,1.48-4,2.12C30.65,42.49,29.3,41.79,28,41s-2.66-1.61-3.87-2.44c-.12-1.46-.18-3-.18-4.57s.06-3.11.18-4.57c1.21-.83,2.5-1.65,3.87-2.44s2.7-1.48,4.05-2.12c1.35.64,2.7,1.34,4,2.12s2.66,1.61,3.87,2.44c.12,1.46.18,3,.18,4.57s-.06,3.11-.18,4.57C38.71,39.4,37.42,40.22,36.05,41Zm3.42,1.45c-.18,1.17-.4,2.28-.65,3.34-1-.32-2.13-.68-3.23-1.11.65-.35,1.31-.7,2-1.08S38.84,42.85,39.47,42.46ZM28.41,44.69c-1.1.43-2.18.79-3.23,1.11-.25-1.06-.47-2.17-.65-3.34.63.39,1.26.77,1.92,1.15S27.76,44.34,28.41,44.69Zm-7.47-8.45c-.93-.75-1.79-1.5-2.58-2.24.79-.74,1.65-1.49,2.58-2.24,0,.74,0,1.48,0,2.24S20.92,35.5,20.94,36.24Zm3.59-10.7c.18-1.17.4-2.28.65-3.34,1.05.32,2.13.68,3.23,1.11-.65.35-1.31.7-2,1.08S25.16,25.15,24.53,25.54Zm11.06-2.23c1.1-.43,2.18-.79,3.23-1.11.25,1.06.47,2.17.65,3.34-.63-.39-1.26-.77-1.92-1.15S36.24,23.66,35.59,23.31Zm7.47,8.45c.93.75,1.79,1.5,2.58,2.24-.79.74-1.65,1.49-2.58,2.24,0-.74,0-1.48,0-2.24S43.08,32.5,43.06,31.76ZM32,11.5c2.15,0,4.44,2.91,6,7.8a52.27,52.27,0,0,0-6,2.26,52.27,52.27,0,0,0-6-2.26C27.56,14.41,29.85,11.5,32,11.5ZM12.51,22.75c.69-1.19,2.51-1.85,5.12-1.85a22.78,22.78,0,0,1,4.62.55,49.61,49.61,0,0,0-1,6.32,48.18,48.18,0,0,0-5,4.08C12.81,28,11.44,24.61,12.51,22.75ZM17.63,47.1c-2.61,0-4.43-.66-5.12-1.85-1.07-1.86.3-5.28,3.73-9.1a48.18,48.18,0,0,0,5,4.08,49.61,49.61,0,0,0,1,6.32A22.78,22.78,0,0,1,17.63,47.1ZM32,56.5c-2.15,0-4.44-2.91-6-7.8a52.27,52.27,0,0,0,6-2.26,52.27,52.27,0,0,0,6,2.26C36.44,53.59,34.15,56.5,32,56.5ZM51.49,45.25C50.8,46.44,49,47.1,46.37,47.1a22.78,22.78,0,0,1-4.62-.55,49.61,49.61,0,0,0,1-6.32,48.18,48.18,0,0,0,5-4.08C51.19,40,52.56,43.39,51.49,45.25Z"/>
    <circle class="c" cx="32" cy="34" r="3"/>
  </g>
  <path class="d" d="M32,57.5c-6.33,0-11.1-11-11.1-25.5S25.67,6.5,32,6.5s11.1,11,11.1,25.5S38.33,57.5,32,57.5Zm0-48c-3.83,0-8.1,9.24-8.1,22.5S28.17,54.5,32,54.5s8.1-9.24,8.1-22.5S35.83,9.5,32,9.5Z"/>
  <path class="d" d="M17.63,48.1c-4.78,0-6.83-1.82-7.71-3.35-3.17-5.48,3.94-15.09,16.53-22.36,7-4.06,14.48-6.49,19.92-6.49,4.78,0,6.83,1.82,7.71,3.35,3.17,5.48-3.94,15.09-16.53,22.36C30.51,45.67,23.07,48.1,17.63,48.1ZM46.37,18.9C41.43,18.9,34.55,21.17,28,25,16.47,31.62,10.6,39.93,12.51,43.25c.69,1.19,2.51,1.85,5.12,1.85,4.94,0,11.82-2.27,18.42-6.09C47.53,32.38,53.4,24.07,51.49,20.75,50.8,19.56,49,18.9,46.37,18.9Z"/>
  <path class="d" d="M17.63,48.1c-4.78,0-6.83-1.82-7.71-3.35-3.17-5.48,3.94-15.09,16.53-22.36,7-4.06,14.48-6.49,19.92-6.49,4.78,0,6.83,1.82,7.71,3.35,3.17,5.48-3.94,15.09-16.53,22.36C30.51,45.67,23.07,48.1,17.63,48.1ZM46.37,18.9C41.43,18.9,34.55,21.17,28,25,16.47,31.62,10.6,39.93,12.51,43.25c.69,1.19,2.51,1.85,5.12,1.85,4.94,0,11.82-2.27,18.42-6.09C47.53,32.38,53.4,24.07,51.49,20.75,50.8,19.56,49,18.9,46.37,18.9Z"/>
  <path class="d" d="M46.37,48.1c-5.44,0-12.88-2.43-19.92-6.49C13.86,34.34,6.75,24.73,9.92,19.25c.88-1.53,2.93-3.35,7.71-3.35,5.44,0,12.88,2.43,19.92,6.49,12.59,7.27,19.7,16.88,16.53,22.36C53.2,46.28,51.15,48.1,46.37,48.1ZM17.63,18.9c-2.61,0-4.43.66-5.12,1.85C10.6,24.07,16.47,32.38,28,39c6.6,3.82,13.48,6.09,18.42,6.09,2.61,0,4.43-.66,5.12-1.85,1.91-3.32-4-11.63-15.44-18.26C29.45,21.17,22.57,18.9,17.63,18.9Z"/>
  <circle class="d" cx="32" cy="32" r="3"/>
</svg>
