<svg xmlns="http://www.w3.org/2000/svg" viewBox="0 0 64 64">
  <defs>
    <style>
      .a {
        fill: #4f5d73;
      }

      .b {
        opacity: 0.2;
      }

      .c {
        fill: #231f20;
      }

      .d {
        fill: #fff;
      }
    </style>
  </defs>
  <title>Elegant_circle-icons</title>
  <circle class="a" cx="32" cy="32" r="32"/>
  <g class="b">
    <path class="c" d="M56,32.5A24,24,0,0,0,33.5,10.05V10h-3v.05A24,24,0,0,0,8.05,32.5H8v3h.05A24,24,0,0,0,30.5,58v0h3v0A24,24,0,0,0,56,35.5h0v-3Zm-10.48,0a40.75,40.75,0,0,0-1-7.89,29,29,0,0,0,5.09-2.16,20.86,20.86,0,0,1,3.4,10.05Zm-6.54-14a24.27,24.27,0,0,1,1.77,4,38.51,38.51,0,0,1-7.2.92V13.27C35.45,13.9,37.37,15.72,38.93,18.5ZM30.5,13.27V23.45a38.51,38.51,0,0,1-7.2-.92,24.27,24.27,0,0,1,1.77-4C26.63,15.72,28.55,13.9,30.5,13.27Zm0,13.18V32.5h-9a37.12,37.12,0,0,1,.92-7.09A41.58,41.58,0,0,0,30.5,26.45Zm0,9.05v6.2a41.17,41.17,0,0,0-8,1,36.89,36.89,0,0,1-1-7.23Zm0,9.19v10c-1.95-.63-3.87-2.45-5.43-5.23a23.35,23.35,0,0,1-1.72-3.89A38.08,38.08,0,0,1,30.5,44.69Zm3,10v-10a38.93,38.93,0,0,1,7.15.91,23.81,23.81,0,0,1-1.72,3.89C37.37,52.28,35.45,54.1,33.5,54.73Zm0-13V35.5h9a36.89,36.89,0,0,1-1,7.23A41.17,41.17,0,0,0,33.5,41.7Zm0-9.2V26.45a41.58,41.58,0,0,0,8-1,37.12,37.12,0,0,1,.92,7.09ZM47.65,20.05a27,27,0,0,1-4,1.69,24.23,24.23,0,0,0-3.69-7.18A21.1,21.1,0,0,1,47.65,20.05ZM24.09,14.56a24.23,24.23,0,0,0-3.69,7.18,27,27,0,0,1-4-1.69A21.1,21.1,0,0,1,24.09,14.56Zm-9.61,7.89a29,29,0,0,0,5.09,2.16,40.75,40.75,0,0,0-1,7.89H11.08A20.86,20.86,0,0,1,14.48,22.45ZM18.53,35.5a39.51,39.51,0,0,0,1.08,8,29.36,29.36,0,0,0-5.06,2.14A20.75,20.75,0,0,1,11.08,35.5ZM16.44,48.05a26.77,26.77,0,0,1,4-1.65,24.17,24.17,0,0,0,3.65,7A20.92,20.92,0,0,1,16.44,48.05Zm23.47,5.39a24.17,24.17,0,0,0,3.65-7,26.23,26.23,0,0,1,4,1.66A21.06,21.06,0,0,1,39.91,53.44Zm9.54-7.77a29.36,29.36,0,0,0-5.06-2.14,39.71,39.71,0,0,0,1.08-8h7.45A20.79,20.79,0,0,1,49.45,45.67Z"/>
  </g>
  <path class="d" d="M32,11A21,21,0,1,1,11,32,21,21,0,0,1,32,11m0-3A24,24,0,1,0,56,32,24,24,0,0,0,32,8Z"/>
  <path class="d" d="M32,11c2.44,0,5,2,6.93,5.5A32.24,32.24,0,0,1,42.5,32a32.24,32.24,0,0,1-3.57,15.5C37,51,34.44,53,32,53s-5-2-6.93-5.5A32.24,32.24,0,0,1,21.5,32a32.24,32.24,0,0,1,3.57-15.5C27,13,29.56,11,32,11m0-3C24.54,8,18.5,18.75,18.5,32s6,24,13.5,24S45.5,45.25,45.5,32,39.46,8,32,8Z"/>
  <rect class="d" x="30.5" y="8" width="3" height="48"/>
  <path class="d" d="M32,24.5c-7.42,0-14.45-1.86-19.27-5.11l1.68-2.48C18.75,19.83,25.16,21.5,32,21.5s13.24-1.67,17.58-4.59l1.67,2.49C46.44,22.64,39.42,24.5,32,24.5Z"/>
  <path class="d" d="M49.58,47.24C45.24,44.32,38.83,42.65,32,42.65s-13.24,1.67-17.58,4.59l-1.67-2.49c4.81-3.24,11.83-5.1,19.25-5.1s14.45,1.86,19.26,5.11Z"/>
  <rect class="d" x="8" y="30.5" width="48" height="3"/>
</svg>
