<svg xmlns="http://www.w3.org/2000/svg" viewBox="0 0 64 64">
  <defs>
    <style>
      .a {
        fill: #77b3d4;
      }

      .b {
        opacity: 0.2;
      }

      .c {
        fill: #231f20;
      }

      .d {
        fill: #fff;
      }
    </style>
  </defs>
  <title>Elegant_circle-icons</title>
  <circle class="a" cx="32" cy="32" r="32"/>
  <g class="b">
    <path class="c" d="M32,11.91a22,22,0,1,0,22,22A22,22,0,0,0,32,11.91ZM14.05,24.72c.21.84-.21,2.36-.53,4.54-.38,2.54,1.65,2,1.58,4.39s1.78,3.4,1.54,3.64-1.2.58.24,3.71,2.68,4,2.85,5.73,2,4.15,2,4.15l.1.46a20.15,20.15,0,0,1-7.81-26.62ZM24,51.81c-.1-.45.1-2.85,3-3.81s2.4-2.23,3.26-3.47,1-2.16-.62-2.54-3.36-.65-4.84-3-3.53-2.4-4.63-3.12-2-.58-3.33-.75S16,31.21,16,30.39s-.82.27-1.47-.3.62-3.23,1.89-3.13,1,.72,1.2,2.13.68,1.06.79.61.17-2.33.61-2.91.55-2.17,2-2.1,1.4-1.3,2.47-.85,1.82.1,1.13-.49-.31-1.16.86-.78,1.23-1.69,1-2.75-1.07-1.37-2.13-.72-1.85.38-1.31-.72,2.72-.17,4,.38,1.65-1.45.93-2.41-.76-.51-2.82-.37c-.82.05-.73-.39-.34-.94a20.15,20.15,0,0,1,14.32,0c.28.4.39.71.2.84-.83.55-1.55.06-1.31,1.59s1.37,3.35,2.27,2.75,2.43.15,1.1,1a20.09,20.09,0,0,0-2.34,1.3c-.62.55-.34.28.28,1s.55.83-.31,1.17-1.38,1.1-.55,2,1.37,1.57,2.3,0,1.1-3,1.89-2.54,1.68,1.68,2.26,1,.48-1.2,1.27-.66S50,25,48,26.41s-1.61,2.06-2.54,1.89-5.11-1.07-6.07,1.27S34.93,33.75,36.75,36s1.41,3.91,4,4.25,3.95-.82,4.6.38.14,1.34.17,3.16a18.81,18.81,0,0,0,1,4.09,20.12,20.12,0,0,1-22.59,4.5A1.89,1.89,0,0,0,24,51.81Z"/>
    <path class="c" d="M32.09,18.21c.63-.38.68.13,1.23-1.62s-2.06-2-3.29-1.78-.69.72-.69.72c.41.65.68,3-.05,4s.6,1.06,1.18.24A4.4,4.4,0,0,1,32.09,18.21Z"/>
  </g>
  <g>
    <path class="d" d="M32,10.09a22,22,0,1,0,22,22A22,22,0,0,0,32,10.09ZM14.05,22.89c.21.85-.21,2.36-.53,4.54-.38,2.54,1.65,2,1.58,4.39s1.78,3.4,1.54,3.64-1.2.59.24,3.71,2.68,4,2.85,5.73,2,4.15,2,4.15l.1.46a20.15,20.15,0,0,1-7.81-26.62ZM24,50c-.1-.45.1-2.85,3-3.81s2.4-2.23,3.26-3.47,1-2.16-.62-2.54-3.36-.65-4.84-3-3.53-2.4-4.63-3.13-2-.58-3.33-.75S16,29.39,16,28.56s-.82.28-1.47-.29.62-3.24,1.89-3.14,1,.72,1.2,2.13.68,1.06.79.62S18.6,25.54,19,25s.55-2.16,2-2.09,1.4-1.31,2.47-.86,1.82.1,1.13-.48-.31-1.17.86-.79,1.23-1.68,1-2.75-1.07-1.37-2.13-.72-1.85.38-1.31-.72,2.72-.17,4,.38,1.65-1.44.93-2.4-.76-.52-2.82-.38c-.82,0-.73-.39-.34-.94A20.3,20.3,0,0,1,32,11.91a20.06,20.06,0,0,1,7.2,1.34c.28.39.39.7.2.83-.83.55-1.55.06-1.31,1.59s1.37,3.35,2.27,2.75,2.43.16,1.1,1a21.74,21.74,0,0,0-2.34,1.3c-.62.55-.34.28.28,1s.55.82-.31,1.16-1.38,1.1-.55,2,1.37,1.58,2.3,0,1.1-2.95,1.89-2.54,1.68,1.68,2.26,1,.48-1.2,1.27-.65,3.71.58,1.75,2-1.61,2.06-2.54,1.89-5.11-1.06-6.07,1.27-4.47,4.19-2.65,6.45,1.41,3.91,4,4.26,3.95-.83,4.6.37.14,1.34.17,3.16a18.81,18.81,0,0,0,1,4.09,20.12,20.12,0,0,1-22.59,4.5A1.86,1.86,0,0,0,24,50Z"/>
    <path class="d" d="M32.09,16.38c.63-.38.68.14,1.23-1.61S31.26,12.78,30,13s-.69.72-.69.72c.41.66.68,3.06-.05,3.95s.6,1.06,1.18.24A4.49,4.49,0,0,1,32.09,16.38Z"/>
  </g>
</svg>
