<svg xmlns="http://www.w3.org/2000/svg" viewBox="0 0 64 64">
  <defs>
    <style>
      .a {
        fill: #c75c5c;
      }

      .b {
        opacity: 0.2;
      }

      .c {
        fill: #231f20;
      }

      .d {
        fill: #fff;
        stroke: #fff;
        stroke-linecap: round;
        stroke-linejoin: round;
        stroke-width: 3px;
      }
    </style>
  </defs>
  <title>Elegant_circle-icons_2</title>
  <circle class="a" cx="32" cy="32" r="32"/>
  <g class="b">
    <polygon class="c" points="32 16.85 17.64 49.15 32 41.97 46.36 49.15 32 16.85"/>
    <path class="c" d="M46.36,50.5a1.39,1.39,0,0,1-.6-.14L32,43.48,18.24,50.36a1.34,1.34,0,0,1-1.83-1.75L30.77,16.3a1.35,1.35,0,0,1,2.46,0L47.59,48.61a1.35,1.35,0,0,1-.3,1.52A1.37,1.37,0,0,1,46.36,50.5ZM32,40.63a1.39,1.39,0,0,1,.6.14l11,5.5L32,20.16,20.39,46.27l11-5.5A1.39,1.39,0,0,1,32,40.63Z"/>
  </g>
  <polygon class="d" points="32 15 17.92 46.68 32 39.64 46.08 46.68 32 15"/>
</svg>
