<svg xmlns="http://www.w3.org/2000/svg" viewBox="0 0 64 64">
  <defs>
    <style>
      .a {
        fill: #c75c5c;
      }

      .b {
        opacity: 0.2;
      }

      .c {
        fill: #231f20;
      }

      .d {
        fill: #fff;
      }
    </style>
  </defs>
  <title>Elegant_circle-icons</title>
  <circle class="a" cx="32" cy="32" r="32"/>
  <g class="b">
    <path class="c" d="M50,31c-.09-5.52-4.57-10.44-10.1-10.44A9.94,9.94,0,0,0,32,24.69a9.94,9.94,0,0,0-7.88-4.13c-5.53,0-10,4.92-10.1,10.44h0s0,.07,0,.1,0,0,0,.08,0,.27,0,.42c.5,14.07,17.82,19.84,17.82,19.84S49.43,45.68,50,31.62c0-.16,0-.28,0-.44s0-.05,0-.08,0-.06,0-.1Z"/>
  </g>
  <path class="d" d="M50,29c-.09-5.52-4.57-10.44-10.1-10.44A9.94,9.94,0,0,0,32,22.69a9.94,9.94,0,0,0-7.88-4.13c-5.53,0-10,4.92-10.1,10.44h0s0,.07,0,.1,0,0,0,.08,0,.27,0,.42c.5,14.07,17.82,19.84,17.82,19.84S49.43,43.68,50,29.62c0-.16,0-.28,0-.44s0-.05,0-.08,0-.06,0-.1Z"/>
</svg>
