<svg xmlns="http://www.w3.org/2000/svg" viewBox="0 0 64 64">
  <defs>
    <style>
      .a {
        fill: #e0995e;
      }

      .b, .e {
        fill: #4f5d73;
      }

      .c, .f {
        opacity: 0.2;
      }

      .d, .f {
        fill: #231f20;
      }

      .e {
        stroke: #fff;
        stroke-linecap: round;
        stroke-miterlimit: 10;
        stroke-width: 3px;
      }

      .g {
        fill: #fff;
      }

      .h {
        fill: #e0e0d1;
      }
    </style>
  </defs>
  <title>Elegant_circle-icons_2</title>
  <circle class="a" cx="32" cy="32" r="32"/>
  <path class="b" d="M44,54H30a2,2,0,0,1,0-4H44a2,2,0,0,1,0,4Z"/>
  <g class="c">
    <path class="d" d="M50,20H22a2,2,0,0,1,0-4H50a2,2,0,0,1,0,4Z"/>
  </g>
  <line class="e" x1="50" y1="16.5" x2="22" y2="16.5"/>
  <path class="f" d="M37,25.5a14.91,14.91,0,0,1,.08-1.5H37a14.89,14.89,0,0,0-10,3.88A3.86,3.86,0,0,1,24.35,29C21.27,29,10,25.4,10,29a4.17,4.17,0,0,0,2,3.91L20.61,37A2.53,2.53,0,0,1,22,39c0,8.28,6.72,11,15,11,7.29,0,14.08-2.56,14.71-10.1C43.44,39,37,34,37,25.5Z"/>
  <path class="b" d="M37,23.5a14.91,14.91,0,0,1,.08-1.5H37a14.89,14.89,0,0,0-10,3.88A3.86,3.86,0,0,1,24.35,27H10l2,3.91L20.61,35A2.53,2.53,0,0,1,22,37c0,8.28,6.72,11,15,11,7.29,0,13.36-1.2,14.71-8.1A16.5,16.5,0,0,1,37,23.5Z"/>
  <path class="f" d="M13,27a1,1,0,1,1-1,1,1,1,0,0,1,1-1m0-4a5,5,0,1,0,5,5,5,5,0,0,0-5-5Z"/>
  <path class="g" d="M13,24a2,2,0,1,1-2,2,2,2,0,0,1,2-2m0-3a5,5,0,1,0,5,5,5,5,0,0,0-5-5Z"/>
  <path class="h" d="M37.08,22A14.91,14.91,0,0,0,37,23.5,16.5,16.5,0,0,0,51.71,39.9,14.63,14.63,0,0,0,52,37,15,15,0,0,0,37.08,22Z"/>
</svg>
