<svg xmlns="http://www.w3.org/2000/svg" viewBox="0 0 64 64">
  <defs>
    <style>
      .a {
        fill: #77b3d4;
      }

      .b, .d {
        opacity: 0.2;
      }

      .c, .d {
        fill: #231f20;
      }

      .e {
        fill: #4f5d73;
      }

      .f {
        fill: #fff;
      }

      .g {
        fill: #c75c5c;
      }
    </style>
  </defs>
  <title>Elegant_circle-icons_2</title>
  <circle class="a" cx="32" cy="32" r="32"/>
  <g class="b">
    <ellipse class="c" cx="32" cy="30" rx="20" ry="19.97"/>
  </g>
  <path class="d" d="M38,55a3,3,0,0,1-3,3H29a3,3,0,0,1-3-3h0a3,3,0,0,1,3-3h6a3,3,0,0,1,3,3Z"/>
  <ellipse class="e" cx="32" cy="28.03" rx="20" ry="19.97"/>
  <ellipse class="f" cx="32" cy="28.03" rx="16" ry="19.97"/>
  <ellipse class="e" cx="32" cy="28.03" rx="8" ry="19.97"/>
  <path class="g" d="M38,53a3,3,0,0,1-3,3H29a3,3,0,0,1-3-3h0a3,3,0,0,1,3-3h6a3,3,0,0,1,3,3Z"/>
</svg>
