<svg xmlns="http://www.w3.org/2000/svg" viewBox="0 0 64 64">
  <defs>
    <style>
      .a {
        fill: #c75c5c;
      }

      .b {
        opacity: 0.2;
      }

      .c {
        fill: #231f20;
      }

      .d {
        fill: #fff;
      }

      .e {
        fill: #4f5d73;
      }

      .f {
        opacity: 0.3;
      }

      .g {
        fill: #f5cf87;
      }
    </style>
  </defs>
  <title>Elegant_circle-icons</title>
  <circle class="a" cx="32" cy="32" r="32"/>
  <g class="b">
    <path class="c" d="M46,50H44V46a10.91,10.91,0,0,0-3-7.39l-3.89-3.72a1.22,1.22,0,0,1,0-1.78l4.17-4A9.65,9.65,0,0,0,44,22.46V17.33l-12-1-12,1v5.13a9.65,9.65,0,0,0,2.72,6.66l4.17,4a1.22,1.22,0,0,1,0,1.78L23,38.61A10.91,10.91,0,0,0,20,46v4H18a2,2,0,0,0,0,4H46a2,2,0,0,0,0-4Z"/>
  </g>
  <path class="d" d="M41,36.61l-3.89-3.72a1.22,1.22,0,0,1,0-1.78l4.17-4A9.65,9.65,0,0,0,44,20.46V15.33l-12-1-12,1v5.13a9.65,9.65,0,0,0,2.72,6.66l4.17,4a1.22,1.22,0,0,1,0,1.78L23,36.61A10.91,10.91,0,0,0,20,44v5.08H44V44A10.91,10.91,0,0,0,41,36.61Z"/>
  <path class="e" d="M31,43l0-11a5.37,5.37,0,0,0-1.33-3.74l-4.22-4A5.78,5.78,0,0,1,24,20.58H40a5.68,5.68,0,0,1-1.48,3.65l-4.18,4A5.39,5.39,0,0,0,33,32V43Z"/>
  <g class="f">
    <path class="c" d="M48,16a2,2,0,0,1-2,2H18a2,2,0,0,1-2-2h0a2,2,0,0,1,2-2H46a2,2,0,0,1,2,2Z"/>
  </g>
  <path class="g" d="M48,14a2,2,0,0,1-2,2H18a2,2,0,0,1-2-2h0a2,2,0,0,1,2-2H46a2,2,0,0,1,2,2Z"/>
  <path class="g" d="M48,50a2,2,0,0,1-2,2H18a2,2,0,0,1-2-2h0a2,2,0,0,1,2-2H46a2,2,0,0,1,2,2Z"/>
  <polygon class="e" points="41 48 41 48 23 48 23 48 32 40 41 48"/>
</svg>
