<svg xmlns="http://www.w3.org/2000/svg" viewBox="0 0 64 64">
  <defs>
    <style>
      .a {
        fill: #e0995e;
      }

      .b {
        fill: #231f20;
        opacity: 0.2;
      }

      .c {
        fill: #4f5d73;
      }

      .c, .d {
        stroke: #fff;
        stroke-linecap: round;
        stroke-linejoin: round;
        stroke-width: 3px;
      }

      .d {
        fill: #c75c5c;
      }
    </style>
  </defs>
  <title>Elegant_circle-icons_2</title>
  <circle class="a" cx="32" cy="32" r="32"/>
  <path class="b" d="M51.36,18.37a1.49,1.49,0,0,0-.88-.79,1.52,1.52,0,0,0-1.18.09,21.87,21.87,0,0,1-9.08,2.17,13.28,13.28,0,0,1-7.4-2.09,1.48,1.48,0,0,0-1.64,0,13.28,13.28,0,0,1-7.4,2.09,22,22,0,0,1-9.08-2.17,1.52,1.52,0,0,0-1.18-.09,1.46,1.46,0,0,0-.88.79A38.84,38.84,0,0,0,9.45,33h0c-.06,8.93,3.74,20.43,22.23,24.48a1.73,1.73,0,0,0,.32,0,1.63,1.63,0,0,0,.31,0C50.85,53.56,54.64,42,54.54,33A39.36,39.36,0,0,0,51.36,18.37Z"/>
  <path class="c" d="M11,30.5c-.06,8.82,3.84,19.24,21.05,23,17.26-3.64,21.14-14.12,21-23Z"/>
  <path class="d" d="M50,16.5s-10,5.26-18,0c-8,5.26-18,0-18,0A37.7,37.7,0,0,0,11,30.5H53A38.11,38.11,0,0,0,50,16.5Z"/>
</svg>
