<svg xmlns="http://www.w3.org/2000/svg" viewBox="0 0 64 64">
  <defs>
    <style>
      .a {
        fill: #e0995e;
      }

      .b {
        opacity: 0.2;
      }

      .c {
        fill: #231f20;
      }

      .d {
        fill: #fff;
      }
    </style>
  </defs>
  <title>Elegant_circle-icons</title>
  <circle class="a" cx="32" cy="32" r="32"/>
  <g class="b">
    <path class="c" d="M47,18H43a1,1,0,0,0-.66.25l-13.8,12.1A14.77,14.77,0,0,0,26,30,10,10,0,1,0,36,40a9.38,9.38,0,0,0-.67-3.65l3.41-1.15a1,1,0,0,0,.68-1l-.09-3.8,3.82-.27a1,1,0,0,0,.93-1l.14-4.56,3-.66A1,1,0,0,0,48,23V19A1,1,0,0,0,47,18ZM23,40a3,3,0,1,1-3,3A3,3,0,0,1,23,40Z"/>
  </g>
  <path class="d" d="M47,16H43a1,1,0,0,0-.66.25l-13.8,12.1A14.77,14.77,0,0,0,26,28,10,10,0,1,0,36,38a9.38,9.38,0,0,0-.67-3.65l3.41-1.15a1,1,0,0,0,.68-1l-.09-3.8,3.82-.27a1,1,0,0,0,.93-1l.14-4.56,3-.66A1,1,0,0,0,48,21V17A1,1,0,0,0,47,16ZM23,38a3,3,0,1,1-3,3A3,3,0,0,1,23,38Z"/>
</svg>
