<svg xmlns="http://www.w3.org/2000/svg" viewBox="0 0 64 64">
  <defs>
    <style>
      .a {
        fill: #e0995e;
      }

      .b, .e {
        fill: #231f20;
      }

      .b, .d {
        opacity: 0.2;
      }

      .c {
        fill: #f5cf87;
      }

      .f {
        fill: #fff;
      }
    </style>
  </defs>
  <title>Elegant_circle-icons_3</title>
  <circle class="a" cx="32" cy="32" r="32"/>
  <path class="b" d="M52,42.92A2,2,0,0,1,50,45H14a2,2,0,0,1-2-2.08V26.08A2,2,0,0,1,14,24H50a2,2,0,0,1,2,2.08Z"/>
  <path class="c" d="M52,40.92A2,2,0,0,1,50,43H14a2,2,0,0,1-2-2.08V24.08A2,2,0,0,1,14,22H50a2,2,0,0,1,2,2.08Z"/>
  <g class="d">
    <path class="e" d="M39.89,38H24.11a1.5,1.5,0,1,0,0,3H39.89a1.5,1.5,0,1,0,0-3Z"/>
    <circle class="e" cx="20" cy="39.5" r="1.5"/>
    <circle class="e" cx="16" cy="39.5" r="1.5"/>
    <circle class="e" cx="48" cy="39.5" r="1.5"/>
    <circle class="e" cx="44" cy="39.5" r="1.5"/>
    <path class="e" d="M20,33.85H16a1.5,1.5,0,0,0,0,3h4a1.5,1.5,0,0,0,0-3Z"/>
    <path class="e" d="M48,33.85H44a1.5,1.5,0,0,0,0,3h4a1.5,1.5,0,0,0,0-3Z"/>
    <circle class="e" cx="20" cy="31.5" r="1.5"/>
    <circle class="e" cx="16" cy="31.5" r="1.5"/>
    <circle class="e" cx="48" cy="31.5" r="1.5"/>
    <circle class="e" cx="44" cy="31.5" r="1.5"/>
    <circle class="e" cx="20" cy="27.52" r="1.5"/>
    <circle class="e" cx="16" cy="27.52" r="1.5"/>
    <circle class="e" cx="28" cy="35.35" r="1.5"/>
    <circle class="e" cx="24" cy="35.35" r="1.5"/>
    <circle class="e" cx="28" cy="31.5" r="1.5"/>
    <circle class="e" cx="24" cy="31.5" r="1.5"/>
    <circle class="e" cx="28" cy="27.52" r="1.5"/>
    <circle class="e" cx="24" cy="27.52" r="1.5"/>
    <circle class="e" cx="36" cy="35.35" r="1.5"/>
    <circle class="e" cx="32" cy="35.35" r="1.5"/>
    <circle class="e" cx="36" cy="31.5" r="1.5"/>
    <circle class="e" cx="32" cy="31.5" r="1.5"/>
    <circle class="e" cx="36" cy="27.52" r="1.5"/>
    <circle class="e" cx="40" cy="35.35" r="1.5"/>
    <circle class="e" cx="40" cy="31.5" r="1.5"/>
    <circle class="e" cx="40" cy="27.52" r="1.5"/>
    <circle class="e" cx="32" cy="27.52" r="1.5"/>
    <circle class="e" cx="48" cy="27.52" r="1.5"/>
    <circle class="e" cx="44" cy="27.52" r="1.5"/>
  </g>
  <g>
    <path class="f" d="M39.89,37H24.11a1.5,1.5,0,1,0,0,3H39.89a1.5,1.5,0,1,0,0-3Z"/>
    <circle class="f" cx="20" cy="38.5" r="1.5"/>
    <circle class="f" cx="16" cy="38.5" r="1.5"/>
    <circle class="f" cx="48" cy="38.5" r="1.5"/>
    <circle class="f" cx="44" cy="38.5" r="1.5"/>
    <path class="f" d="M20,32.85H16a1.5,1.5,0,0,0,0,3h4a1.5,1.5,0,0,0,0-3Z"/>
    <path class="f" d="M48,32.85H44a1.5,1.5,0,0,0,0,3h4a1.5,1.5,0,0,0,0-3Z"/>
    <circle class="f" cx="20" cy="30.5" r="1.5"/>
    <circle class="f" cx="16" cy="30.5" r="1.5"/>
    <circle class="f" cx="48" cy="30.5" r="1.5"/>
    <circle class="f" cx="44" cy="30.5" r="1.5"/>
    <circle class="f" cx="20" cy="26.52" r="1.5"/>
    <circle class="f" cx="16" cy="26.52" r="1.5"/>
    <circle class="f" cx="28" cy="34.35" r="1.5"/>
    <circle class="f" cx="24" cy="34.35" r="1.5"/>
    <circle class="f" cx="28" cy="30.5" r="1.5"/>
    <circle class="f" cx="24" cy="30.5" r="1.5"/>
    <circle class="f" cx="28" cy="26.52" r="1.5"/>
    <circle class="f" cx="24" cy="26.52" r="1.5"/>
    <circle class="f" cx="36" cy="34.35" r="1.5"/>
    <circle class="f" cx="32" cy="34.35" r="1.5"/>
    <circle class="f" cx="36" cy="30.5" r="1.5"/>
    <circle class="f" cx="32" cy="30.5" r="1.5"/>
    <circle class="f" cx="36" cy="26.52" r="1.5"/>
    <circle class="f" cx="40" cy="34.35" r="1.5"/>
    <circle class="f" cx="40" cy="30.5" r="1.5"/>
    <circle class="f" cx="40" cy="26.52" r="1.5"/>
    <circle class="f" cx="32" cy="26.52" r="1.5"/>
    <circle class="f" cx="48" cy="26.52" r="1.5"/>
    <circle class="f" cx="44" cy="26.52" r="1.5"/>
  </g>
</svg>
