<svg xmlns="http://www.w3.org/2000/svg" viewBox="0 0 64 64">
  <defs>
    <style>
      .a {
        fill: #e0e0d1;
      }

      .b {
        fill: #76c2af;
      }

      .c {
        fill: #4f5d73;
      }

      .d, .f {
        opacity: 0.2;
      }

      .e {
        fill: #fff;
      }

      .f, .g {
        fill: #231f20;
      }
    </style>
  </defs>
  <title>Elegant_circle-icons_3</title>
  <circle class="a" cx="32" cy="32" r="32"/>
  <g>
    <circle class="b" cx="32" cy="32" r="15.4"/>
    <circle class="c" cx="32" cy="32" r="8.5"/>
    <g class="d">
      <path class="e" d="M43.09,17.87c-6.15-1.31-14-.78-20.3.89A15.2,15.2,0,0,0,22,23.6a15.39,15.39,0,0,0,28.38,8.26C49.39,26,47.76,18.87,43.09,17.87Z"/>
    </g>
    <circle class="e" cx="36" cy="26" r="2"/>
    <path class="f" d="M32,20.54A12.09,12.09,0,1,1,19.92,32.62,12.09,12.09,0,0,1,32,20.54m0-3.29A15.38,15.38,0,1,0,47.38,32.62,15.38,15.38,0,0,0,32,17.25Z"/>
    <path class="c" d="M32,19A13,13,0,1,1,19,32,13,13,0,0,1,32,19m0-3A16,16,0,1,0,48,32,16,16,0,0,0,32,16Z"/>
    <path class="f" d="M32,17.41a15,15,0,1,1-15,15,15,15,0,0,1,15-15m0-3.22A18.25,18.25,0,1,0,50.25,32.44,18.25,18.25,0,0,0,32,14.19Z"/>
    <path class="c" d="M32,16A16,16,0,1,1,16,32,16,16,0,0,1,32,16m0-3A19,19,0,1,0,51,32,19,19,0,0,0,32,13Z"/>
    <path class="f" d="M32,14.54A17.93,17.93,0,1,1,14.07,32.47,17.95,17.95,0,0,1,32,14.54m0-3.16A21.09,21.09,0,1,0,53.09,32.47,21.09,21.09,0,0,0,32,11.38Z"/>
    <g class="d">
      <circle class="g" cx="32" cy="34" r="22"/>
    </g>
    <path class="c" d="M32,13A19,19,0,1,1,13,32,19,19,0,0,1,32,13m0-3A22,22,0,1,0,54,32,22,22,0,0,0,32,10Z"/>
  </g>
</svg>
