<svg xmlns="http://www.w3.org/2000/svg" viewBox="0 0 64 64">
  <defs>
    <style>
      .a {
        fill: #c75c5c;
      }

      .b {
        fill: #e0e0d1;
      }

      .c {
        fill: #f5cf87;
      }

      .d {
        opacity: 0.2;
      }

      .e {
        fill: #231f20;
      }

      .f {
        fill: #fff;
      }
    </style>
  </defs>
  <title>Elegant_circle-icons</title>
  <circle class="a" cx="32" cy="32" r="32"/>
  <path class="b" d="M24,40c0-.55.64-.49,1.12-.77l6-3.47a1.91,1.91,0,0,1,1.74,0l6,3.47c.48.28,1.12.22,1.12.77v7.41a2.76,2.76,0,0,1-1.12,1.77l-6,3.47a2,2,0,0,1-1.74,0l-6-3.47A2.76,2.76,0,0,1,24,47.41Z"/>
  <g>
    <circle class="c" cx="32" cy="28" r="17"/>
    <path class="a" d="M32,12A16,16,0,1,1,16,28,16,16,0,0,1,32,12m0-2A18,18,0,1,0,50,28,18,18,0,0,0,32,10Z"/>
  </g>
  <g class="d">
    <path class="e" d="M24,46.1v3.31a2.76,2.76,0,0,0,1.12,1.77l6,3.47a2,2,0,0,0,1.74,0l6-3.47A2.76,2.76,0,0,0,40,49.41V46.1a17.79,17.79,0,0,1-16,0Z"/>
  </g>
  <path class="b" d="M24,40.05v7.36a2.76,2.76,0,0,0,1.12,1.77l6,3.47a2,2,0,0,0,1.74,0l6-3.47A2.76,2.76,0,0,0,40,47.41V40.05a17.79,17.79,0,0,1-16,0Z"/>
  <g class="d">
    <circle class="e" cx="32" cy="30" r="16"/>
  </g>
  <circle class="c" cx="32" cy="28" r="16"/>
  <path class="f" d="M32,41.55a1.5,1.5,0,0,1-1.5-1.5V32a11.62,11.62,0,0,1-6.37-2,5.94,5.94,0,0,1-2.54-4.81,5.71,5.71,0,0,1,9.79-4c2.29,2.42,2.14,6.41,2.12,6.86v12A1.5,1.5,0,0,1,32,41.55Zm-4.81-19a2.67,2.67,0,0,0-2.6,2.72,2.93,2.93,0,0,0,1.33,2.4A8.35,8.35,0,0,0,30.5,29V28c0-.94-.11-3.46-1.3-4.72A2.61,2.61,0,0,0,27.19,22.5Z"/>
  <path class="f" d="M32,41.55a1.5,1.5,0,0,1-1.5-1.5V28c0-.37-.17-4.36,2.12-6.78a5.71,5.71,0,0,1,9.79,4A6,6,0,0,1,39.88,30a11.61,11.61,0,0,1-6.38,2v8A1.5,1.5,0,0,1,32,41.55Zm4.81-19a2.59,2.59,0,0,0-2,.79c-1.19,1.26-1.34,3.83-1.3,4.63V29a8.4,8.4,0,0,0,4.59-1.37,2.93,2.93,0,0,0,1.33-2.4A2.67,2.67,0,0,0,36.82,22.5Z"/>
</svg>
