<svg xmlns="http://www.w3.org/2000/svg" viewBox="0 0 64 64">
  <defs>
    <style>
      .a {
        fill: #e0995e;
      }

      .b {
        opacity: 0.2;
      }

      .c {
        fill: #231f20;
      }

      .d {
        fill: #fff;
      }
    </style>
  </defs>
  <title>Elegant_circle-icons_3</title>
  <circle class="a" cx="32" cy="32" r="32"/>
  <g class="b">
    <path class="c" d="M32,12a1.5,1.5,0,0,0-1.5,1.5v8.17a1.5,1.5,0,0,0,3,0V13.5A1.5,1.5,0,0,0,32,12Z"/>
    <path class="c" d="M21.5,33.5A1.5,1.5,0,0,0,20,32H12a1.5,1.5,0,0,0,0,3h8A1.5,1.5,0,0,0,21.5,33.5Z"/>
    <path class="c" d="M32,44a1.5,1.5,0,0,0-1.5,1.5v8a1.5,1.5,0,0,0,3,0v-8A1.5,1.5,0,0,0,32,44Z"/>
    <path class="c" d="M39.3,43.14a1.5,1.5,0,1,0-2.6,1.5l4,6.93a1.5,1.5,0,0,0,1.3.75,1.46,1.46,0,0,0,.75-.2,1.5,1.5,0,0,0,.55-2Z"/>
    <path class="c" d="M23.3,15.43a1.5,1.5,0,0,0-2.6,1.5L24.78,24a1.51,1.51,0,0,0,1.3.75,1.43,1.43,0,0,0,.75-.2,1.49,1.49,0,0,0,.55-2.05Z"/>
    <path class="c" d="M41,28.33a1.5,1.5,0,0,0,1.3.75,1.48,1.48,0,0,0,.75-.2l7.07-4.08a1.5,1.5,0,0,0-1.5-2.6L41.5,26.28A1.5,1.5,0,0,0,41,28.33Z"/>
    <path class="c" d="M52,32H43.83a1.5,1.5,0,0,0,0,3H52a1.5,1.5,0,0,0,0-3Z"/>
    <path class="c" d="M50.07,42.2l-6.93-4a1.5,1.5,0,1,0-1.5,2.6l6.93,4a1.46,1.46,0,0,0,.75.2,1.5,1.5,0,0,0,.75-2.8Z"/>
    <path class="c" d="M13.93,24.8,21,28.88a1.48,1.48,0,0,0,.75.2,1.5,1.5,0,0,0,.75-2.8L15.43,22.2a1.5,1.5,0,1,0-1.5,2.6Z"/>
    <path class="c" d="M22.91,38.75a1.5,1.5,0,0,0-2.05-.55l-6.93,4a1.5,1.5,0,0,0,.75,2.8,1.46,1.46,0,0,0,.75-.2l6.93-4A1.5,1.5,0,0,0,22.91,38.75Z"/>
    <path class="c" d="M26.75,42.59a1.51,1.51,0,0,0-2.05.55l-4,6.93a1.5,1.5,0,0,0,.55,2,1.46,1.46,0,0,0,.75.2,1.5,1.5,0,0,0,1.3-.75l4-6.93A1.5,1.5,0,0,0,26.75,42.59Z"/>
    <path class="c" d="M37.17,24.55a1.43,1.43,0,0,0,.75.2,1.51,1.51,0,0,0,1.3-.75l4.08-7.07a1.5,1.5,0,1,0-2.6-1.5L36.62,22.5A1.49,1.49,0,0,0,37.17,24.55Z"/>
  </g>
  <g>
    <path class="d" d="M32,10a1.5,1.5,0,0,0-1.5,1.5v8.17a1.5,1.5,0,0,0,3,0V11.5A1.5,1.5,0,0,0,32,10Z"/>
    <path class="d" d="M21.5,31.5A1.5,1.5,0,0,0,20,30H12a1.5,1.5,0,0,0,0,3h8A1.5,1.5,0,0,0,21.5,31.5Z"/>
    <path class="d" d="M32,42a1.5,1.5,0,0,0-1.5,1.5v8a1.5,1.5,0,0,0,3,0v-8A1.5,1.5,0,0,0,32,42Z"/>
    <path class="d" d="M39.3,41.14a1.5,1.5,0,1,0-2.6,1.5l4,6.93a1.5,1.5,0,0,0,1.3.75,1.46,1.46,0,0,0,.75-.2,1.5,1.5,0,0,0,.55-2Z"/>
    <path class="d" d="M23.3,13.43a1.5,1.5,0,0,0-2.6,1.5L24.78,22a1.51,1.51,0,0,0,1.3.75,1.43,1.43,0,0,0,.75-.2,1.49,1.49,0,0,0,.55-2.05Z"/>
    <path class="d" d="M41,26.33a1.5,1.5,0,0,0,1.3.75,1.48,1.48,0,0,0,.75-.2l7.07-4.08a1.5,1.5,0,0,0-1.5-2.6L41.5,24.28A1.5,1.5,0,0,0,41,26.33Z"/>
    <path class="d" d="M52,30H43.83a1.5,1.5,0,0,0,0,3H52a1.5,1.5,0,0,0,0-3Z"/>
    <path class="d" d="M50.07,40.2l-6.93-4a1.5,1.5,0,1,0-1.5,2.6l6.93,4a1.46,1.46,0,0,0,.75.2,1.5,1.5,0,0,0,.75-2.8Z"/>
    <path class="d" d="M13.93,22.8,21,26.88a1.48,1.48,0,0,0,.75.2,1.5,1.5,0,0,0,.75-2.8L15.43,20.2a1.5,1.5,0,1,0-1.5,2.6Z"/>
    <path class="d" d="M22.91,36.75a1.5,1.5,0,0,0-2.05-.55l-6.93,4a1.5,1.5,0,0,0,.75,2.8,1.46,1.46,0,0,0,.75-.2l6.93-4A1.5,1.5,0,0,0,22.91,36.75Z"/>
    <path class="d" d="M26.75,40.59a1.51,1.51,0,0,0-2.05.55l-4,6.93a1.5,1.5,0,0,0,.55,2,1.46,1.46,0,0,0,.75.2,1.5,1.5,0,0,0,1.3-.75l4-6.93A1.5,1.5,0,0,0,26.75,40.59Z"/>
    <path class="d" d="M37.17,22.55a1.43,1.43,0,0,0,.75.2,1.51,1.51,0,0,0,1.3-.75l4.08-7.07a1.5,1.5,0,1,0-2.6-1.5L36.62,20.5A1.49,1.49,0,0,0,37.17,22.55Z"/>
  </g>
</svg>
