<svg xmlns="http://www.w3.org/2000/svg" viewBox="0 0 64 64">
  <defs>
    <style>
      .a {
        fill: #e0995e;
      }

      .b {
        opacity: 0.2;
      }

      .c {
        fill: #231f20;
      }

      .d {
        fill: #4f5d73;
      }

      .e {
        fill: #fff;
      }
    </style>
  </defs>
  <title>Elegant_circle-icons</title>
  <circle class="a" cx="32" cy="32" r="32"/>
  <g class="b">
    <path class="c" d="M45.5,33.17h-5V25.83a8.5,8.5,0,0,0-17,0v7.34h-5V25.83a13.5,13.5,0,0,1,27,0Z"/>
  </g>
  <path class="d" d="M45.5,31.17h-5V23.83a8.5,8.5,0,0,0-17,0v7.34h-5V23.83a13.5,13.5,0,0,1,27,0Z"/>
  <path class="d" d="M32,32a4,4,0,0,0-2,7.45V42a2,2,0,0,0,4,0V39.45A4,4,0,0,0,32,32Z"/>
  <g class="b">
    <path class="c" d="M47,27H17a3,3,0,0,0-3,3V49a3,3,0,0,0,3,3H47a3,3,0,0,0,3-3V30A3,3,0,0,0,47,27ZM34,41.45V44a2,2,0,0,1-4,0V41.45a4,4,0,1,1,4,0Z"/>
  </g>
  <path class="e" d="M47,25H17a3,3,0,0,0-3,3V47a3,3,0,0,0,3,3H47a3,3,0,0,0,3-3V28A3,3,0,0,0,47,25ZM34,39.45V42a2,2,0,0,1-4,0V39.45a4,4,0,1,1,4,0Z"/>
</svg>
