<svg xmlns="http://www.w3.org/2000/svg" viewBox="0 0 64 64">
  <defs>
    <style>
      .a {
        fill: #c75c5c;
      }

      .b, .d {
        opacity: 0.2;
      }

      .c, .d {
        fill: #231f20;
      }

      .e {
        fill: #4f5d73;
      }

      .f {
        fill: #fff;
      }

      .g {
        fill: #f5cf87;
      }
    </style>
  </defs>
  <title>Elegant_circle-icons_3</title>
  <circle class="a" cx="32" cy="32" r="32"/>
  <g class="b">
    <path class="c" d="M33.8,25.54,12.59,46.76a2,2,0,0,0,0,2.83l2.82,2.82a2,2,0,0,0,2.83,0L39.46,31.2Z"/>
  </g>
  <path class="d" d="M47.94,22.72a2,2,0,0,0,0-2.83l-2.83-2.83a2,2,0,0,0-2.83,0l-7.07,7.07,5.66,5.66Z"/>
  <g class="b">
    <path class="c" d="M20.5,31.56a1.5,1.5,0,0,1-1.5-1.5v-8a1.5,1.5,0,0,1,3,0v8A1.5,1.5,0,0,1,20.5,31.56Z"/>
  </g>
  <g class="b">
    <path class="c" d="M23.06,27H17.94a1.5,1.5,0,1,1,0-3h5.12a1.5,1.5,0,1,1,0,3Z"/>
  </g>
  <g class="b">
    <path class="c" d="M33.5,22A1.5,1.5,0,0,1,32,20.5v-8a1.5,1.5,0,0,1,3,0v8A1.5,1.5,0,0,1,33.5,22Z"/>
  </g>
  <g class="b">
    <path class="c" d="M36.06,17.44H30.94a1.5,1.5,0,1,1,0-3h5.12a1.5,1.5,0,0,1,0,3Z"/>
  </g>
  <g class="b">
    <path class="c" d="M49.5,41.56a1.5,1.5,0,0,1-1.5-1.5v-8a1.5,1.5,0,1,1,3,0v8A1.5,1.5,0,0,1,49.5,41.56Z"/>
  </g>
  <g class="b">
    <path class="c" d="M52.06,37H46.94a1.5,1.5,0,0,1,0-3h5.12a1.5,1.5,0,0,1,0,3Z"/>
  </g>
  <path class="e" d="M33.8,23.54,12.59,44.76a2,2,0,0,0,0,2.83l2.82,2.82a2,2,0,0,0,2.83,0L39.46,29.2Z"/>
  <path class="f" d="M47.94,20.72a2,2,0,0,0,0-2.83l-2.83-2.83a2,2,0,0,0-2.83,0l-7.07,7.07,5.66,5.66Z"/>
  <path class="g" d="M20.5,29.56a1.5,1.5,0,0,1-1.5-1.5v-8a1.5,1.5,0,0,1,3,0v8A1.5,1.5,0,0,1,20.5,29.56Z"/>
  <path class="g" d="M23.06,25H17.94a1.5,1.5,0,1,1,0-3h5.12a1.5,1.5,0,1,1,0,3Z"/>
  <path class="g" d="M33.5,20A1.5,1.5,0,0,1,32,18.5v-8a1.5,1.5,0,0,1,3,0v8A1.5,1.5,0,0,1,33.5,20Z"/>
  <path class="g" d="M36.06,15.44H30.94a1.5,1.5,0,0,1,0-3h5.12a1.5,1.5,0,0,1,0,3Z"/>
  <path class="g" d="M49.5,39.56a1.5,1.5,0,0,1-1.5-1.5v-8a1.5,1.5,0,0,1,3,0v8A1.5,1.5,0,0,1,49.5,39.56Z"/>
  <path class="g" d="M52.06,35H46.94a1.5,1.5,0,0,1,0-3h5.12a1.5,1.5,0,0,1,0,3Z"/>
</svg>
