<svg xmlns="http://www.w3.org/2000/svg" viewBox="0 0 64 64">
  <defs>
    <style>
      .a {
        fill: #e0995e;
      }

      .b {
        opacity: 0.2;
      }

      .c {
        fill: #231f20;
      }

      .d {
        fill: #4f5d73;
      }

      .e {
        fill: #77b3d4;
      }

      .f {
        fill: #fff;
      }
    </style>
  </defs>
  <title>Elegant_circle-icons</title>
  <circle class="a" cx="32" cy="32" r="32"/>
  <g class="b">
    <path class="c" d="M48,52.5a2.49,2.49,0,0,1-1.77-.73l-12-12a2.5,2.5,0,0,1,3.54-3.54l12,12a2.52,2.52,0,0,1,0,3.54A2.49,2.49,0,0,1,48,52.5Z"/>
  </g>
  <path class="d" d="M48,50.5a2.49,2.49,0,0,1-1.77-.73l-12-12a2.5,2.5,0,0,1,3.54-3.54l12,12a2.52,2.52,0,0,1,0,3.54A2.49,2.49,0,0,1,48,50.5Z"/>
  <circle class="e" cx="28.39" cy="28.39" r="10.57"/>
  <g class="b">
    <path class="c" d="M28.39,19.82a10.57,10.57,0,1,1-7.48,3.09A10.56,10.56,0,0,1,28.39,19.82Zm0-4a14.42,14.42,0,0,0-10.3,4.27,14.56,14.56,0,1,0,10.3-4.27Z"/>
  </g>
  <path class="f" d="M28.39,17.82a10.57,10.57,0,1,1-7.48,3.09,10.56,10.56,0,0,1,7.48-3.09m0-4a14.42,14.42,0,0,0-10.3,4.27,14.56,14.56,0,1,0,10.3-4.27Z"/>
</svg>
