<svg xmlns="http://www.w3.org/2000/svg" viewBox="0 0 64 64">
  <defs>
    <style>
      .a {
        fill: #77b3d4;
      }

      .b {
        opacity: 0.2;
      }

      .c {
        fill: #231f20;
      }

      .d {
        fill: #e0e0d1;
      }

      .e {
        fill: #fff;
      }
    </style>
  </defs>
  <title>Elegant_circle-icons</title>
  <circle class="a" cx="32" cy="32" r="32"/>
  <g>
    <g class="b">
      <rect class="c" x="12" y="20" width="40" height="28" rx="4"/>
    </g>
    <rect class="d" x="12" y="18" width="40" height="28" rx="4"/>
    <g class="b">
      <path class="c" d="M35.52,30.18a4.66,4.66,0,0,0-7,0l-15.43,13a5.54,5.54,0,0,0-.46.58A3.91,3.91,0,0,0,16,46H48a3.91,3.91,0,0,0,3.41-2.19,5.54,5.54,0,0,0-.46-.58Z"/>
    </g>
    <path class="d" d="M35.52,32a5.06,5.06,0,0,0-7,0L13.05,43.55a4.24,4.24,0,0,0-.46.51A4,4,0,0,0,16,46H48a4,4,0,0,0,3.41-1.94,4.24,4.24,0,0,0-.46-.51Z"/>
    <g class="b">
      <path class="c" d="M12.59,20.19A3.91,3.91,0,0,1,16,18H48a3.91,3.91,0,0,1,3.41,2.19,5.54,5.54,0,0,1-.46.58L35.52,33.82a4.66,4.66,0,0,1-7,0Z"/>
    </g>
    <path class="e" d="M28.48,32a5.06,5.06,0,0,0,7,0L51,20.45a4.24,4.24,0,0,0,.46-.51A4,4,0,0,0,48,18H16a4,4,0,0,0-3.41,1.94,4.24,4.24,0,0,0,.46.51Z"/>
  </g>
</svg>
