<svg xmlns="http://www.w3.org/2000/svg" viewBox="0 0 64 64">
  <defs>
    <style>
      .a {
        fill: #e0995e;
      }

      .b {
        fill: #231f20;
        opacity: 0.2;
      }

      .c {
        fill: #e0e0d1;
      }

      .d {
        fill: #fff;
      }
    </style>
  </defs>
  <title>Elegant_circle-icons_2</title>
  <circle class="a" cx="32" cy="32" r="32"/>
  <polygon class="b" points="26 52 14 48 14 16 26 20 26 52"/>
  <polygon class="b" points="38 48 26 52 26 20 38 16 38 48"/>
  <polygon class="b" points="50 52 38 48 38 16 50 20 50 52"/>
  <polygon class="c" points="26 50 14 46 14 14 26 18 26 50"/>
  <polygon class="d" points="38 46 26 50 26 18 38 14 38 46"/>
  <polygon class="c" points="50 50 38 46 38 14 50 18 50 50"/>
</svg>
