<svg xmlns="http://www.w3.org/2000/svg" viewBox="0 0 64 64">
  <defs>
    <style>
      .a {
        fill: #76c2af;
      }

      .b {
        fill: #231f20;
        opacity: 0.2;
      }

      .c {
        fill: #c75c5c;
      }

      .d {
        fill: #4f5d73;
      }

      .e {
        fill: #e0e0d1;
      }

      .f {
        fill: #fff;
      }
    </style>
  </defs>
  <title>Elegant_circle-icons_3</title>
  <circle class="a" cx="32" cy="32" r="32"/>
  <path class="b" d="M24.56,41.94a1.4,1.4,0,0,1-1.35,2h-2a3,3,0,0,1-2.65-2l-3.23-10a1.4,1.4,0,0,1,1.35-2h2a3,3,0,0,1,2.65,2Z"/>
  <path class="b" d="M24,46.94a1.4,1.4,0,0,1-1.35,2h-2c-1.1,0-2-.15-2.37-1.25L14.8,36.94a1.4,1.4,0,0,1,1.35-2h2a3,3,0,0,1,2.65,2Z"/>
  <path class="c" d="M24.56,39.94a1.4,1.4,0,0,1-1.35,2h-2a3,3,0,0,1-2.65-2l-3.23-10a1.4,1.4,0,0,1,1.35-2h2a3,3,0,0,1,2.65,2Z"/>
  <path class="d" d="M24,44.94a1.4,1.4,0,0,1-1.35,2h-2a2.55,2.55,0,0,1-2.56-1.63L14.8,34.94a1.4,1.4,0,0,1,1.35-2h2a3,3,0,0,1,2.65,2Z"/>
  <path class="b" d="M48,28.94V18.5a1.5,1.5,0,0,0-3,0v1c-2.76,2.52-6.28,6.43-16,6.43H14a2,2,0,0,0-2,2,2,2,0,0,0-2,2v6a2,2,0,0,0,2,2,2,2,0,0,0,2,2H29c9.72,0,13.24,3.9,16,6.43v1.07a1.5,1.5,0,0,0,3,0V36.94a2,2,0,0,0,2-2v-4A2,2,0,0,0,48,28.94Z"/>
  <rect class="e" x="38" y="26.94" width="12" height="8" rx="2"/>
  <rect class="d" x="10" y="25.94" width="12" height="10" rx="2"/>
  <path class="f" d="M46.07,16.59c-3,2.34-6.07,7.35-17.07,7.35H16l-1,14H29c11,0,14.06,5,17.07,7.34Z"/>
  <path class="c" d="M18,37.94H14a2,2,0,0,1-2-2v-10a2,2,0,0,1,2-2h4Z"/>
  <path class="d" d="M48,45.44a1.5,1.5,0,0,1-1.5,1.5h0a1.5,1.5,0,0,1-1.5-1.5V16.5A1.5,1.5,0,0,1,46.5,15h0A1.5,1.5,0,0,1,48,16.5Z"/>
</svg>
