<svg xmlns="http://www.w3.org/2000/svg" viewBox="0 0 64 64">
  <defs>
    <style>
      .a {
        fill: #f5cf87;
      }

      .b, .e {
        opacity: 0.2;
      }

      .c, .e {
        fill: #231f20;
      }

      .d {
        fill: #4f5d73;
      }

      .f {
        fill: #c75c5c;
      }

      .g {
        fill: #e0995e;
      }
    </style>
  </defs>
  <title>Elegant_circle-icons_3</title>
  <circle class="a" cx="32" cy="32" r="32"/>
  <g class="b">
    <path class="c" d="M36.05,49a3.94,3.94,0,0,1-.84-.1L25.5,46.48A3.51,3.51,0,0,1,23,42.24l1.45-5.82a3.47,3.47,0,0,1,4.24-2.55l9.7,2.41a3.51,3.51,0,0,1,2.56,4.24l-1.45,5.82A3.5,3.5,0,0,1,36.05,49ZM27.79,36.76a.51.51,0,0,0-.48.38L25.86,43a.51.51,0,0,0,.37.61L35.93,46a.49.49,0,0,0,.61-.36L38,39.8a.51.51,0,0,0-.37-.61l-9.7-2.41Z"/>
  </g>
  <path class="d" d="M36.05,47a3.94,3.94,0,0,1-.84-.1L25.5,44.48A3.51,3.51,0,0,1,23,40.24l1.45-5.82a3.47,3.47,0,0,1,4.24-2.55l9.7,2.41a3.51,3.51,0,0,1,2.56,4.24l-1.45,5.82A3.5,3.5,0,0,1,36.05,47ZM27.79,34.76a.51.51,0,0,0-.48.38L25.86,41a.51.51,0,0,0,.37.61L35.93,44a.49.49,0,0,0,.61-.36L38,37.8a.51.51,0,0,0-.37-.61l-9.7-2.41Z"/>
  <path class="e" d="M50,21a2,2,0,0,0-2,2v-.5L13.66,29.89A2,2,0,0,0,10,31v6a2,2,0,0,0,3.66,1.11L48,45.5V45a2,2,0,0,0,4,0V23A2,2,0,0,0,50,21Z"/>
  <polygon class="f" points="48 43.5 11 35.5 11 28.5 48 20.5 48 43.5"/>
  <path class="g" d="M14,35a2,2,0,0,1-2,2h0a2,2,0,0,1-2-2V29a2,2,0,0,1,2-2h0a2,2,0,0,1,2,2Z"/>
  <path class="g" d="M52,43a2,2,0,0,1-2,2h0a2,2,0,0,1-2-2V21a2,2,0,0,1,2-2h0a2,2,0,0,1,2,2Z"/>
</svg>
