<svg xmlns="http://www.w3.org/2000/svg" viewBox="0 0 64 64">
  <defs>
    <style>
      .a {
        fill: #c75c5c;
      }

      .b {
        fill: #231f20;
        opacity: 0.2;
      }

      .c {
        fill: #4f5d73;
      }

      .d {
        fill: #e0e0d1;
      }

      .e {
        fill: #f5cf87;
      }
    </style>
  </defs>
  <title>Elegant_circle-icons_3</title>
  <circle class="a" cx="32" cy="32" r="32"/>
  <path class="b" d="M48,52a2,2,0,0,1-2,2H18a2,2,0,0,1-2-2V16a2,2,0,0,1,2-2H41c1.1,0,7,5.9,7,7Z"/>
  <path class="c" d="M48,50a2,2,0,0,1-2,2H18a2,2,0,0,1-2-2V14a2,2,0,0,1,2-2H41c1.1,0,7,5.9,7,7Z"/>
  <rect class="d" x="20" y="24" width="24" height="24" rx="2"/>
  <rect class="e" x="20" y="12" width="4" height="6"/>
  <rect class="e" x="26" y="12" width="4" height="6"/>
  <rect class="e" x="32" y="12" width="4" height="6"/>
</svg>
