<svg xmlns="http://www.w3.org/2000/svg" viewBox="0 0 64 64">
  <defs>
    <style>
      .a {
        fill: #f5cf87;
      }

      .b {
        opacity: 0.2;
      }

      .c {
        fill: #231f20;
      }

      .d {
        fill: none;
        stroke: #4f5d73;
        stroke-linecap: round;
        stroke-miterlimit: 10;
        stroke-width: 6px;
      }

      .e {
        fill: #4f5d73;
      }
    </style>
  </defs>
  <title>Elegant_circle-icons_2</title>
  <circle class="a" cx="32" cy="32" r="32"/>
  <g class="b">
    <path class="c" d="M30,58a3,3,0,0,1-3-3V22h6c0,22.15,13.44,25,13.58,25.06a3,3,0,0,1-1.16,5.88C45,52.85,38.2,51.42,33,44.16V55A3,3,0,0,1,30,58Z"/>
  </g>
  <path class="d" d="M46,48S30,44.87,30,20V53"/>
  <g class="b">
    <path class="c" d="M21.44,24c-1.47,0-1.88-1.09-.92-2.42L28.24,11a2.05,2.05,0,0,1,3.52,0l7.72,10.58c1,1.33.55,2.42-.92,2.42Z"/>
  </g>
  <path class="e" d="M21.44,22c-1.47,0-1.88-1.09-.92-2.42L28.24,9a2.05,2.05,0,0,1,3.52,0l7.72,10.58c1,1.33.55,2.42-.92,2.42Z"/>
</svg>
