<svg xmlns="http://www.w3.org/2000/svg" viewBox="0 0 64 64">
  <defs>
    <style>
      .a {
        fill: #77b3d4;
      }

      .b {
        opacity: 0.2;
      }

      .c {
        fill: #231f20;
      }

      .d {
        fill: #4f5d73;
      }

      .e {
        fill: #fff;
      }
    </style>
  </defs>
  <title>Elegant_circle-icons</title>
  <circle class="a" cx="32" cy="32" r="32"/>
  <g class="b">
    <path class="c" d="M32,41.5a6,6,0,0,0,6-6v-18a6,6,0,0,0-12,0v18A6,6,0,0,0,32,41.5Z"/>
  </g>
  <g class="b">
    <path class="c" d="M32,48.25a13,13,0,0,1-13-13V31.5a1.5,1.5,0,0,1,3,0v3.75a10,10,0,0,0,20,0V31.5a1.5,1.5,0,0,1,3,0v3.75A13,13,0,0,1,32,48.25Z"/>
  </g>
  <g class="b">
    <path class="c" d="M32,55a1.5,1.5,0,0,1-1.5-1.5v-6a1.5,1.5,0,0,1,3,0v6A1.5,1.5,0,0,1,32,55Z"/>
  </g>
  <g class="b">
    <path class="c" d="M37,56H27a1.5,1.5,0,0,1,0-3H37a1.5,1.5,0,0,1,0,3Z"/>
  </g>
  <path class="d" d="M32,39.5a6,6,0,0,0,6-6v-18a6,6,0,0,0-12,0v18A6,6,0,0,0,32,39.5Z"/>
  <path class="e" d="M32,46.25a13,13,0,0,1-13-13V29.5a1.5,1.5,0,0,1,3,0v3.75a10,10,0,0,0,20,0V29.5a1.5,1.5,0,0,1,3,0v3.75A13,13,0,0,1,32,46.25Z"/>
  <path class="e" d="M32,53a1.5,1.5,0,0,1-1.5-1.5v-6a1.5,1.5,0,0,1,3,0v6A1.5,1.5,0,0,1,32,53Z"/>
  <path class="e" d="M37,54H27a1.5,1.5,0,0,1,0-3H37a1.5,1.5,0,0,1,0,3Z"/>
</svg>
