<svg xmlns="http://www.w3.org/2000/svg" viewBox="0 0 64 64">
  <defs>
    <style>
      .a {
        fill: #f5cf87;
      }

      .b, .d {
        opacity: 0.2;
      }

      .c, .d {
        fill: #231f20;
      }

      .e {
        fill: #e0995e;
      }

      .f {
        fill: #4f5d73;
      }
    </style>
  </defs>
  <title>Elegant_circle-icons_3</title>
  <circle class="a" cx="32" cy="32" r="32"/>
  <g class="b">
    <path class="c" d="M31.27,26.71,16.2,44.2a1.71,1.71,0,0,0,0,2.44l.77.77-2,2a1.49,1.49,0,0,0,0,2.12,1.5,1.5,0,0,0,2.12,0l2-2,.56.56a1.71,1.71,0,0,0,2.44,0L39.77,35.24a11.21,11.21,0,0,1-5.5-3A11.08,11.08,0,0,1,31.27,26.71Z"/>
  </g>
  <circle class="d" cx="42.16" cy="24.84" r="9.16"/>
  <circle class="e" cx="42.16" cy="21.84" r="9.16"/>
  <g>
    <path class="f" d="M31.27,24.21,16.2,41.7a1.71,1.71,0,0,0,0,2.44l.77.77-2,2a1.49,1.49,0,0,0,0,2.12,1.5,1.5,0,0,0,2.12,0l2-2,.56.56a1.71,1.71,0,0,0,2.44,0L39.77,32.73a11.09,11.09,0,0,1-8.5-8.52Z"/>
    <path class="f" d="M48.05,28.87a18.8,18.8,0,0,1-12.5-13.38,9.17,9.17,0,0,0,12.5,13.38Z"/>
    <path class="f" d="M48.66,15.34A9.2,9.2,0,0,0,38,13.65a16.07,16.07,0,0,0,12,12.85A9.19,9.19,0,0,0,48.66,15.34Z"/>
  </g>
</svg>
