<svg xmlns="http://www.w3.org/2000/svg" viewBox="0 0 64 64">
  <defs>
    <style>
      .a {
        fill: #4f5d73;
      }

      .b {
        opacity: 0.2;
      }

      .c {
        fill: #231f20;
      }

      .d {
        fill: #76c2af;
      }

      .e {
        fill: #e0e0d1;
      }
    </style>
  </defs>
  <title>Elegant_circle-icons</title>
  <circle class="a" cx="32" cy="32" r="32"/>
  <g>
    <g class="b">
      <path class="c" d="M50,33.06a4,4,0,0,1-4-4,3.88,3.88,0,0,1,.15-1H21.88A3.88,3.88,0,0,1,22,29a4,4,0,0,1-4,4,4.09,4.09,0,0,1-1-.14v8.19A4.09,4.09,0,0,1,18,41a4,4,0,0,1,4,4,4.09,4.09,0,0,1-.14,1H46.08a4.09,4.09,0,0,1-.14-1,4,4,0,0,1,4-4,3.88,3.88,0,0,1,1,.15V32.91A3.88,3.88,0,0,1,50,33.06ZM34,43a6,6,0,1,1,6-6A6,6,0,0,1,34,43Z"/>
      <path class="c" d="M50,25H18a4.28,4.28,0,0,0-.81.08A4,4,0,0,0,14,29a3,3,0,0,0,0,.31V44.69A3,3,0,0,0,14,45a4,4,0,0,0,4,4,3,3,0,0,0,.31,0H49.66A3,3,0,0,0,50,49a4,4,0,0,0,4-3.22A4.28,4.28,0,0,0,54,45V29A4,4,0,0,0,50,25Zm0,16a4,4,0,0,0-4,4,4.09,4.09,0,0,0,.14,1H21.89A4.09,4.09,0,0,0,22,45a4,4,0,0,0-4-4,4.09,4.09,0,0,0-1,.14V32.92a4.09,4.09,0,0,0,1,.14,4,4,0,0,0,4-4,3.88,3.88,0,0,0-.15-1H46.09a3.88,3.88,0,0,0-.15,1,4,4,0,0,0,4,4,3.88,3.88,0,0,0,1-.15v8.21A3.88,3.88,0,0,0,50,41Z"/>
      <circle class="c" cx="34" cy="37" r="6"/>
    </g>
    <g>
      <rect class="d" x="15" y="24" width="38" height="22" rx="3"/>
      <path class="e" d="M50,25a2,2,0,0,1,2,2V43a2,2,0,0,1-2,2H18a2,2,0,0,1-2-2V27a2,2,0,0,1,2-2H50m0-2H18a4,4,0,0,0-4,4V43a4,4,0,0,0,4,4H50a4,4,0,0,0,4-4V27a4,4,0,0,0-4-4Z"/>
    </g>
    <circle class="a" cx="34" cy="35" r="6"/>
    <circle class="e" cx="49.97" cy="27.03" r="4.03"/>
    <circle class="e" cx="18" cy="27.03" r="4.03"/>
    <circle class="e" cx="49.97" cy="43" r="4.03"/>
    <circle class="e" cx="18" cy="43" r="4.03"/>
  </g>
  <g>
    <g class="b">
      <path class="c" d="M48,29.06a4,4,0,0,1-4-4,3.88,3.88,0,0,1,.15-1H19.88A3.88,3.88,0,0,1,20,25a4,4,0,0,1-4,4,4.09,4.09,0,0,1-1-.14v8.19A4.09,4.09,0,0,1,16,37a4,4,0,0,1,4,4,4.09,4.09,0,0,1-.14,1H44.08a4.09,4.09,0,0,1-.14-1,4,4,0,0,1,4-4,3.88,3.88,0,0,1,1,.15V28.91A3.88,3.88,0,0,1,48,29.06ZM32,39a6,6,0,1,1,6-6A6,6,0,0,1,32,39Z"/>
      <path class="c" d="M48,21H16a4.28,4.28,0,0,0-.81.08A4,4,0,0,0,12,25a3,3,0,0,0,0,.31V40.69A3,3,0,0,0,12,41a4,4,0,0,0,4,4,3,3,0,0,0,.31,0H47.66A3,3,0,0,0,48,45a4,4,0,0,0,4-3.22A4.28,4.28,0,0,0,52,41V25A4,4,0,0,0,48,21Zm0,16a4,4,0,0,0-4,4,4.09,4.09,0,0,0,.14,1H19.89A4.09,4.09,0,0,0,20,41a4,4,0,0,0-4-4,4.09,4.09,0,0,0-1,.14V28.92a4.09,4.09,0,0,0,1,.14,4,4,0,0,0,4-4,3.88,3.88,0,0,0-.15-1H44.09a3.88,3.88,0,0,0-.15,1,4,4,0,0,0,4,4,3.88,3.88,0,0,0,1-.15v8.21A3.88,3.88,0,0,0,48,37Z"/>
      <circle class="c" cx="32" cy="33" r="6"/>
    </g>
    <g>
      <rect class="d" x="11" y="20" width="38" height="22" rx="3"/>
      <path class="e" d="M46,21a2,2,0,0,1,2,2V39a2,2,0,0,1-2,2H14a2,2,0,0,1-2-2V23a2,2,0,0,1,2-2H46m0-2H14a4,4,0,0,0-4,4V39a4,4,0,0,0,4,4H46a4,4,0,0,0,4-4V23a4,4,0,0,0-4-4Z"/>
    </g>
    <circle class="a" cx="30" cy="31" r="6"/>
    <circle class="e" cx="45.97" cy="23.03" r="4.03"/>
    <circle class="e" cx="14" cy="23.03" r="4.03"/>
    <circle class="e" cx="45.97" cy="39" r="4.03"/>
    <circle class="e" cx="14" cy="39" r="4.03"/>
  </g>
</svg>
