<svg xmlns="http://www.w3.org/2000/svg" viewBox="0 0 64 64">
  <defs>
    <style>
      .a, .d {
        opacity: 0.2;
      }

      .b, .d {
        fill: #231f20;
      }

      .c {
        fill: #76c2af;
      }

      .e {
        fill: #4f5d73;
      }

      .f, .g, .h {
        fill: none;
        stroke-linecap: round;
        stroke-linejoin: round;
        stroke-width: 3px;
      }

      .f {
        stroke: #fff;
      }

      .g {
        stroke: #f5cf87;
      }

      .h {
        stroke: #c75c5c;
      }

      .i {
        fill: #e0995e;
      }
    </style>
  </defs>
  <title>Elegant_circle-icons_2</title>
  <g class="a">
    <path class="b" d="M44,56H30a2,2,0,0,1,0-4H44a2,2,0,0,1,0,4Z"/>
  </g>
  <circle class="c" cx="32" cy="32" r="32"/>
  <path class="d" d="M17,33a6,6,0,1,1-6,6,6,6,0,0,1,6-6m0-3a9,9,0,1,0,9,9,9,9,0,0,0-9-9Z"/>
  <path class="d" d="M47,33a6,6,0,1,1-6,6,6,6,0,0,1,6-6m0-3a9,9,0,1,0,9,9,9,9,0,0,0-9-9Z"/>
  <path class="e" d="M17,31a6,6,0,1,1-6,6,6,6,0,0,1,6-6m0-3a9,9,0,1,0,9,9,9,9,0,0,0-9-9Z"/>
  <path class="e" d="M47,31a6,6,0,1,1-6,6,6,6,0,0,1,6-6m0-3a9,9,0,1,0,9,9,9,9,0,0,0-9-9Z"/>
  <g class="a">
    <path class="b" d="M33,40H18a1.5,1.5,0,0,1,0-3H32.5l1.6-1.2a1.5,1.5,0,1,1,1.8,2.4l-2,1.5A1.54,1.54,0,0,1,33,40Z"/>
  </g>
  <polyline class="f" points="18 36.5 33 36.5 35 35"/>
  <line class="g" x1="43" y1="21.15" x2="44" y2="23"/>
  <g class="a">
    <path class="b" d="M55,32.39A1.46,1.46,0,0,1,54,32c-5.23-4.35-11.39-1.8-11.45-1.77a1.5,1.5,0,1,1-1.18-2.76c.32-.13,7.92-3.29,14.55,2.23a1.49,1.49,0,0,1,.19,2.11A1.47,1.47,0,0,1,55,32.39Z"/>
  </g>
  <g class="a">
    <path class="b" d="M26,28.39H21.43c8.79,10.28,15.57,4,15.57,4C37,29.47,32,28.39,26,28.39Z"/>
  </g>
  <g class="a">
    <path class="b" d="M32.38,36c-3.34,0-6.87-2-10.49-6.07H14A7.64,7.64,0,0,0,9.89,31.1,1.5,1.5,0,0,1,8.1,28.69a10.55,10.55,0,0,1,5.9-1.8H26c10.33,0,12.5,3,12.5,5.5a1.54,1.54,0,0,1-.31.92A7.59,7.59,0,0,1,32.7,36Zm-6.27-6.08C28.45,32,30.66,33,32.58,33a4.72,4.72,0,0,0,2.77-1C34.67,30.88,31.72,29.91,26.11,29.89Z"/>
  </g>
  <path class="h" d="M42,26s7-3,13,2"/>
  <path class="i" d="M26,25.5H21.43c8.79,10.28,15.57,4,15.57,4C37,26.57,32,25.5,26,25.5Z"/>
  <path class="h" d="M9,27a9,9,0,0,1,5-1.5H26c6,0,11,1.07,11,4,0,0-5,6.5-14-3.5"/>
  <g class="a">
    <path class="b" d="M47,40.5a1.49,1.49,0,0,1-1.32-.79L36.11,22H32a1.5,1.5,0,0,1,0-3h5a1.49,1.49,0,0,1,1.32.79l10,18.5A1.5,1.5,0,0,1,47,40.5Z"/>
  </g>
  <polyline class="f" points="32 18.5 37 18.5 47 37"/>
</svg>
