<svg xmlns="http://www.w3.org/2000/svg" viewBox="0 0 64 64">
  <defs>
    <style>
      .a {
        fill: #76c2af;
      }

      .b {
        opacity: 0.2;
      }

      .c {
        fill: #231f20;
      }

      .d {
        fill: #fff;
      }
    </style>
  </defs>
  <title>Elegant_circle-icons</title>
  <circle class="a" cx="32" cy="32" r="32"/>
  <g class="b">
    <path class="c" d="M13.85,49.42c1.6,2.07,4.89,2.21,7.36.3,1-.77,2.79-2.88,2.79-7.19V29.19l19-3.62V34a3.71,3.71,0,0,1-3.21,3.81l-.21,0H39.5a6.37,6.37,0,0,0-2.76,1.23c-2.47,1.91-3.19,5.13-1.59,7.2s4.89,2.21,7.36.3A7,7,0,0,0,45,40.84V18.51A1.53,1.53,0,0,0,42.87,17l-19.2,3.63A2.72,2.72,0,0,0,22,23.44v13a4.85,4.85,0,0,1-3.55,4.5l-.12,0-.17,0h0a6.4,6.4,0,0,0-2.74,1.22C13,44.13,12.26,47.35,13.85,49.42Z"/>
  </g>
  <path class="d" d="M13.85,47.42c1.6,2.07,4.89,2.21,7.36.3,1-.77,2.79-2.88,2.79-7.19V27.19l19-3.62V32a3.71,3.71,0,0,1-3.21,3.81l-.21,0H39.5a6.37,6.37,0,0,0-2.76,1.23c-2.47,1.91-3.19,5.13-1.59,7.2s4.89,2.21,7.36.3A7,7,0,0,0,45,38.84V16.51A1.53,1.53,0,0,0,42.87,15l-19.2,3.63A2.72,2.72,0,0,0,22,21.44v13a4.85,4.85,0,0,1-3.55,4.5l-.12,0-.17,0h0a6.4,6.4,0,0,0-2.74,1.22C13,42.13,12.26,45.35,13.85,47.42Z"/>
</svg>
