<svg xmlns="http://www.w3.org/2000/svg" viewBox="0 0 64 64">
  <defs>
    <style>
      .a {
        fill: #e0e0d1;
      }

      .b {
        fill: #4f5d73;
      }

      .c {
        fill: #231f20;
        opacity: 0.2;
      }

      .d {
        fill: #e0995e;
      }

      .e {
        fill: #fff;
      }

      .f {
        fill: #c75c5c;
      }
    </style>
  </defs>
  <title>Elegant_circle-icons_3</title>
  <circle class="a" cx="32" cy="32" r="32"/>
  <rect class="b" x="17" y="12" width="30" height="26" rx="2"/>
  <path class="c" d="M17,36v4a2,2,0,0,0,2,2h7a2.94,2.94,0,0,1,3,3,17.77,17.77,0,0,1-1,6.83l-.06.13,0,0h0a4.33,4.33,0,0,0-.31,1.62,4.38,4.38,0,0,0,8.76,0A4.33,4.33,0,0,0,36.07,52h0l0,0L36,51.83A17.77,17.77,0,0,1,35,45a3,3,0,0,1,3-3h7a2,2,0,0,0,2-2V36Z"/>
  <path class="d" d="M17,34v4a2,2,0,0,0,2,2h7a2.94,2.94,0,0,1,3,3,17.77,17.77,0,0,1-1,6.83l-.06.13,0,0h0a4.33,4.33,0,0,0-.31,1.62,4.38,4.38,0,0,0,8.76,0A4.33,4.33,0,0,0,36.07,50h0l0,0L36,49.83A17.77,17.77,0,0,1,35,43a3,3,0,0,1,3-3h7a2,2,0,0,0,2-2V34Z"/>
  <rect class="c" x="17" y="31" width="30" height="6"/>
  <rect class="e" x="17" y="29" width="30" height="6"/>
  <path class="c" d="M45,14H19a2,2,0,0,0-2,2V26H30.5A1.5,1.5,0,0,1,32,27.5a1.5,1.5,0,0,0,3,0,1.5,1.5,0,0,1,3,0v3a1.5,1.5,0,0,0,3,0v-3a1.5,1.5,0,0,1,3,0v1a1.5,1.5,0,0,0,3,0V16A2,2,0,0,0,45,14Z"/>
  <path class="f" d="M47,26.5A1.5,1.5,0,0,1,45.5,28h0A1.5,1.5,0,0,1,44,26.5v-6A1.5,1.5,0,0,1,45.5,19h0A1.5,1.5,0,0,1,47,20.5Z"/>
  <path class="f" d="M41,28.5A1.5,1.5,0,0,1,39.5,30h0A1.5,1.5,0,0,1,38,28.5v-6A1.5,1.5,0,0,1,39.5,21h0A1.5,1.5,0,0,1,41,22.5Z"/>
  <path class="f" d="M44,21a1.5,1.5,0,0,1-1.5,1.5V23c-.83,0-1.5-1.17-1.5-2v4.5A1.5,1.5,0,0,1,42.5,24h0A1.5,1.5,0,0,1,44,25.5Z"/>
  <path class="f" d="M35,25.5A1.5,1.5,0,0,1,33.5,27h0A1.5,1.5,0,0,1,32,25.5v-6A1.5,1.5,0,0,1,33.5,18h0A1.5,1.5,0,0,1,35,19.5Z"/>
  <path class="f" d="M38,21a1.5,1.5,0,0,1-1.5,1.5V23c-.83,0-1.5-1.17-1.5-2v4.5A1.5,1.5,0,0,1,36.5,24h0A1.5,1.5,0,0,1,38,25.5Z"/>
  <path class="f" d="M32,21a1.5,1.5,0,0,1-1.5,1.5V23c-.83,0,0-1.17,0-2v2c0-.83-.83,1,0,1h0A1.5,1.5,0,0,1,32,25.5Z"/>
  <g>
    <path class="f" d="M47,14a2,2,0,0,0-2-2H19a2,2,0,0,0-2,2v4H47Z"/>
    <path class="f" d="M17,14V24H45a2,2,0,0,0,2-2V18Z"/>
  </g>
</svg>
