<svg xmlns="http://www.w3.org/2000/svg" viewBox="0 0 64 64">
  <defs>
    <style>
      .a {
        fill: #e0e0d1;
      }

      .b {
        fill: #231f20;
        opacity: 0.2;
      }

      .c {
        fill: #e0995e;
      }

      .d {
        fill: #c75c5c;
      }

      .e {
        fill: #4f5d73;
      }
    </style>
  </defs>
  <title>Elegant_circle-icons_3</title>
  <circle class="a" cx="32" cy="32" r="32"/>
  <path class="b" d="M49.87,16.13c-1.94-1.93-13,6-19.88,12.88-3.36,3.36-5.06,5.82-5.69,7.68a7.56,7.56,0,0,0-5.91,2.08A7.94,7.94,0,0,0,16.49,42C15.73,44.21,15,47,12,49c2.24,2.24,11,2.86,15.23-1.38a6.85,6.85,0,0,0,1.14-1.53,7.66,7.66,0,0,0,.93-4.38c1.86-.62,4.32-2.32,7.69-5.69C43.83,29.17,51.8,18.07,49.87,16.13Z"/>
  <path class="c" d="M30,27c-6.83,6.83-6.81,9.94-4.87,11.87s5,2,11.87-4.87S51.8,16.07,49.87,14.13,36.83,20.17,30,27Z"/>
  <g>
    <path class="d" d="M12,47c2.24,2.24,11,2.86,15.23-1.38a6.85,6.85,0,0,0,1.14-1.53c-6.64-.2-10.14-2.41-11.88-4.1C15.73,42.21,15,45,12,47Z"/>
    <path class="e" d="M27.76,36.24c-2.44-2.44-6.93-1.91-9.37.53A7.94,7.94,0,0,0,16.49,40c1.74,1.69,5.13,6.94,11.88,4.1C29.76,41.59,29.75,38.23,27.76,36.24Z"/>
  </g>
  <path class="d" d="M16.49,40s4-.77,5.94,2.05,5.94,2,5.94,2L23.17,47,18,43.17Z"/>
</svg>
