<svg xmlns="http://www.w3.org/2000/svg" viewBox="0 0 64 64">
  <defs>
    <style>
      .a {
        fill: #e0e0d1;
      }

      .b {
        fill: #231f20;
        opacity: 0.2;
      }

      .c {
        fill: none;
        stroke: #4f5d73;
        stroke-linecap: round;
        stroke-miterlimit: 10;
        stroke-width: 4px;
      }

      .d {
        fill: #c75c5c;
      }

      .e {
        fill: #e0995e;
      }
    </style>
  </defs>
  <title>Elegant_circle-icons_3</title>
  <circle class="a" cx="32" cy="32" r="32"/>
  <path class="b" d="M52,17H20a2,2,0,0,0-2,2v2H14a4,4,0,0,0-4,4v7a4,4,0,0,0,4,4H32V55a2,2,0,0,0,4,0V36a4,4,0,0,0-4-4H14V25h4v2a2,2,0,0,0,2,2H37.5A1.5,1.5,0,0,1,39,30.5a1.5,1.5,0,0,0,3,0,1.5,1.5,0,0,1,3,0v3a1.5,1.5,0,0,0,3,0v-3a1.5,1.5,0,0,1,3,0v1a1.5,1.5,0,0,0,3,0V19A2,2,0,0,0,52,17Z"/>
  <path class="c" d="M34,53V34a2,2,0,0,0-2-2H14a2,2,0,0,1-2-2V23a2,2,0,0,1,2-2H32"/>
  <path class="d" d="M54,29.5A1.5,1.5,0,0,1,52.5,31h0A1.5,1.5,0,0,1,51,29.5v-6A1.5,1.5,0,0,1,52.5,22h0A1.5,1.5,0,0,1,54,23.5Z"/>
  <path class="d" d="M48,31.5A1.5,1.5,0,0,1,46.5,33h0A1.5,1.5,0,0,1,45,31.5v-6A1.5,1.5,0,0,1,46.5,24h0A1.5,1.5,0,0,1,48,25.5Z"/>
  <path class="d" d="M51,24a1.5,1.5,0,0,1-1.5,1.5V26c-.83,0-1.5-1.17-1.5-2v4.5A1.5,1.5,0,0,1,49.5,27h0A1.5,1.5,0,0,1,51,28.5Z"/>
  <path class="d" d="M42,28.5A1.5,1.5,0,0,1,40.5,30h0A1.5,1.5,0,0,1,39,28.5v-6A1.5,1.5,0,0,1,40.5,21h0A1.5,1.5,0,0,1,42,22.5Z"/>
  <path class="d" d="M45,24a1.5,1.5,0,0,1-1.5,1.5V26c-.83,0-1.5-1.17-1.5-2v4.5A1.5,1.5,0,0,1,43.5,27h0A1.5,1.5,0,0,1,45,28.5Z"/>
  <path class="d" d="M39,24a1.5,1.5,0,0,1-1.5,1.5V26c-.83,0-1.5-1.17-1.5-2v2c0-.83.67,1,1.5,1h0A1.5,1.5,0,0,1,39,28.5Z"/>
  <g>
    <path class="e" d="M54,17a2,2,0,0,0-2-2H20a2,2,0,0,0-2,2v4H54Z"/>
    <path class="d" d="M18,17v8a2,2,0,0,0,2,2H52a2,2,0,0,0,2-2V21Z"/>
  </g>
</svg>
