<svg xmlns="http://www.w3.org/2000/svg" viewBox="0 0 64 64">
  <defs>
    <style>
      .a {
        fill: #77b3d4;
      }

      .b, .e {
        fill: #231f20;
      }

      .b, .d {
        opacity: 0.2;
      }

      .c {
        fill: #4f5d73;
      }

      .f {
        fill: #c75c5c;
      }

      .g {
        fill: #fff;
      }

      .h {
        fill: #e0e0d1;
      }
    </style>
  </defs>
  <title>Elegant_circle-icons_2</title>
  <circle class="a" cx="32" cy="32" r="32"/>
  <path class="b" d="M32,55.11a1.48,1.48,0,0,1-1-.41L8,32l4-2L32,51.55,54.57,30.89c.17.22-.18-2,0-1.62.25.55,1.12,2.28,1.43,2.73L33,54.7A1.48,1.48,0,0,1,32,55.11Z"/>
  <path class="c" d="M32,53.5a1.52,1.52,0,0,1-1-.41L8,32l4.29,0L32,49.94,54.57,29.27a7.39,7.39,0,0,1,.6,1.17A11.43,11.43,0,0,0,56,32L33,53.09A1.52,1.52,0,0,1,32,53.5Z"/>
  <g class="d">
    <path class="e" d="M46,31c-.07-.51-.7-.84-1-1s-1.25,2-1.5,2c-.55,0-.62.54-.88,1L32,51.76,21.38,33c-.26-.49.17-3-.38-3-.25,0-.78-1.12-1-1s-.93-.51-1,0-3.21-.39-3,0L30,54.32A23.51,23.51,0,0,1,34.24,54L47,31C47.21,30.61,46.07,31.51,46,31Z"/>
  </g>
  <path class="c" d="M32,53.5a1.49,1.49,0,0,1-1.32-.79L19,32c-.21-.39.14-1.19.21-1.7a1.36,1.36,0,0,1,.58-1.05,1.47,1.47,0,0,1,.71-.18c.55,0,.62.54.88,1L32,48.83,42.62,30.1c.26-.49.33-1,.88-1a1.47,1.47,0,0,1,.71.18,1.36,1.36,0,0,1,.58,1.05c.07.51.42,1.31.21,1.7L33.32,52.71A1.49,1.49,0,0,1,32,53.5Z"/>
  <g class="d">
    <path class="e" d="M45,34h8.82L56,32A24.08,24.08,0,0,0,32,10C39.18,10,45,20.75,45,34Z"/>
    <path class="e" d="M32,10C19.57,10,9.23,19.9,8,32l2.18,2H19C19,20.75,24.82,10,32,10Z"/>
    <path class="e" d="M19,34H45c0-13.25-5.82-24-13-24S19,20.75,19,34Z"/>
  </g>
  <g>
    <path class="f" d="M45,32H56A24,24,0,0,0,32,8C39.18,8,45,18.75,45,32Z"/>
    <path class="f" d="M32,8A24,24,0,0,0,8,32H19C19,18.75,24.82,8,32,8Z"/>
    <path class="g" d="M19,32H45C45,18.75,39.18,8,32,8S19,18.75,19,32Z"/>
  </g>
  <g class="d">
    <circle class="e" cx="32" cy="54" r="4"/>
  </g>
  <circle class="h" cx="32" cy="52" r="4"/>
</svg>
