<svg xmlns="http://www.w3.org/2000/svg" viewBox="0 0 64 64">
  <defs>
    <style>
      .a {
        fill: #77b3d4;
      }

      .b {
        opacity: 0.2;
      }

      .c {
        fill: #231f20;
      }

      .d {
        fill: #c75c5c;
      }

      .e {
        fill: #e0995e;
      }

      .f {
        fill: #f5cf87;
      }

      .g {
        fill: #4f5d73;
      }

      .h {
        fill: #fff;
      }
    </style>
  </defs>
  <title>Elegant_circle-icons</title>
  <circle class="a" cx="32" cy="32" r="32"/>
  <g class="b">
    <path class="c" d="M37,14H27a3,3,0,0,0-3,3V46l5.33,8L32,58l2.67-4L40,46V17A3,3,0,0,0,37,14Z"/>
  </g>
  <rect class="d" x="24" y="12" width="16" height="12" rx="3"/>
  <rect class="e" x="24" y="20" width="4" height="24"/>
  <rect class="f" x="28" y="20" width="8" height="26"/>
  <rect class="e" x="36" y="20" width="4" height="24"/>
  <g>
    <polygon class="g" points="32 56 34.67 52 29.33 52 32 56"/>
    <polygon class="h" points="24 44 29.33 52 34.67 52 40 44 38 44 36 42 32 46 28 42 26 44 24 44"/>
  </g>
</svg>
