<svg xmlns="http://www.w3.org/2000/svg" viewBox="0 0 64 64">
  <defs>
    <style>
      .a {
        fill: #77b3d4;
      }

      .b {
        opacity: 0.2;
      }

      .c {
        fill: #231f20;
      }

      .d {
        fill: #fff;
      }
    </style>
  </defs>
  <title>Elegant_circle-icons</title>
  <circle class="a" cx="32" cy="32" r="32"/>
  <g class="b">
    <path class="c" d="M29,25.34c-.41-4.79-5.42-7.14-5.63-7.24A1.06,1.06,0,0,0,22.7,18c-5.78.95-6.64,4.31-6.68,4.45a1.07,1.07,0,0,0,0,.59C22.93,44.43,37.24,48.39,42,49.69c.36.1.66.18.88.26a1.33,1.33,0,0,0,.34,0,1,1,0,0,0,.45-.1c.15-.06,3.54-1.67,4.38-6.89a1.11,1.11,0,0,0-.11-.67,10.32,10.32,0,0,0-6.78-4.72,1.07,1.07,0,0,0-1,.23c-1.55,1.33-3.7,2.74-4.63,2.89-6.22-3-9.69-8.87-9.82-10-.07-.62,1.35-2.81,3-4.58A1.08,1.08,0,0,0,29,25.34Z"/>
  </g>
  <path class="d" d="M29,23.34c-.41-4.79-5.42-7.14-5.63-7.24A1.06,1.06,0,0,0,22.7,16c-5.78.95-6.64,4.31-6.68,4.45a1.07,1.07,0,0,0,0,.59C22.93,42.43,37.24,46.39,42,47.69c.36.1.66.18.88.26a1.33,1.33,0,0,0,.34,0,1,1,0,0,0,.45-.1c.15-.06,3.54-1.67,4.38-6.89a1.11,1.11,0,0,0-.11-.67,10.32,10.32,0,0,0-6.78-4.72,1.07,1.07,0,0,0-1,.23c-1.55,1.33-3.7,2.74-4.63,2.89-6.22-3-9.69-8.87-9.82-10-.07-.62,1.35-2.81,3-4.58A1.08,1.08,0,0,0,29,23.34Z"/>
</svg>
