<svg xmlns="http://www.w3.org/2000/svg" viewBox="0 0 64 64">
  <defs>
    <style>
      .a {
        fill: #4f5d73;
      }

      .b {
        fill: #c75c5c;
      }

      .c {
        fill: #f5cf87;
      }

      .d {
        fill: #76c2af;
      }

      .e {
        opacity: 0.2;
      }

      .f {
        fill: #231f20;
      }

      .g {
        fill: #e0e0d1;
      }

      .h {
        fill: #77b3d4;
      }
    </style>
  </defs>
  <title>Elegant_circle-icons</title>
  <circle class="a" cx="32" cy="32" r="32"/>
  <path class="b" d="M16,36a2,2,0,0,1-2,2h0a2,2,0,0,1-2-2V34a2,2,0,0,1,2-2h0a2,2,0,0,1,2,2Z"/>
  <path class="c" d="M24,28a2,2,0,0,1-2,2h0a2,2,0,0,1-2-2V26a2,2,0,0,1,2-2h0a2,2,0,0,1,2,2Z"/>
  <path class="c" d="M44,28a2,2,0,0,1-2,2h0a2,2,0,0,1-2-2V26a2,2,0,0,1,2-2h0a2,2,0,0,1,2,2Z"/>
  <path class="d" d="M48,36a2,2,0,0,0,2,2h0a2,2,0,0,0,2-2V34a2,2,0,0,0-2-2h0a2,2,0,0,0-2,2Z"/>
  <g class="e">
    <path class="f" d="M32,32.59l17,4.8c2.89.86,3-.41,3-2.4v1.2c0-2,.09-3.35-1.75-4.48L32,23,13.75,31.71C11.91,32.84,12,34.21,12,36.19V35c0,2,.11,3.26,3,2.4Z"/>
  </g>
  <path class="g" d="M32,30.59l17,4.8c2.89.86,3-.41,3-2.4v1.2c0-2,.09-3.35-1.75-4.48L32,21,13.75,29.71C11.91,30.84,12,32.21,12,34.19V33c0,2,.11,3.26,3,2.4Z"/>
  <g>
    <path class="g" d="M52,33.36v0Z"/>
    <path class="g" d="M52,33.46v0Z"/>
    <g class="e">
      <polygon class="f" points="32 21 26.98 23.4 27.42 31.89 32 30.59 36.58 31.89 37.02 23.4 32 21"/>
    </g>
  </g>
  <path class="g" d="M35,43.62c0,1.59-.34,2.88-2,2.88H31c-1.66,0-2-1.29-2-2.88L28,16.76C28,15.17,30.34,10,32,10h0c1.66,0,4,5.17,4,6.76Z"/>
  <g class="e">
    <path class="f" d="M43,48.85,32,42,21,48.85c-1.15.91-1,2.29-1,3.91a1.34,1.34,0,0,0,2,1.12L32,50l10,3.88a1.34,1.34,0,0,0,2-1.12C44,51.14,44.14,49.76,43,48.85Z"/>
  </g>
  <path class="g" d="M43,46.85,32,40,21,46.85c-1.15.91-1,2.29-1,3.91a1.34,1.34,0,0,0,2,1.12L32,48l10,3.88a1.34,1.34,0,0,0,2-1.12C44,49.14,44.14,47.76,43,46.85Z"/>
  <g class="e">
    <path class="f" d="M34,51a2,2,0,0,1-2,2h0a2,2,0,0,1-2-2V46a2,2,0,0,1,2-2h0a2,2,0,0,1,2,2Z"/>
  </g>
  <path class="g" d="M34,49a2,2,0,0,1-2,2h0a2,2,0,0,1-2-2V44a2,2,0,0,1,2-2h0a2,2,0,0,1,2,2Z"/>
  <path class="h" d="M32,16c1.16,0,2.18-1.22,2.71-3-.8-1.57-1.85-3-2.71-3s-1.91,1.4-2.71,3C29.82,14.78,30.84,16,32,16Z"/>
</svg>
