<svg xmlns="http://www.w3.org/2000/svg" viewBox="0 0 64 64">
  <defs>
    <style>
      .a {
        fill: #c75c5c;
      }

      .b, .d {
        fill: #231f20;
      }

      .b, .c {
        opacity: 0.2;
      }

      .e {
        fill: #e0e0d1;
      }

      .f {
        fill: #f5cf87;
      }
    </style>
  </defs>
  <title>Elegant_circle-icons_3</title>
  <circle class="a" cx="32" cy="32" r="32"/>
  <path class="b" d="M32,16A18,18,0,1,1,14,34,18,18,0,0,1,32,16m0-4A22,22,0,1,0,54,34,22,22,0,0,0,32,12Z"/>
  <g class="c">
    <path class="d" d="M28,44.62a2,2,0,0,1-1-.27,2,2,0,0,1-1-1.73V25.38a2,2,0,0,1,3-1.73l12,8.62a2,2,0,0,1,0,3.46L29,44.35A2,2,0,0,1,28,44.62Z"/>
  </g>
  <path class="e" d="M32,14A18,18,0,1,1,14,32,18,18,0,0,1,32,14m0-4A22,22,0,1,0,54,32,22,22,0,0,0,32,10Z"/>
  <path class="f" d="M28,42.62a2,2,0,0,1-1-.27,2,2,0,0,1-1-1.73V23.38a2,2,0,0,1,3-1.73l12,8.62a2,2,0,0,1,0,3.46L29,42.35A2,2,0,0,1,28,42.62Z"/>
</svg>
