<svg xmlns="http://www.w3.org/2000/svg" viewBox="0 0 64 64">
  <defs>
    <style>
      .a {
        fill: #76c2af;
      }

      .b {
        fill: #231f20;
        opacity: 0.2;
      }

      .c {
        fill: #4f5d73;
      }

      .d {
        fill: #e0e0d1;
      }
    </style>
  </defs>
  <title>Elegant_circle-icons_3</title>
  <circle class="a" cx="32" cy="32" r="32"/>
  <path class="b" d="M18.41,50.41a2,2,0,0,1-2.82,0h0a2,2,0,0,1,0-2.82l9.9-9.9a2,2,0,0,1,2.82,0h0a2,2,0,0,1,0,2.82Z"/>
  <path class="b" d="M31.14,26.37a2,2,0,0,1-2.83,0h0a2,2,0,0,1,0-2.83l9.9-9.9a2,2,0,0,1,2.83,0h0a2,2,0,0,1,0,2.83Z"/>
  <path class="b" d="M42.46,37.69a2,2,0,0,1-2.83,0h0a2,2,0,0,1,0-2.83l9.9-9.9a2,2,0,0,1,2.83,0h0a2,2,0,0,1,0,2.83Z"/>
  <path class="c" d="M18.41,48.41a2,2,0,0,1-2.82,0h0a2,2,0,0,1,0-2.82l9.9-9.9a2,2,0,0,1,2.82,0h0a2,2,0,0,1,0,2.82Z"/>
  <path class="d" d="M31.14,24.37a2,2,0,0,1-2.83,0h0a2,2,0,0,1,0-2.83l9.9-9.9a2,2,0,0,1,2.83,0h0a2,2,0,0,1,0,2.83Z"/>
  <path class="d" d="M42.46,35.69a2,2,0,0,1-2.83,0h0a2,2,0,0,1,0-2.83l9.9-9.9a2,2,0,0,1,2.83,0h0a2,2,0,0,1,0,2.83Z"/>
  <path class="b" d="M27.87,19.35l-8,8a11,11,0,0,0,0,15.56l2.83,2.83a11,11,0,0,0,15.55,0l8-8.05Z"/>
  <path class="c" d="M27.87,17.74l-8,8.05a11,11,0,0,0,0,15.55l2.83,2.83a11,11,0,0,0,15.55,0l8-8Z"/>
  <path class="b" d="M48.11,40.41a2,2,0,0,1-2.83,0L25.49,20.62a2,2,0,0,1,0-2.83h0a2,2,0,0,1,2.82,0l19.8,19.8a2,2,0,0,1,0,2.82Z"/>
  <path class="c" d="M48.11,38.51a2,2,0,0,1-2.83,0L25.49,18.72a2,2,0,0,1,0-2.83h0a2,2,0,0,1,2.82,0l19.8,19.8a2,2,0,0,1,0,2.82Z"/>
</svg>
