<svg xmlns="http://www.w3.org/2000/svg" viewBox="0 0 64 64">
  <defs>
    <style>
      .a {
        fill: #c75c5c;
      }

      .b {
        opacity: 0.2;
      }

      .c {
        fill: #231f20;
      }

      .d {
        fill: #e0e0d1;
      }

      .e {
        fill: #4f5d73;
      }

      .f {
        fill: #fff;
      }

      .g {
        fill: #77b3d4;
      }
    </style>
  </defs>
  <title>Elegant_circle-icons_3</title>
  <circle class="a" cx="32" cy="32" r="32"/>
  <g class="b">
    <path class="c" d="M52.24,22,27.93,17.7a1.76,1.76,0,0,0-2,1.43L20.94,46.91a1.76,1.76,0,0,0,1.43,2l24.31,4.32a1.75,1.75,0,0,0,2-1.42l4.94-27.78A1.76,1.76,0,0,0,52.24,22Zm-23.9-1.56,22.56,4L47,46.18l-22.57-4Z"/>
  </g>
  <path class="d" d="M52.55,20.29,28.24,16a1.77,1.77,0,0,0-2,1.43L21.25,45.17a1.76,1.76,0,0,0,1.43,2L47,51.54a1.76,1.76,0,0,0,2-1.43L54,22.33A1.76,1.76,0,0,0,52.55,20.29ZM28.64,18.72l22.57,4-3.86,21.7-22.57-4Z"/>
  <rect class="e" x="26.98" y="20.12" width="22.04" height="22.92" transform="translate(0.25 63.46) rotate(-79.91)"/>
  <g class="b">
    <path class="c" d="M37.64,15l-24.22,4.8A1.77,1.77,0,0,0,12,21.84l5.49,27.68a1.76,1.76,0,0,0,2.07,1.38l24.22-4.8A1.77,1.77,0,0,0,45.2,44L39.71,16.35A1.76,1.76,0,0,0,37.64,15ZM14.8,22.19l22.49-4.46,4.28,21.62L19.09,43.81Z"/>
  </g>
  <path class="f" d="M36.06,13l-24.21,4.8a1.77,1.77,0,0,0-1.39,2.08L16,47.58A1.76,1.76,0,0,0,18,49l24.22-4.8a1.76,1.76,0,0,0,1.38-2.07L38.14,14.42A1.77,1.77,0,0,0,36.06,13ZM13.23,20.26,35.71,15.8,40,37.42,17.51,41.88Z"/>
  <rect class="g" x="15.15" y="17.82" width="22.92" height="22.04" transform="translate(-5.1 5.73) rotate(-11.21)"/>
</svg>
