<svg xmlns="http://www.w3.org/2000/svg" viewBox="0 0 64 64">
  <defs>
    <style>
      .a {
        fill: #c75c5c;
      }

      .b {
        opacity: 0.2;
      }

      .c {
        fill: #231f20;
      }

      .d {
        fill: none;
        stroke: #fff;
        stroke-linecap: round;
        stroke-miterlimit: 10;
        stroke-width: 4px;
      }
    </style>
  </defs>
  <title>Elegant_circle-icons_3</title>
  <circle class="a" cx="32" cy="32" r="32"/>
  <g class="b">
    <path class="c" d="M32,52a18,18,0,0,1-9.1-33.53,2,2,0,1,1,2,3.45,14,14,0,1,0,13.9-.15,2,2,0,1,1,2-3.49A18,18,0,0,1,32,52Z"/>
  </g>
  <g class="b">
    <path class="c" d="M32,36a2,2,0,0,1-2-2V14a2,2,0,0,1,4,0V34A2,2,0,0,1,32,36Z"/>
  </g>
  <path class="d" d="M39.8,18a16,16,0,1,1-15.89.16"/>
  <line class="d" x1="32" y1="32" x2="32" y2="12"/>
</svg>
