<svg xmlns="http://www.w3.org/2000/svg" viewBox="0 0 64 64">
  <defs>
    <style>
      .a {
        fill: #76c2af;
      }

      .b {
        opacity: 0.2;
      }

      .c {
        fill: #231f20;
      }

      .d {
        fill: #c75c5c;
      }

      .e {
        fill: #f5cf87;
      }
    </style>
  </defs>
  <title>Elegant_circle-icons</title>
  <circle class="a" cx="32" cy="32" r="32"/>
  <g class="b">
    <rect class="c" x="12" y="14" width="40" height="40" rx="4"/>
  </g>
  <rect class="d" x="12" y="12" width="40" height="40" rx="4"/>
  <g class="b">
    <rect class="c" x="24" y="14" width="4" height="40"/>
  </g>
  <g class="b">
    <rect class="c" x="12" y="30" width="40" height="4"/>
  </g>
  <rect class="e" x="24" y="12" width="4" height="40"/>
  <rect class="e" x="12" y="28" width="40" height="4"/>
  <g class="b">
    <path class="c" d="M36,22A6.42,6.42,0,0,0,27,22c-1.83,1.83-2,4.55-1.95,7.55-.63-.29-4.85-2.38-5.27-6.19a1.5,1.5,0,0,0-3,.33,10.55,10.55,0,0,0,4.8,7.3c-2.24.09-4.22.49-5.66,1.93A6.43,6.43,0,0,0,25,42c1.72-1.72,2-4.23,2-7a1.66,1.66,0,0,0,.35.28c.05,0,4.65,2.65,4.65,6.77a1.5,1.5,0,0,0,3,0c0-4.85-4-8-5.58-9,2.66,0,5-.3,6.69-1.95A6.43,6.43,0,0,0,36,22ZM22.85,39.92A3.43,3.43,0,1,1,18,35.07c.76-.76,2.11-1.07,4.66-1.07l1.24,0C24,36.63,23.92,38.84,22.85,39.92ZM33.91,29c-.76.76-2.11,1.07-4.66,1.07l-1.24,0c-.06-2.61,0-4.82,1.06-5.9a3.4,3.4,0,0,1,2.42-1A3.43,3.43,0,0,1,33.91,29Z"/>
  </g>
  <path class="e" d="M31.49,21.15A3.43,3.43,0,0,1,33.91,27c-.76.76-2.11,1.07-4.66,1.07l-1.24,0c-.06-2.61,0-4.82,1.06-5.9a3.4,3.4,0,0,1,2.42-1m0-3A6.41,6.41,0,0,0,27,20c-2.51,2.51-1.88,6.69-1.88,11,1.42,0,2.84.07,4.18.07,2.7,0,5.11-.28,6.78-1.95a6.43,6.43,0,0,0-4.54-11Z"/>
  <path class="e" d="M22.66,32l1.24,0c.06,2.61,0,4.82-1,5.9A3.43,3.43,0,1,1,18,33.07c.76-.76,2.11-1.07,4.66-1.07m0-3c-2.69,0-5.11.28-6.78,1.95A6.43,6.43,0,0,0,25,40c2.51-2.51,1.88-6.69,1.88-11-1.43,0-2.84-.07-4.19-.07Z"/>
  <path class="e" d="M33.42,41.58a1.5,1.5,0,0,1-1.5-1.5c0-4.12-4.6-6.74-4.65-6.77a1.5,1.5,0,0,1,1.46-2.62c.25.14,6.19,3.49,6.19,9.39A1.5,1.5,0,0,1,33.42,41.58Z"/>
  <path class="e" d="M24.5,30.5a1.51,1.51,0,0,1-.58-.12c-.26-.11-6.53-2.79-7.18-8.66a1.5,1.5,0,0,1,3-.33c.45,4.13,5.3,6.21,5.35,6.23a1.49,1.49,0,0,1,.81,2A1.51,1.51,0,0,1,24.5,30.5Z"/>
</svg>
