<svg xmlns="http://www.w3.org/2000/svg" viewBox="0 0 64 64">
  <defs>
    <style>
      .a {
        fill: #4f5d73;
      }

      .b {
        opacity: 0.2;
      }

      .c {
        fill: #231f20;
      }

      .d {
        fill: #fff;
      }
    </style>
  </defs>
  <title>Elegant_circle-icons</title>
  <circle class="a" cx="32" cy="32" r="32"/>
  <g class="b">
    <path class="c" d="M43.9,47.54c-3.82-1.66-5.21-4.24-5.64-6.47a20.22,20.22,0,0,0,6.15-9.57,8,8,0,0,0,2-4.62,2.7,2.7,0,0,0-.95-2.16c-.21-8.1-6-14.61-13-14.71h-.23c-7,0-12.78,6.41-13.13,14.41a2.69,2.69,0,0,0-1.39,2.47,8.79,8.79,0,0,0,2.66,5.45,20.31,20.31,0,0,0,5.5,8.44c-.35,2.29-1.7,5-5.69,6.77-2.16.94-6.11,1.78-7.81,2.65C16.65,55,24.91,58,31.88,58H32c7,0,15.32-3,19.71-7.81C50,49.32,46.06,48.48,43.9,47.54Z"/>
  </g>
  <path class="d" d="M43.9,45.54c-3.82-1.66-5.21-4.24-5.64-6.47a20.22,20.22,0,0,0,6.15-9.57,8,8,0,0,0,2-4.62,2.7,2.7,0,0,0-.95-2.16c-.21-8.1-6-14.61-13-14.71h-.23C25.1,8,19.37,14.41,19,22.41a2.69,2.69,0,0,0-1.39,2.47,8.79,8.79,0,0,0,2.66,5.45,20.31,20.31,0,0,0,5.5,8.44c-.35,2.29-1.7,5-5.69,6.77-2.16.94-6.11,1.78-7.81,2.65C16.65,53,24.91,56,31.88,56H32c7,0,15.32-3,19.71-7.81C50,47.32,46.06,46.48,43.9,45.54Z"/>
</svg>
