<svg xmlns="http://www.w3.org/2000/svg" viewBox="0 0 64 64">
  <defs>
    <style>
      .a {
        fill: #e0e0d1;
      }

      .b {
        opacity: 0.2;
      }

      .c {
        fill: #231f20;
      }

      .d {
        fill: #4f5d73;
      }
    </style>
  </defs>
  <title>Elegant_circle-icons</title>
  <circle class="a" cx="32" cy="32" r="32"/>
  <g class="b">
    <path class="c" d="M46,32.75c-.22,3.52-1.83,8.8-8.29,13.93a1.68,1.68,0,0,1-1,.36,1.66,1.66,0,0,1-1.33-.67,1.75,1.75,0,0,1,.3-2.42c5.26-4.18,6.7-8.27,7-11.08a5,5,0,0,1-2.49.68,5.25,5.25,0,0,1,0-10.5,4.67,4.67,0,0,1,1.79.39l0-.05a4.41,4.41,0,0,1,.59.28l.06,0,0,0a6.56,6.56,0,0,1,.82.57c.13.11.23.24.35.36C45,25.88,46.34,28.24,46,32.75Zm-22.81.8a5.25,5.25,0,0,1,0-10.5,4.68,4.68,0,0,1,1.8.39l0-.05a4.41,4.41,0,0,1,.59.28l0,0,0,0a5.87,5.87,0,0,1,.81.57c.13.11.24.24.36.36,1.27,1.24,2.66,3.6,2.29,8.11-.22,3.52-1.83,8.8-8.29,13.93a1.65,1.65,0,0,1-2.37-.3,1.75,1.75,0,0,1,.3-2.43c5.26-4.18,6.7-8.27,7-11.08A5.09,5.09,0,0,1,23.16,33.55Z"/>
  </g>
  <path class="d" d="M46,30.75c-.22,3.52-1.83,8.8-8.29,13.93a1.68,1.68,0,0,1-1,.36,1.66,1.66,0,0,1-1.33-.67,1.75,1.75,0,0,1,.3-2.42c5.26-4.18,6.7-8.27,7-11.08a5,5,0,0,1-2.49.68,5.25,5.25,0,0,1,0-10.5,4.67,4.67,0,0,1,1.79.39l0-.05a4.41,4.41,0,0,1,.59.28l.06,0,0,0a6.56,6.56,0,0,1,.82.57c.13.11.23.24.35.36C45,23.88,46.34,26.24,46,30.75Zm-22.81.8a5.25,5.25,0,0,1,0-10.5,4.68,4.68,0,0,1,1.8.39l0-.05a4.41,4.41,0,0,1,.59.28l0,0,0,0a5.87,5.87,0,0,1,.81.57c.13.11.24.24.36.36,1.27,1.24,2.66,3.6,2.29,8.11-.22,3.52-1.83,8.8-8.29,13.93a1.65,1.65,0,0,1-2.37-.3,1.75,1.75,0,0,1,.3-2.43c5.26-4.18,6.7-8.27,7-11.08A5.09,5.09,0,0,1,23.16,31.55Z"/>
</svg>
