<svg xmlns="http://www.w3.org/2000/svg" viewBox="0 0 64 64">
  <defs>
    <style>
      .a {
        fill: #c75c5c;
      }

      .b {
        opacity: 0.2;
      }

      .c {
        fill: #231f20;
      }

      .d {
        fill: #fff;
      }

      .e {
        fill: #4f5d73;
      }

      .f {
        fill: none;
        stroke: #e0e0d1;
        stroke-linecap: round;
        stroke-linejoin: round;
        stroke-width: 3px;
      }
    </style>
  </defs>
  <title>Elegant_circle-icons_2</title>
  <circle class="a" cx="32" cy="32" r="32"/>
  <g class="b">
    <path class="c" d="M57.67,31.9l-5.28-5.29L46.1,20.33a1.1,1.1,0,0,0-1.57,0L40.6,24.25l-3.92,3.93a1.1,1.1,0,0,0,0,1.57L43,36l5.29,5.28a1.1,1.1,0,0,0,1.57,0l3.93-3.92,3.92-3.93A1.1,1.1,0,0,0,57.67,31.9Z"/>
    <path class="c" d="M23.4,24.25l-3.93-3.92a1.1,1.1,0,0,0-1.57,0l-6.29,6.28L6.33,31.9c-.44.43-.76,1.48-.33,1.92l3.93,3.93,3.93,3.92a1.1,1.1,0,0,0,1.57,0L21,36l6.28-6.29a1.1,1.1,0,0,0,0-1.57Z"/>
  </g>
  <g>
    <path class="d" d="M47.68,29.32,43,34l5.29,5.28a1.1,1.1,0,0,0,1.57,0l3.93-3.92Z"/>
    <path class="d" d="M52.39,24.61,46.1,18.33a1.1,1.1,0,0,0-1.57,0L40.6,22.25l7.08,7.07Z"/>
    <path class="e" d="M53.75,35.4l3.92-3.93a1.1,1.1,0,0,0,0-1.57l-5.28-5.29-4.71,4.71Z"/>
    <path class="e" d="M40.6,22.25l-3.92,3.93a1.1,1.1,0,0,0,0,1.57L43,34l4.72-4.72Z"/>
  </g>
  <g>
    <path class="d" d="M16.32,29.32,21,34l-5.61,5.63a1.1,1.1,0,0,1-1.57,0L9.93,35.75Z"/>
    <path class="d" d="M11.61,24.61l6.29-6.28a1.1,1.1,0,0,1,1.57,0l3.93,3.92-7.08,7.07Z"/>
    <path class="e" d="M9.93,35.75,6,31.82c-.43-.44-.11-1.49.33-1.92l5.28-5.29,4.71,4.71Z"/>
    <path class="e" d="M23.4,22.25l3.92,3.93a1.1,1.1,0,0,1,0,1.57L21,34l-4.72-4.72Z"/>
  </g>
  <g class="b">
    <path class="c" d="M17.57,50.2a1.47,1.47,0,0,1-1.06-.44,1.49,1.49,0,0,1,0-2.12L45,19.19a1.5,1.5,0,1,1,2.13,2.12L18.63,49.76A1.47,1.47,0,0,1,17.57,50.2Z"/>
  </g>
  <line class="f" x1="46.03" y1="18.25" x2="17.57" y2="46.7"/>
  <g class="b">
    <path class="c" d="M46.43,50.2a1.47,1.47,0,0,1-1.06-.44L16.91,21.31A1.5,1.5,0,0,1,19,19.19L47.49,47.64a1.49,1.49,0,0,1,0,2.12A1.47,1.47,0,0,1,46.43,50.2Z"/>
  </g>
  <line class="f" x1="17.97" y1="18.25" x2="46.43" y2="46.7"/>
</svg>
