<svg xmlns="http://www.w3.org/2000/svg" viewBox="0 0 64 64">
  <defs>
    <style>
      .a {
        fill: #77b3d4;
      }

      .b {
        opacity: 0.2;
      }

      .c {
        fill: #231f20;
      }

      .d {
        fill: #4f5d73;
      }

      .e, .f {
        fill: none;
        stroke: #4f5d73;
        stroke-linecap: round;
        stroke-width: 3px;
      }

      .e {
        stroke-miterlimit: 10;
      }

      .f {
        stroke-linejoin: round;
      }
    </style>
  </defs>
  <title>Elegant_circle-icons_3</title>
  <circle class="a" cx="32" cy="32" r="32"/>
  <g class="b">
    <path class="c" d="M33.62,25.62a2.29,2.29,0,1,0-3.24,0A2.28,2.28,0,0,0,33.62,25.62Z"/>
    <path class="c" d="M35.89,30A1.5,1.5,0,0,0,38,30a8.5,8.5,0,0,0,0-12,1.5,1.5,0,0,0-2.12,2.12,5.5,5.5,0,0,1,0,7.78A1.49,1.49,0,0,0,35.89,30Z"/>
    <path class="c" d="M43.72,24a9.46,9.46,0,0,1-2.78,6.72,1.49,1.49,0,0,0,0,2.12,1.5,1.5,0,0,0,2.12,0,12.51,12.51,0,0,0,0-17.68,1.51,1.51,0,0,0-2.12,0,1.49,1.49,0,0,0,0,2.12A9.46,9.46,0,0,1,43.72,24Z"/>
    <path class="c" d="M26,30a1.5,1.5,0,0,0,2.12,0,1.49,1.49,0,0,0,0-2.12,5.5,5.5,0,0,1,0-7.78A1.5,1.5,0,0,0,26,18a8.5,8.5,0,0,0,0,12Z"/>
    <path class="c" d="M22,33.28a1.51,1.51,0,0,0,1.06-.44,1.49,1.49,0,0,0,0-2.12,9.51,9.51,0,0,1,0-13.44,1.49,1.49,0,0,0,0-2.12,1.51,1.51,0,0,0-2.12,0,12.51,12.51,0,0,0,0,17.68A1.51,1.51,0,0,0,22,33.28Z"/>
    <path class="c" d="M33.39,30a1.5,1.5,0,0,0-2.78,0l-10,24.43a1.5,1.5,0,1,0,2.78,1.14L26.9,47H37.1l3.51,8.58A1.5,1.5,0,0,0,42,56.5a1.65,1.65,0,0,0,.57-.11,1.51,1.51,0,0,0,.82-2ZM32,34.52,33.42,38H30.58ZM28.12,44l1.23-3h5.3l1.23,3Z"/>
  </g>
  <circle class="d" cx="32" cy="22" r="2.29"/>
  <path class="e" d="M37,17.05A7,7,0,0,1,37,27"/>
  <path class="e" d="M42,14.22a11,11,0,0,1,0,15.56"/>
  <path class="e" d="M27.05,17.05a7,7,0,0,0,0,9.9"/>
  <path class="e" d="M22,14.22a11,11,0,0,0,0,15.56"/>
  <polyline class="f" points="22 53 32 28.56 42 53"/>
  <line class="e" x1="29" y1="37.5" x2="35" y2="37.5"/>
  <line class="e" x1="27" y1="43.5" x2="37" y2="43.5"/>
</svg>
