<svg xmlns="http://www.w3.org/2000/svg" viewBox="0 0 64 64">
  <defs>
    <style>
      .a {
        fill: #e0e0d1;
      }

      .b {
        opacity: 0.2;
      }

      .c {
        fill: #231f20;
      }

      .d {
        fill: #c75c5c;
      }

      .e {
        fill: #e0995e;
      }

      .f {
        fill: #f5cf87;
      }

      .g {
        fill: #76c2af;
      }

      .h {
        fill: #4f5d73;
      }
    </style>
  </defs>
  <title>Elegant_circle-icons</title>
  <circle class="a" cx="32" cy="32" r="32"/>
  <g class="b">
    <path class="c" d="M32,10A24,24,0,0,0,12.63,48.17a3.4,3.4,0,0,0,5.23,0l2.83-2.83,2.82-2.82,2.83-2.83S28,38,28,34a4,4,0,0,1,8,0s-.26,3.74,1.66,5.66l2.13,2.13.7.7,2.13,2.13.69.69,1.78,1.78.77.77.28.28s2.8,2.77,5.23,0A24,24,0,0,0,32,10Z"/>
  </g>
  <g>
    <path class="d" d="M17.86,46.14a20,20,0,1,1,28.28,0s2.8,2.77,5.23,0a24,24,0,1,0-38.74,0A3.4,3.4,0,0,0,17.86,46.14Z"/>
    <path class="e" d="M32,12A20,20,0,0,0,17.86,46.14l2.83-2.83a16,16,0,1,1,22.62,0l1.78,1.78.77.77.28.28A20,20,0,0,0,32,12Z"/>
    <path class="f" d="M32,16A16,16,0,0,0,20.69,43.31l2.82-2.82a12,12,0,1,1,17,0l2.13,2.13.69.69A16,16,0,0,0,32,16Z"/>
    <path class="g" d="M32,20a12,12,0,0,0-8.49,20.49l2.83-2.83a8,8,0,1,1,11.32,0l2.13,2.13.7.7A12,12,0,0,0,32,20Z"/>
    <path class="h" d="M32,24a8,8,0,0,0-5.66,13.66S28,36,28,32a4,4,0,0,1,8,0s-.26,3.74,1.66,5.66A8,8,0,0,0,32,24Z"/>
  </g>
</svg>
