<svg xmlns="http://www.w3.org/2000/svg" viewBox="0 0 64 64">
  <defs>
    <style>
      .a {
        fill: #e0e0d1;
      }

      .b {
        opacity: 0.2;
      }

      .c {
        fill: #231f20;
      }

      .d {
        fill: #4f5d73;
      }

      .e {
        fill: #76c2af;
      }
    </style>
  </defs>
  <title>Elegant_circle-icons</title>
  <circle class="a" cx="32" cy="31.63" r="32"/>
  <g>
    <g class="b">
      <path class="c" d="M24.35,41h-2.3l2.22-3.86A3,3,0,0,0,23.18,33h0l-6-3.49,0,0A3,3,0,0,0,13,30.64h0L9.59,36.57a5.8,5.8,0,0,0,0,5.2l5.56,9.63a5.26,5.26,0,0,0,2,1.85l.1,0h0a5.23,5.23,0,0,0,2.43.7H26.5l4-6.83L26.5,41Z"/>
    </g>
    <g class="b">
      <path class="c" d="M54.41,36.57l-3.43-6H43.07l-3.35,6.55L40.8,39h0L42,41H37.5a3,3,0,0,0-3,3v7a3,3,0,0,0,3,3h6.85a5.77,5.77,0,0,0,4.5-2.6l5.56-9.63a5.76,5.76,0,0,0,0-5.2Z"/>
    </g>
    <g class="b">
      <path class="c" d="M38.32,28.72h0l6-3.49,0,0a3,3,0,0,0,1.08-4.08h0l-3.42-5.94a5.76,5.76,0,0,0-4.5-2.59H26.43a5.32,5.32,0,0,0-2.58.78l-.09.06h0a5.31,5.31,0,0,0-1.83,1.75l-3.46,6,4,6.86h7.34L32,23.76h0l2.22,3.86A3,3,0,0,0,38.32,28.72Z"/>
    </g>
  </g>
  <g>
    <path class="d" d="M22.05,39l-5,8.66a5,5,0,0,0-.7,2.38,1.39,1.39,0,0,0,.77,1.21,5.34,5.34,0,0,0,2.53.75H26.5l4-6.83L26.5,39Z"/>
    <path class="e" d="M16.35,50a5,5,0,0,1,.7-2.38l5-8.66,2.22-3.86A3,3,0,0,0,23.18,31h0l-6-3.49,0,0A3,3,0,0,0,13,28.64h0L9.59,34.57a5.8,5.8,0,0,0,0,5.2l5.56,9.63a5.26,5.26,0,0,0,2,1.85A1.39,1.39,0,0,1,16.35,50Z"/>
    <g class="b">
      <path class="c" d="M22.05,39l-5,8.66a5,5,0,0,0-.7,2.38,1.39,1.39,0,0,0,.77,1.21l.1,0L24.35,39Z"/>
    </g>
  </g>
  <g>
    <path class="d" d="M42,39H52a5,5,0,0,0,2.41-.59A1.38,1.38,0,0,0,55,37.14a5.37,5.37,0,0,0-.62-2.57l-3.43-6H43.07l-3.35,6.55Z"/>
    <path class="e" d="M54.36,38.41A5,5,0,0,1,52,39H37.5a3,3,0,0,0-3,3v7a3,3,0,0,0,3,3h6.85a5.77,5.77,0,0,0,4.5-2.6l5.56-9.63A5.35,5.35,0,0,0,55,37.14,1.38,1.38,0,0,1,54.36,38.41Z"/>
    <g class="b">
      <path class="c" d="M42,39H52a5,5,0,0,0,2.41-.59A1.38,1.38,0,0,0,55,37.14s0-.07,0-.11L40.8,37Z"/>
    </g>
  </g>
  <g>
    <path class="d" d="M32,21.76,27,13.1a5,5,0,0,0-1.72-1.79,1.35,1.35,0,0,0-1.43.06,5.33,5.33,0,0,0-1.92,1.81l-3.46,6,4,6.86h7.34Z"/>
    <path class="e" d="M25.28,11.31A5,5,0,0,1,27,13.1l5,8.66,2.22,3.86a3,3,0,0,0,4.1,1.1h0l6-3.49,0,0a3,3,0,0,0,1.08-4.08h0l-3.42-5.94a5.76,5.76,0,0,0-4.5-2.59H26.43a5.32,5.32,0,0,0-2.58.78A1.35,1.35,0,0,1,25.28,11.31Z"/>
    <g class="b">
      <path class="c" d="M32,21.76,27,13.1a5,5,0,0,0-1.72-1.79,1.35,1.35,0,0,0-1.43.06l-.09.06,7.08,12.32Z"/>
    </g>
  </g>
</svg>
