<svg xmlns="http://www.w3.org/2000/svg" viewBox="0 0 64 64">
  <defs>
    <style>
      .a {
        fill: #4f5d73;
      }

      .b, .f {
        opacity: 0.2;
      }

      .c, .f {
        fill: #231f20;
      }

      .d, .e, .h {
        fill: none;
        stroke-linecap: round;
        stroke-miterlimit: 10;
        stroke-width: 3px;
      }

      .d {
        stroke: #76c2af;
      }

      .e {
        stroke: #c75c5c;
      }

      .g {
        fill: #77b3d4;
      }

      .h {
        stroke: #77b3d4;
      }

      .i {
        fill: #76c2af;
      }
    </style>
  </defs>
  <title>Elegant_circle-icons_3</title>
  <circle class="a" cx="32" cy="32" r="32"/>
  <g class="b">
    <path class="c" d="M34,31.21l-2.61,1.56A10.17,10.17,0,1,1,17.2,31.43a1.5,1.5,0,1,0-1.89-2.33A13.16,13.16,0,1,0,34,31.21Z"/>
  </g>
  <path class="d" d="M26.32,25.23a11.67,11.67,0,1,1-10.06,2.29"/>
  <g class="b">
    <path class="c" d="M32,38.33a13.17,13.17,0,1,1,12.87-16,1.5,1.5,0,1,1-2.93.64,10.17,10.17,0,1,0-2.24,8.84,1.5,1.5,0,1,1,2.26,2A13.16,13.16,0,0,1,32,38.33Z"/>
  </g>
  <path class="e" d="M40.82,30.05a11.67,11.67,0,1,1,2.57-10.14"/>
  <path class="f" d="M27.16,39.33a13.35,13.35,0,0,0,.5,3.62,1.5,1.5,0,1,0,2.89-.83,10.13,10.13,0,0,1,2.07-9.4l-2.41-1.81A13.14,13.14,0,0,0,27.16,39.33Z"/>
  <g class="b">
    <path class="c" d="M40.33,26.16a13.16,13.16,0,0,0-10.12,4.75l2.41,1.81a10.16,10.16,0,1,1,3.7,16,1.5,1.5,0,1,0-1.18,2.76,13.17,13.17,0,1,0,5.19-25.28Z"/>
  </g>
  <path class="g" d="M30.16,36.59c0-1.42-.73-3.3-.16-4.59-.93-.37-.8-.28-1.71-.7a13.16,13.16,0,0,0-1.13,5.29,13.33,13.33,0,0,0,.5,3.61,1.5,1.5,0,0,0,2.89-.82A10.05,10.05,0,0,1,30.16,36.59Z"/>
  <path class="h" d="M29.11,39.79a11.65,11.65,0,1,1,6.62,7.52"/>
  <path class="f" d="M31.18,32.55h.56L34,31.21a13.1,13.1,0,0,0-7.33-4.69,1.48,1.48,0,0,0-1.8,1.11A1.5,1.5,0,0,0,26,29.44,10.08,10.08,0,0,1,31.18,32.55Z"/>
  <path class="i" d="M26,26.69a10.14,10.14,0,0,1,7,5.78,3.59,3.59,0,0,1,1.26-.88c.48-.16,1-.27,1.46-.39a13.15,13.15,0,0,0-9-7.43A1.5,1.5,0,0,0,26,26.69Z"/>
</svg>
