<svg xmlns="http://www.w3.org/2000/svg" viewBox="0 0 64 64">
  <defs>
    <style>
      .a {
        fill: #4f5d73;
      }

      .b {
        opacity: 0.2;
      }

      .c {
        fill: #231f20;
      }

      .d {
        fill: #f5cf87;
      }

      .e {
        fill: #e0995e;
      }
    </style>
  </defs>
  <title>Elegant_circle-icons</title>
  <circle class="a" cx="32" cy="32" r="32"/>
  <g class="b">
    <path class="c" d="M16,21V52.38a2.61,2.61,0,0,0,1.65,2.42,2.76,2.76,0,0,0,1,.2,2.69,2.69,0,0,0,1.88-.77L32,43,43.45,54.23a2.69,2.69,0,0,0,1.88.77,2.76,2.76,0,0,0,1-.2A2.61,2.61,0,0,0,48,52.38V21Z"/>
  </g>
  <path class="d" d="M16,19V50.38a2.61,2.61,0,0,0,1.65,2.42,2.76,2.76,0,0,0,1,.2,2.69,2.69,0,0,0,1.88-.77L32,41,43.45,52.23a2.69,2.69,0,0,0,1.88.77,2.76,2.76,0,0,0,1-.2A2.61,2.61,0,0,0,48,50.38V19Z"/>
  <g class="b">
    <path class="c" d="M48,21V19c0-1.1-1.19-2-2.67-2H18.67c-1.48,0-2.67.9-2.67,2v2Z"/>
  </g>
  <path class="e" d="M48,19V14c0-1.1-1.19-2-2.67-2H18.67c-1.48,0-2.67.9-2.67,2v5Z"/>
</svg>
