<svg xmlns="http://www.w3.org/2000/svg" viewBox="0 0 64 64">
  <defs>
    <style>
      .a {
        fill: #e0e0d1;
      }

      .b {
        fill: #231f20;
        opacity: 0.2;
      }

      .c {
        fill: #e0995e;
      }

      .d {
        fill: #4f5d73;
      }

      .e {
        fill: #f5cf87;
      }
    </style>
  </defs>
  <title>Elegant_circle-icons_2</title>
  <circle class="a" cx="32" cy="32" r="32"/>
  <path class="b" d="M20,48a2,2,0,0,1-2,2h0a2,2,0,0,1-2-2V40a2,2,0,0,1,2-2h0a2,2,0,0,1,2,2Z"/>
  <path class="b" d="M48,48a2,2,0,0,1-2,2h0a2,2,0,0,1-2-2V40a2,2,0,0,1,2-2h0a2,2,0,0,1,2,2Z"/>
  <path class="c" d="M20,46a2,2,0,0,1-2,2h0a2,2,0,0,1-2-2V38a2,2,0,0,1,2-2h0a2,2,0,0,1,2,2Z"/>
  <path class="c" d="M48,46a2,2,0,0,1-2,2h0a2,2,0,0,1-2-2V38a2,2,0,0,1,2-2h0a2,2,0,0,1,2,2Z"/>
  <path class="b" d="M55.19,23.61A4,4,0,0,0,52,22H12a4,4,0,0,0-4,4V38a4,4,0,0,0,4,4H52a4,4,0,0,0,4-4V26A4,4,0,0,0,55.19,23.61Z"/>
  <path class="d" d="M12,20a4,4,0,0,0-4,4V36a4,4,0,0,0,.81,2.39L18,20Z"/>
  <polygon class="d" points="30 20 20 40 34 40 44 20 30 20"/>
  <path class="e" d="M18,20,8.81,38.39A4,4,0,0,0,12,40h8L30,20Z"/>
  <path class="d" d="M46,40h6a4,4,0,0,0,4-4V24a4,4,0,0,0-.81-2.39Z"/>
  <path class="e" d="M52,20H44L34,40H46l9.19-18.39A4,4,0,0,0,52,20Z"/>
</svg>
