<svg xmlns="http://www.w3.org/2000/svg" viewBox="0 0 64 64">
  <defs>
    <style>
      .a {
        fill: #4f5d73;
      }

      .b {
        opacity: 0.2;
      }

      .c {
        fill: #231f20;
      }

      .d {
        fill: #c75c5c;
      }

      .e {
        fill: #e0995e;
      }

      .f {
        fill: #f5cf87;
      }

      .g {
        fill: #e0e0d1;
      }
    </style>
  </defs>
  <title>Elegant_circle-icons</title>
  <circle class="a" cx="32" cy="32" r="32"/>
  <g class="b">
    <path class="c" d="M32.1,39.68C30.54,41.24,26,52.22,26,52.22c-.67,1.21.33,2.09,2.59.94l8.13-4.44c4.38-2.43,5.23-3.07,5.17-8l-.81-5.86c-.28-2-1.78-2.37-3.34-.81Z"/>
  </g>
  <g class="b">
    <path class="c" d="M27.07,34.66c-1.55,1.55-12.54,6.09-12.54,6.09-1.21.66-2.08-.34-.93-2.6L18,30c2.44-4.38,3.07-5.23,8-5.17l5.85.82c2,.27,2.37,1.78.82,3.33Z"/>
  </g>
  <path class="d" d="M32.1,37.68C30.54,39.24,26,50.22,26,50.22c-.67,1.21.33,2.09,2.59.94l8.13-4.44c4.38-2.43,5.23-3.07,5.17-8l-.81-5.86c-.28-2-1.78-2.37-3.34-.81Z"/>
  <path class="d" d="M27.07,32.66c-1.55,1.55-12.54,6.09-12.54,6.09-1.21.66-2.08-.34-.93-2.6L18,28c2.44-4.38,3.07-5.23,8-5.17l5.85.82c2,.27,2.37,1.78.82,3.33Z"/>
  <g class="b">
    <path class="c" d="M21.25,39.54C26.32,34.47,30.58,36,30.58,36s1.55,4.26-3.52,9.34-13.29,8.76-13.93,8.12S16.17,44.62,21.25,39.54Z"/>
  </g>
  <path class="e" d="M21.25,37.54C26.32,32.47,30.58,34,30.58,34s1.55,4.26-3.52,9.34-13.29,8.76-13.93,8.12S16.17,42.62,21.25,37.54Z"/>
  <path class="f" d="M25.49,33.3c5.07-5.07,9.34-3.52,9.34-3.52S36.37,34,31.3,39.11,18,47.87,17.37,47.23,20.41,38.38,25.49,33.3Z"/>
  <g class="b">
    <path class="c" d="M43.63,37.08c-7.81,7.81-19.78,5.67-19.78,5.67s-2.14-12,5.67-19.78,19.65-8.64,21.2-7.09S51.44,29.27,43.63,37.08Z"/>
  </g>
  <path class="g" d="M43.63,35.08c-7.81,7.81-19.78,5.67-19.78,5.67s-2.14-12,5.67-19.78,19.65-8.64,21.2-7.09S51.44,27.27,43.63,35.08Z"/>
  <g class="b">
    <path class="c" d="M21,47c-.78.79-1.34,1.49-2.12.71h0c-.78-.78-.07-1.34.71-2.12l9.9-12.73c.78-.78,4.17-1.49,4.95-.71h0c.78.79.07,4.17-.71,5Z"/>
  </g>
  <path class="d" d="M21,45c-.78.79-1.34,1.49-2.12.71h0c-.78-.78-.07-1.34.71-2.12l9.9-12.73c.78-.78,4.17-1.49,4.95-.71h0c.78.79.07,4.17-.71,5Z"/>
  <g class="b">
    <circle class="c" cx="39.6" cy="27.15" r="4"/>
  </g>
  <g class="b">
    <circle class="c" cx="45.26" cy="21.49" r="2"/>
  </g>
  <circle class="a" cx="39.6" cy="25.15" r="4"/>
  <circle class="a" cx="45.26" cy="19.49" r="2"/>
</svg>
