<svg xmlns="http://www.w3.org/2000/svg" viewBox="0 0 64 64">
  <defs>
    <style>
      .a {
        fill: #e0995e;
      }

      .b {
        opacity: 0.2;
      }

      .c {
        fill: #231f20;
      }

      .d {
        fill: #fff;
      }

      .e, .f {
        fill: none;
        stroke: #fff;
        stroke-linecap: round;
        stroke-linejoin: round;
      }

      .e {
        stroke-width: 5px;
      }

      .f {
        stroke-width: 6px;
      }
    </style>
  </defs>
  <title>Elegant_circle-icons_2</title>
  <circle class="a" cx="32" cy="32" r="32"/>
  <g class="b">
    <circle class="c" cx="35.07" cy="19.04" r="5.04"/>
  </g>
  <g class="b">
    <path class="c" d="M18.5,54a2.5,2.5,0,0,1-1-4.78C28.14,44.43,27.58,39,27.57,39a2.51,2.51,0,0,1,3.06-2.92c.54.14,13.17,3.42,14.83,15a2.5,2.5,0,1,1-5,.7c-.78-5.47-5.36-8.46-8.38-9.86-1,3.25-3.94,7.94-12.61,11.8A2.62,2.62,0,0,1,18.5,54Z"/>
  </g>
  <g class="b">
    <path class="c" d="M21.38,39.55a2.5,2.5,0,0,1-2.5-2.5c0-7.38,7-10.49,10.73-11.11a2.49,2.49,0,0,1,2.32.84c.21.24,5.34,6,11.45,3a2.5,2.5,0,1,1,2.24,4.48c-6.82,3.41-13.16-.05-16.39-3.06-1.9.59-5.35,2.19-5.35,5.87A2.5,2.5,0,0,1,21.38,39.55Z"/>
  </g>
  <g class="b">
    <path class="c" d="M31.47,41.49a3,3,0,0,1-2.79-1.89c-3.51-8.78.22-12.88.66-13.32l4.25,4.25.11-.13s-1.45,2,.55,7a3,3,0,0,1-1.67,3.9A2.93,2.93,0,0,1,31.47,41.49Z"/>
  </g>
  <circle class="d" cx="35.07" cy="16.04" r="5.04"/>
  <path class="e" d="M18.5,48.45c13-5.76,11.52-13,11.52-13s11.53,2.88,13,13"/>
  <path class="e" d="M44.5,29C36.5,33,30,25.4,30,25.4s-8.64,1.44-8.64,8.65"/>
  <path class="f" d="M31.46,25.4s-2.88,2.89,0,10.09"/>
</svg>
