<svg xmlns="http://www.w3.org/2000/svg" viewBox="0 0 64 64">
  <defs>
    <style>
      .a {
        fill: #77b3d4;
      }

      .b, .d {
        opacity: 0.2;
      }

      .c, .d {
        fill: #231f20;
      }

      .e {
        fill: #fff;
        stroke: #fff;
      }

      .e, .f, .g {
        stroke-linejoin: round;
      }

      .f {
        fill: #f5cf87;
        stroke: #f5cf87;
      }

      .g {
        fill: #c75c5c;
        stroke: #c75c5c;
      }
    </style>
  </defs>
  <title>Elegant_circle-icons_2</title>
  <circle class="a" cx="32" cy="32" r="32"/>
  <g class="b">
    <path class="c" d="M43,51a116,116,0,0,1-18.92,2c-8.74,0-13.16-7.08-13.16-7.08H52.83S51.17,50,43,51Z"/>
    <path class="c" d="M24.08,53.5a16.68,16.68,0,0,1-13.59-7.32.52.52,0,0,1,0-.51.52.52,0,0,1,.44-.25H52.83a.5.5,0,0,1,.42.22.52.52,0,0,1,0,.47c-.08.17-1.88,4.36-10.24,5.39A117.91,117.91,0,0,1,24.08,53.5ZM11.9,46.42A15.83,15.83,0,0,0,24.08,52.5a116.22,116.22,0,0,0,18.82-2c5.72-.7,8.14-2.94,9-4.09Z"/>
  </g>
  <path class="d" d="M28.08,11.51a.48.48,0,0,0-.51.23.52.52,0,0,0,0,.56c6.73,9,3.68,21.56,1.9,26.92V18a.51.51,0,0,0-.43-.5.52.52,0,0,0-.55.37c-.06.2-5.79,20.43-14.69,23.66a.5.5,0,0,0-.32.56.49.49,0,0,0,.49.41H49a.5.5,0,0,0,.5-.5C49.5,15.5,28.3,11.54,28.08,11.51Z"/>
  <path class="e" d="M43,49a116,116,0,0,1-18.92,2c-8.74,0-13.16-7.08-13.16-7.08H52.83S51.17,48,43,49Z"/>
  <path class="f" d="M29,16S23.25,36.64,14,40H29Z"/>
  <path class="g" d="M29,40s8-18-1-30c0,0,21,3.62,21,30Z"/>
</svg>
