<svg xmlns="http://www.w3.org/2000/svg" viewBox="0 0 64 64">
  <defs>
    <style>
      .a {
        fill: #4f5d73;
      }

      .b {
        fill: #c75c5c;
      }

      .c {
        fill: #f5cf87;
      }

      .d {
        fill: #e0995e;
      }

      .e {
        fill: #e0e0d1;
        stroke: #4f5d73;
        stroke-miterlimit: 10;
        stroke-width: 2px;
      }
    </style>
  </defs>
  <title>Elegant_circle-icons_2</title>
  <circle class="a" cx="32" cy="32" r="32"/>
  <circle class="b" cx="46" cy="23" r="2"/>
  <circle class="b" cx="56" cy="33" r="2"/>
  <path class="c" d="M46,39v4H14a4,4,0,0,1-4-4V24a4,4,0,0,1,4-4H44c2.21,0,2,1.79,2,4Z"/>
  <path class="c" d="M56,39a3.72,3.72,0,0,1-4,4H44V30h9c2,0,3,.79,3,3Z"/>
  <rect class="d" x="15" y="24" width="18" height="6"/>
  <rect class="d" x="37" y="24" width="5" height="6"/>
  <rect class="d" x="14" y="24" width="5" height="6"/>
  <circle class="e" cx="19" cy="43" r="4"/>
  <circle class="e" cx="47" cy="43" r="4"/>
</svg>
