<svg xmlns="http://www.w3.org/2000/svg" viewBox="0 0 64 64">
  <defs>
    <style>
      .a {
        fill: #c75c5c;
      }

      .b {
        opacity: 0.2;
      }

      .c {
        fill: #231f20;
      }

      .d {
        fill: #e0e0d1;
      }

      .e {
        fill: #4f5d73;
      }
    </style>
  </defs>
  <title>Elegant_circle-icons</title>
  <circle class="a" cx="32" cy="32" r="32"/>
  <g class="b">
    <path class="c" d="M44,38c-6.19,0-8.19-2.87-8.19-2.87L16,14c0,19.06,19.52,24.06,19.52,30.26a11,11,0,0,0,1,4.67A8,8,0,1,0,44,38Zm0,12a4,4,0,1,1,4-4A4,4,0,0,1,44,50Z"/>
  </g>
  <path class="d" d="M44,36c-6.19,0-8.19-2.87-8.19-2.87L16,12c0,19.06,19.52,24.06,19.52,30.26a11,11,0,0,0,1,4.67A8,8,0,1,0,44,36Zm0,12a4,4,0,1,1,4-4A4,4,0,0,1,44,48Z"/>
  <g class="b">
    <path class="c" d="M28.19,35.13S26.19,38,20,38a8,8,0,1,0,7.44,10.93,11,11,0,0,0,1-4.67C28.48,38.06,48,33.06,48,14ZM20,50a4,4,0,1,1,4-4A4,4,0,0,1,20,50Z"/>
  </g>
  <path class="d" d="M28.19,33.13S26.19,36,20,36a8,8,0,1,0,7.44,10.93,11,11,0,0,0,1-4.67C28.48,36.06,48,31.06,48,12ZM20,48a4,4,0,1,1,4-4A4,4,0,0,1,20,48Z"/>
  <circle class="e" cx="32" cy="33" r="1.5"/>
</svg>
