<svg xmlns="http://www.w3.org/2000/svg" viewBox="0 0 64 64">
  <defs>
    <style>
      .a {
        fill: #c75c5c;
      }

      .b, .e {
        fill: #231f20;
      }

      .b, .d {
        opacity: 0.2;
      }

      .c {
        fill: #4f5d73;
      }

      .f {
        fill: #e0995e;
      }

      .f, .g {
        stroke: #f5cf87;
        stroke-linecap: round;
        stroke-linejoin: round;
        stroke-width: 4px;
      }

      .g {
        fill: none;
      }
    </style>
  </defs>
  <title>Elegant_circle-icons_2</title>
  <circle class="a" cx="32" cy="32" r="32"/>
  <g>
    <path class="b" d="M19.5,40.57a3.72,3.72,0,1,1-3.71,3.72,3.72,3.72,0,0,1,3.71-3.72m0-4a7.72,7.72,0,1,0,7.71,7.72,7.72,7.72,0,0,0-7.71-7.72Z"/>
    <path class="b" d="M47.36,40.57a3.72,3.72,0,1,1-3.72,3.72,3.72,3.72,0,0,1,3.72-3.72m0-4a7.72,7.72,0,1,0,7.71,7.72,7.72,7.72,0,0,0-7.71-7.72Z"/>
    <path class="c" d="M19.5,38.57a3.72,3.72,0,1,1-3.71,3.72,3.72,3.72,0,0,1,3.71-3.72m0-4a7.72,7.72,0,1,0,7.71,7.72,7.72,7.72,0,0,0-7.71-7.72Z"/>
    <path class="c" d="M47.36,38.57a3.72,3.72,0,1,1-3.72,3.72,3.72,3.72,0,0,1,3.72-3.72m0-4a7.72,7.72,0,1,0,7.71,7.72,7.72,7.72,0,0,0-7.71-7.72Z"/>
    <g class="d">
      <path class="e" d="M46.86,35.31S53.42,36,55,42"/>
      <path class="e" d="M55,44a2,2,0,0,1-1.93-1.49c-1.22-4.61-6.37-5.21-6.42-5.21a2,2,0,1,1,.42-4c.33,0,8,.92,9.86,8.17a2,2,0,0,1-1.42,2.44A1.79,1.79,0,0,1,55,44Z"/>
    </g>
    <g class="d">
      <path class="e" d="M39.17,42.75c-7.15,0-9.54-7.32-9.81-11.18a2,2,0,1,1,4-.28h0c0,.3.62,7.46,5.82,7.46a5.46,5.46,0,0,0,5.39-4.06C45.71,30.54,43,23.75,31.94,17H29.39a2,2,0,0,1,0-4H32.5a2.07,2.07,0,0,1,1,.28C50.33,23.34,49.17,33,48.42,35.75A9.49,9.49,0,0,1,39.17,42.75Z"/>
    </g>
    <g class="d">
      <path class="e" d="M33.93,44S32.64,34,22.36,34,9.5,44,9.5,44H37.83l11.42-7.56"/>
      <path class="e" d="M33.93,46H9.5a2,2,0,0,1-1.94-2.5c1-4,5.43-11.5,14.8-11.5A13.2,13.2,0,0,1,35.55,42h1.68l10.92-7.23a2,2,0,1,1,2.2,3.34L38.94,45.67a2.06,2.06,0,0,1-1.11.33h-3.9ZM12.5,42H31.31a9.07,9.07,0,0,0-8.95-6A10.88,10.88,0,0,0,12.5,42Z"/>
    </g>
    <g class="d">
      <path class="e" d="M9.5,44s4.57-11,14.86-11,9.57,11,9.57,11Z"/>
      <path class="e" d="M33.93,46H9.5a2,2,0,0,1-1.66-.89,2,2,0,0,1-.19-1.88C7.86,42.73,12.87,31,24.36,31a10.91,10.91,0,0,1,8.31,3.26c3.6,3.85,3.27,9.63,3.25,9.87A2,2,0,0,1,33.93,46Zm-21-4H31.84a9.09,9.09,0,0,0-2.1-5,7,7,0,0,0-5.38-2C18.59,35,14.83,39.11,12.9,42Z"/>
    </g>
    <g class="d">
      <path class="e" d="M31.36,33.43h-18a2,2,0,0,1,0-4h18a2,2,0,0,1,0,4Z"/>
    </g>
    <path class="f" d="M46.86,33.31S53.42,34,55,40"/>
    <path class="f" d="M33.93,42S32.64,32,22.36,32,9.5,42,9.5,42H37.83l11.42-7.56"/>
    <path class="f" d="M9.5,42s4.57-11,14.86-11,9.57,11,9.57,11Z"/>
    <path class="g" d="M13.36,29.43h18s.64,9.32,7.81,9.32c8.66,0,13.9-13.44-6.67-25.75H29.39"/>
  </g>
</svg>
