<svg xmlns="http://www.w3.org/2000/svg" viewBox="0 0 64 64">
  <defs>
    <style>
      .a {
        fill: #77b3d4;
      }

      .b, .d {
        opacity: 0.2;
      }

      .c, .d {
        fill: #231f20;
      }

      .e {
        fill: #4f5d73;
      }
    </style>
  </defs>
  <title>Elegant_circle-icons_3</title>
  <circle class="a" cx="32" cy="32" r="32"/>
  <g class="b">
    <path class="c" d="M32,56A22,22,0,0,1,11.3,26.53a2,2,0,1,1,3.76,1.36A18,18,0,1,0,36.87,16.67,2,2,0,0,1,38,12.81,22,22,0,0,1,32,56Z"/>
  </g>
  <circle class="d" cx="28" cy="15" r="4"/>
  <path class="d" d="M34.83,31.17c-2.83-2.83-18.64-15-18.64-15a1.36,1.36,0,0,0-1.69.19,1.39,1.39,0,0,0-.2,1.7s13,16.83,14.87,18.73a4,4,0,0,0,5.66-5.66Z"/>
  <path class="e" d="M32,54A22,22,0,0,1,11.3,24.53a2,2,0,1,1,3.76,1.36A18,18,0,1,0,36.87,14.67,2,2,0,1,1,38,10.81,22,22,0,0,1,32,54Z"/>
  <circle class="e" cx="28" cy="13" r="4"/>
  <path class="e" d="M34.83,29.17c-2.83-2.83-18.64-15-18.64-15a1.36,1.36,0,0,0-1.69.19,1.39,1.39,0,0,0-.2,1.7s13,16.83,14.87,18.73a4,4,0,0,0,5.66-5.66Z"/>
</svg>
