<svg xmlns="http://www.w3.org/2000/svg" viewBox="0 0 64 64">
  <defs>
    <style>
      .a {
        fill: #76c2af;
      }

      .b {
        fill: #4f5d73;
      }
    </style>
  </defs>
  <title>Elegant_circle-icons</title>
  <circle class="a" cx="32" cy="32" r="32"/>
  <g>
    <path class="b" d="M26.09,36.74c.57-1.63,1.63-4.32.13-9.5S22.53,20,19.53,20c0,0-5.15-.28-5.5,7.9-.38,9,2.79,11.28,3.79,16.45l7.52-2.15A12.77,12.77,0,0,1,26.09,36.74Z"/>
    <path class="b" d="M26.26,45.08,18.14,47.4c.42,5.32,3,9.6,7.45,8.4,4.63-1.25,2.52-7.54.7-10.66Z"/>
  </g>
  <g>
    <path class="b" d="M37.91,28.73c-.57-1.63-1.63-4.32-.13-9.5S41.47,12,44.47,12c0,0,5.15-.28,5.5,7.9.38,9.05-2.79,11.28-3.79,16.45l-7.52-2.15A12.77,12.77,0,0,0,37.91,28.73Z"/>
    <path class="b" d="M37.74,37.07l8.12,2.32c-.42,5.32-3,9.6-7.45,8.4-4.63-1.25-2.52-7.54-.7-10.66Z"/>
  </g>
</svg>
