<svg xmlns="http://www.w3.org/2000/svg" viewBox="0 0 64 64">
  <defs>
    <style>
      .a {
        fill: #e0e0d1;
      }

      .b {
        opacity: 0.2;
      }

      .c {
        fill: #231f20;
      }

      .d {
        fill: #c75c5c;
      }
    </style>
  </defs>
  <title>Elegant_circle-icons</title>
  <circle class="a" cx="32" cy="32" r="32"/>
  <g class="b">
    <path class="c" d="M47.84,17H32.21a3.78,3.78,0,0,0-1.35.72L12.72,35.86a2.47,2.47,0,0,0,0,3.49L26.65,53.28a2.46,2.46,0,0,0,3.48,0L48.27,35.13A2.89,2.89,0,0,0,49,33.79V18.22A1.15,1.15,0,0,0,47.84,17ZM44,24a2,2,0,1,1,2-2A2,2,0,0,1,44,24Z"/>
  </g>
  <path class="d" d="M47.84,15H32.21a3.78,3.78,0,0,0-1.35.72L12.72,33.86a2.47,2.47,0,0,0,0,3.49L26.65,51.28a2.46,2.46,0,0,0,3.48,0L48.27,33.13A2.89,2.89,0,0,0,49,31.79V16.22A1.15,1.15,0,0,0,47.84,15ZM44,22a2,2,0,1,1,2-2A2,2,0,0,1,44,22Z"/>
</svg>
