<svg xmlns="http://www.w3.org/2000/svg" viewBox="0 0 64 64">
  <defs>
    <style>
      .a {
        fill: #c75c5c;
      }

      .b, .e {
        fill: #231f20;
      }

      .b, .d {
        opacity: 0.2;
      }

      .c {
        fill: #76c2af;
      }

      .f {
        fill: none;
        stroke: #f5cf87;
        stroke-linecap: round;
        stroke-miterlimit: 10;
        stroke-width: 3px;
      }
    </style>
  </defs>
  <title>Elegant_circle-icons_2</title>
  <circle class="a" cx="32" cy="32" r="32"/>
  <circle class="b" cx="19.99" cy="43.92" r="3"/>
  <circle class="b" cx="47.33" cy="37.91" r="3"/>
  <circle class="c" cx="19.99" cy="41.92" r="3"/>
  <circle class="c" cx="47.33" cy="35.91" r="3"/>
  <g class="d">
    <path class="e" d="M16.19,40a17.27,17.27,0,0,1-8.27-2.66A2,2,0,0,1,10.08,34c1.13.72,4.64,2.48,7.16,1.92L48.5,29c2.53-.55,5-3.69,5.7-4.74a2,2,0,1,1,3.37,2.15c-.36.56-3.63,5.49-8.21,6.5L18.1,39.8A8.86,8.86,0,0,1,16.19,40Z"/>
  </g>
  <path class="f" d="M55,24s-3,4.77-7,5.62L16.75,36.49c-3.91.86-8.68-2.19-8.68-2.19"/>
</svg>
