<svg xmlns="http://www.w3.org/2000/svg" viewBox="0 0 64 64">
  <defs>
    <style>
      .a {
        fill: #e0995e;
      }

      .b {
        opacity: 0.2;
      }

      .c {
        fill: #231f20;
      }

      .d {
        fill: #4f5d73;
      }

      .e {
        fill: #fff;
      }

      .f {
        fill: #e0e0d1;
      }
    </style>
  </defs>
  <title>Elegant_circle-icons</title>
  <circle class="a" cx="32" cy="32" r="32"/>
  <g class="b">
    <rect class="c" x="20" y="12" width="24" height="40" rx="4"/>
  </g>
  <g>
    <rect class="d" x="21.5" y="11.5" width="21" height="37" rx="2.5"/>
    <path class="e" d="M40,13a1,1,0,0,1,1,1V46a1,1,0,0,1-1,1H24a1,1,0,0,1-1-1V14a1,1,0,0,1,1-1H40m0-3H24a4,4,0,0,0-4,4V46a4,4,0,0,0,4,4H40a4,4,0,0,0,4-4V14a4,4,0,0,0-4-4Z"/>
  </g>
  <g class="b">
    <polygon class="e" points="26.25 11.5 42 49.62 42 11.5 26.25 11.5"/>
  </g>
  <polygon class="e" points="40 50 24 50 20 42 44 42 40 50"/>
  <circle class="f" cx="32" cy="46" r="2"/>
</svg>
