<svg xmlns="http://www.w3.org/2000/svg" viewBox="0 0 64 64">
  <defs>
    <style>
      .a {
        fill: #4f5d73;
      }

      .b, .f {
        fill: #231f20;
      }

      .b, .e {
        opacity: 0.2;
      }

      .c {
        fill: #e0e0d1;
      }

      .d {
        fill: #e0995e;
      }

      .g {
        fill: #fff;
      }
    </style>
  </defs>
  <title>Elegant_circle-icons_2</title>
  <circle class="a" cx="32" cy="32" r="32"/>
  <path class="b" d="M26,52.73a2.52,2.52,0,0,1-2.5,2.54h0A2.52,2.52,0,0,1,21,52.73V19.27a2.52,2.52,0,0,1,2.5-2.54h0A2.52,2.52,0,0,1,26,19.27Z"/>
  <path class="b" d="M43,52.73a2.52,2.52,0,0,1-2.5,2.54h0A2.52,2.52,0,0,1,38,52.73V19.27a2.52,2.52,0,0,1,2.5-2.54h0A2.52,2.52,0,0,1,43,19.27Z"/>
  <path class="c" d="M26,51a2.51,2.51,0,0,1-2.5,2.53h0A2.51,2.51,0,0,1,21,51V17.53c0-1.4,1.12-3.53,2.5-3.53h0c1.38,0,2.5,2.13,2.5,3.53Z"/>
  <path class="c" d="M43,51a2.51,2.51,0,0,1-2.5,2.53h0A2.51,2.51,0,0,1,38,51V17.53c0-1.4,1.12-3.53,2.5-3.53h0c1.38,0,2.5,2.13,2.5,3.53Z"/>
  <path class="d" d="M38,43a6,6,0,0,1-6,6h0a6,6,0,0,1-6-6V16c0-3.3,2.69-9,6-9h0c3.31,0,6,5.7,6,9Z"/>
  <path class="b" d="M34.56,51a2,2,0,0,1-2,2H21c-1.1,0-3-.9-3-2V48c0-1.1,1.82-2.22,3-3,6-4,6-12,6-12,1.1,0,7.56,4.9,7.56,6Z"/>
  <path class="b" d="M29.44,51a2,2,0,0,0,2,2H43c1.1,0,3-.9,3-2V48c0-1.1-1.82-2.22-3-3-6-4-6-12-6-12-1.1,0-7.56,4.9-7.56,6Z"/>
  <path class="b" d="M37,54.47c0,1.4-2.24,2.53-5,2.53h0c-2.76,0-5-1.13-5-2.53V24c0-1.4,2.24-7,5-7h0c2.76,0,5,5.6,5,7Z"/>
  <path class="b" d="M34.56,47a2,2,0,0,1-2,2H21c-1.1,0-3-.9-3-2V44c0-1.1,1.82-2.22,3-3,6-4,6-12,6-12,1.1,0,7.56,4.9,7.56,6Z"/>
  <path class="b" d="M29.44,47a2,2,0,0,0,2,2H43c1.1,0,3-.9,3-2V44c0-1.1-1.82-2.22-3-3-6-4-6-12-6-12-1.1,0-7.56,4.9-7.56,6Z"/>
  <g class="e">
    <path class="f" d="M26,51V17.53A3.7,3.7,0,0,0,25,15V53A2.52,2.52,0,0,0,26,51Z"/>
    <path class="f" d="M38,17.53V51a2.52,2.52,0,0,0,1,2V15A3.7,3.7,0,0,0,38,17.53Z"/>
  </g>
  <path class="c" d="M34.56,49a2,2,0,0,1-2,2H21c-1.1,0-3-.9-3-2V46c0-1.1,1.82-2.22,3-3,6-4,6-12,6-12,1.1,0,7.56,4.9,7.56,6Z"/>
  <path class="c" d="M29.44,49a2,2,0,0,0,2,2H43c1.1,0,3-.9,3-2V46c0-1.1-1.82-2.22-3-3-6-4-6-12-6-12-1.1,0-7.56,4.9-7.56,6Z"/>
  <path class="g" d="M37,52.47c0,1.4-2.24,2.53-5,2.53h0c-2.76,0-5-1.13-5-2.53V22c0-1.4,2.24-7,5-7h0c2.76,0,5,5.6,5,7Z"/>
</svg>
