<svg xmlns="http://www.w3.org/2000/svg" viewBox="0 0 64 64">
  <defs>
    <style>
      .a {
        fill: #e0995e;
      }

      .b {
        opacity: 0.2;
      }

      .c {
        fill: #231f20;
      }

      .d {
        fill: #4f5d73;
      }

      .e, .f, .g {
        fill: none;
        stroke-linecap: round;
        stroke-miterlimit: 10;
        stroke-width: 3px;
      }

      .e {
        stroke: #fff;
      }

      .f {
        stroke: #e0e0d1;
      }

      .g {
        stroke: #f5cf87;
      }
    </style>
  </defs>
  <title>Elegant_circle-icons_3</title>
  <circle class="a" cx="32" cy="32" r="32"/>
  <g class="b">
    <path class="c" d="M33.87,12.2A1.94,1.94,0,0,0,33,12a2,2,0,0,0-1.25.44L17.3,24H12a2,2,0,0,0-2,2V42a2,2,0,0,0,2,2h5.3L31.75,55.56A2,2,0,0,0,33,56a1.94,1.94,0,0,0,.87-.2A2,2,0,0,0,35,54V14A2,2,0,0,0,33.87,12.2Z"/>
    <path class="c" d="M38,36.83a1.5,1.5,0,0,0,1.75,2.44,6.48,6.48,0,0,0,0-10.54A1.5,1.5,0,0,0,38,31.17a3.47,3.47,0,0,1,0,5.66Z"/>
    <path class="c" d="M38.52,43.15a1.5,1.5,0,0,0,.39,3,1.39,1.39,0,0,0,.4-.06,12.48,12.48,0,0,0,0-24.08,1.5,1.5,0,1,0-.79,2.89,9.49,9.49,0,0,1,0,18.3Z"/>
    <path class="c" d="M39.17,15.79a1.5,1.5,0,0,0-.51,3,15.48,15.48,0,0,1,0,30.5,1.5,1.5,0,0,0,.25,3,1.14,1.14,0,0,0,.26,0,18.48,18.48,0,0,0,0-36.42Z"/>
  </g>
  <rect class="d" x="10" y="22" width="21" height="20" rx="2"/>
  <g>
    <path class="d" d="M33,53a1,1,0,0,1-.62-.22l-15-12A1,1,0,0,1,17,40V24a1,1,0,0,1,.38-.78l15-12A1,1,0,0,1,33,11a.91.91,0,0,1,.43.1A1,1,0,0,1,34,12V52a1,1,0,0,1-.57.9A.91.91,0,0,1,33,53Z"/>
    <path class="d" d="M33,12V52L18,40V24L33,12m0-2a2,2,0,0,0-1.25.44l-15,12A2,2,0,0,0,16,24V40a2,2,0,0,0,.75,1.56l15,12A2,2,0,0,0,33,54a1.94,1.94,0,0,0,.87-.2A2,2,0,0,0,35,52V12a2,2,0,0,0-1.13-1.8A1.94,1.94,0,0,0,33,10Z"/>
  </g>
  <path class="e" d="M38.91,36.05a5,5,0,0,0,0-8.1"/>
  <path class="f" d="M38.91,42.6a11,11,0,0,0,0-21.2"/>
  <path class="g" d="M38.91,48.73a17,17,0,0,0,0-33.46"/>
</svg>
