<svg xmlns="http://www.w3.org/2000/svg" viewBox="0 0 64 64">
  <defs>
    <style>
      .a {
        fill: #4f5d73;
      }

      .b {
        fill: #e0e0d1;
      }

      .c {
        opacity: 0.2;
      }

      .d {
        fill: #231f20;
      }

      .e {
        fill: #c75c5c;
      }

      .f {
        fill: #fff;
      }

      .g {
        fill: #f5cf87;
      }
    </style>
  </defs>
  <title>Elegant_circle-icons</title>
  <circle class="a" cx="32" cy="32" r="32"/>
  <g>
    <path class="b" d="M47.72,40.59a1.75,1.75,0,0,1,1-.74,2.08,2.08,0,0,1,1.4.11l2.55,1.17a1.69,1.69,0,0,1,.94,1.11,1.91,1.91,0,0,1-.22,1.58,2.18,2.18,0,0,1-1.23,1,1.77,1.77,0,0,1-1.45-.26L48.42,43a2,2,0,0,1-.81-1.13A1.57,1.57,0,0,1,47.72,40.59Z"/>
    <path class="b" d="M16.45,40.79a1.9,1.9,0,0,1-.67,2.41l-2.29,1.62a2,2,0,0,1-2-3.42L14,40.19A1.88,1.88,0,0,1,16.45,40.79Z"/>
    <path class="b" d="M14,31.78a1.86,1.86,0,0,1-1.77,1.75l-2.79.26a2,2,0,0,1-.05-4l2.8.22A1.88,1.88,0,0,1,14,31.78Z"/>
    <path class="b" d="M16.34,22.74a1.82,1.82,0,0,1-1,.74,2.09,2.09,0,0,1-1.4-.12l-2.54-1.17a1.69,1.69,0,0,1-.94-1.11,1.89,1.89,0,0,1,.22-1.57,2.14,2.14,0,0,1,1.23-1,1.75,1.75,0,0,1,1.44.25l2.31,1.59a2.06,2.06,0,0,1,.8,1.14A1.57,1.57,0,0,1,16.34,22.74Z"/>
    <path class="b" d="M22.9,16.08a1.89,1.89,0,0,1-2.41-.67l-1.62-2.28a2,2,0,0,1,3.42-2l1.2,2.53A1.86,1.86,0,0,1,22.9,16.08Z"/>
    <path class="b" d="M31.91,13.6a1.86,1.86,0,0,1-1.75-1.77L29.9,9a2,2,0,0,1,4,0l-.22,2.79A1.86,1.86,0,0,1,31.91,13.6Z"/>
    <path class="b" d="M41,16a1.8,1.8,0,0,1-.74-1,2,2,0,0,1,.12-1.4L41.5,11a1.69,1.69,0,0,1,1.1-.94,1.91,1.91,0,0,1,1.58.22,2.14,2.14,0,0,1,1,1.23A1.77,1.77,0,0,1,44.94,13l-1.59,2.3a2,2,0,0,1-1.14.8A1.53,1.53,0,0,1,41,16Z"/>
    <path class="b" d="M47.61,22.54a1.89,1.89,0,0,1,.67-2.41l2.28-1.62a1.86,1.86,0,0,1,2.68.72,1.89,1.89,0,0,1-.68,2.7L50,23.13A1.89,1.89,0,0,1,47.61,22.54Z"/>
    <path class="b" d="M50.08,31.54a1.87,1.87,0,0,1,1.78-1.74l2.79-.26a2,2,0,0,1,0,4l-2.79-.23A1.87,1.87,0,0,1,50.08,31.54Z"/>
  </g>
  <g class="c">
    <path class="d" d="M41.63,24.37a1.23,1.23,0,0,0-1.54-.18l-4.66,2.9L32.33,29h0c-.11,0-.22,0-.33,0a5,5,0,0,0-5,5c0,.11,0,.22,0,.33A5,5,0,0,0,31.67,39L32,39a5,5,0,0,0,5-5c0-.11,0-.22,0-.33h0l1.94-3.1,2.9-4.66A1.23,1.23,0,0,0,41.63,24.37Z"/>
  </g>
  <path class="e" d="M41.63,22.37a1.23,1.23,0,0,0-1.54-.18l-4.66,2.9L32.33,27h0c-.11,0-.22,0-.33,0a5,5,0,0,0-5,5c0,.11,0,.22,0,.33A5,5,0,0,0,31.67,37L32,37a5,5,0,0,0,5-5c0-.11,0-.22,0-.33h0l1.94-3.1,2.9-4.66A1.23,1.23,0,0,0,41.63,22.37Z"/>
  <circle class="f" cx="32" cy="32" r="5"/>
  <rect class="g" x="24" y="44" width="16" height="8" rx="3"/>
</svg>
