<svg xmlns="http://www.w3.org/2000/svg" viewBox="0 0 64 64">
  <defs>
    <style>
      .a {
        fill: #e0e0d1;
      }

      .b {
        opacity: 0.2;
      }

      .c {
        fill: #231f20;
      }

      .d {
        fill: #c75c5c;
      }

      .e {
        fill: #76c2af;
      }

      .f {
        fill: #4f5d73;
      }
    </style>
  </defs>
  <title>Elegant_circle-icons</title>
  <circle class="a" cx="32" cy="32" r="32"/>
  <g class="b">
    <path class="c" d="M33.75,53.56a3.68,3.68,0,0,1-3.5,0L12.73,43.05a1.12,1.12,0,0,1,0-2.1L30.25,30.44a3.68,3.68,0,0,1,3.5,0L51.27,41a1.12,1.12,0,0,1,0,2.1Z"/>
  </g>
  <path class="d" d="M33.75,51.56a3.68,3.68,0,0,1-3.5,0L12.73,41.05a1.12,1.12,0,0,1,0-2.1L30.25,28.44a3.68,3.68,0,0,1,3.5,0L51.27,39a1.12,1.12,0,0,1,0,2.1Z"/>
  <g class="b">
    <path class="c" d="M33.75,45.56a3.68,3.68,0,0,1-3.5,0L12.73,35.05a1.12,1.12,0,0,1,0-2.1L30.25,22.44a3.68,3.68,0,0,1,3.5,0L51.27,33a1.12,1.12,0,0,1,0,2.1Z"/>
  </g>
  <path class="e" d="M33.75,43.56a3.68,3.68,0,0,1-3.5,0L12.73,33.05a1.12,1.12,0,0,1,0-2.1L30.25,20.44a3.68,3.68,0,0,1,3.5,0L51.27,31a1.12,1.12,0,0,1,0,2.1Z"/>
  <g class="b">
    <path class="c" d="M33.75,37.56a3.68,3.68,0,0,1-3.5,0L12.73,27.05a1.12,1.12,0,0,1,0-2.1L30.25,14.44a3.68,3.68,0,0,1,3.5,0L51.27,25a1.12,1.12,0,0,1,0,2.1Z"/>
  </g>
  <path class="f" d="M33.75,35.56a3.68,3.68,0,0,1-3.5,0L12.73,25.05a1.12,1.12,0,0,1,0-2.1L30.25,12.44a3.68,3.68,0,0,1,3.5,0L51.27,23a1.12,1.12,0,0,1,0,2.1Z"/>
</svg>
