<svg xmlns="http://www.w3.org/2000/svg" viewBox="0 0 64 64">
  <defs>
    <style>
      .a {
        fill: #c75c5c;
      }

      .b {
        opacity: 0.2;
      }

      .c {
        fill: #231f20;
      }

      .d {
        fill: #f5cf87;
      }
    </style>
  </defs>
  <title>Elegant_circle-icons</title>
  <circle class="a" cx="32" cy="32" r="32"/>
  <g class="b">
    <path class="c" d="M52.87,28.06a2.64,2.64,0,0,0-2.12-1.79L39.42,24.63,34.36,14.37a2.63,2.63,0,0,0-4.72,0L24.58,24.63,13.25,26.27a2.64,2.64,0,0,0-1.46,4.49l8.2,8L18.06,50a2.62,2.62,0,0,0,2.59,3.07,2.68,2.68,0,0,0,1.22-.3L32,47.47,42.13,52.8A2.62,2.62,0,0,0,45.94,50L44,38.75l8.2-8A2.65,2.65,0,0,0,52.87,28.06Z"/>
  </g>
  <path class="d" d="M52.87,26.06a2.64,2.64,0,0,0-2.12-1.79L39.42,22.63,34.36,12.37a2.63,2.63,0,0,0-4.72,0L24.58,22.63,13.25,24.27a2.64,2.64,0,0,0-1.46,4.49l8.2,8L18.06,48a2.62,2.62,0,0,0,2.59,3.07,2.68,2.68,0,0,0,1.22-.3L32,45.47,42.13,50.8A2.62,2.62,0,0,0,45.94,48L44,36.75l8.2-8A2.65,2.65,0,0,0,52.87,26.06Z"/>
</svg>
