<svg xmlns="http://www.w3.org/2000/svg" viewBox="0 0 64 64">
  <defs>
    <style>
      .a {
        fill: #77b3d4;
      }

      .b, .e {
        opacity: 0.2;
      }

      .c, .e {
        fill: #231f20;
      }

      .d {
        fill: #4f5d73;
      }

      .f {
        fill: #76c2af;
      }
    </style>
  </defs>
  <title>Elegant_circle-icons_2</title>
  <circle class="a" cx="32" cy="32" r="32"/>
  <g class="b">
    <path class="c" d="M50.94,37.88c.2-1.81.92-3.45,1.23-5.22.1-.6.16-1.19.21-1.79A.53.53,0,0,1,52,31s-12-2-20-2-20,2-20,2c-1.19,0,0-2-1.12-2.09.15,1.14.34,2.28.57,3.41a47,47,0,0,1,1.63,5.55L22.24,37A5.76,5.76,0,0,1,28,42.76v7.48a5.87,5.87,0,0,1-.14,1.19,67.76,67.76,0,0,0,8.31.15A5.85,5.85,0,0,1,36,50.24V42.76A5.76,5.76,0,0,1,41.76,37l9.18.88Z"/>
  </g>
  <path class="d" d="M12,28c-1.2,0,0-2-1.14-2.1A22.31,22.31,0,0,0,10,32c0,.76,0,1.5.11,2.24.52-.15,1.08.76,1.65.76l10.48-1A5.76,5.76,0,0,1,28,39.76v7.48a5.76,5.76,0,0,1-3.7,5.37,22,22,0,0,0,15.4,0A5.76,5.76,0,0,1,36,47.24V39.76A5.76,5.76,0,0,1,41.76,34l10.48,1c.57,0,1.13-.91,1.65-.76C54,33.5,54,32.76,54,32a22.31,22.31,0,0,0-.86-6.1C52,26,53.2,28,52,28c0,0-12-2-20-2S12,28,12,28Z"/>
  <circle class="e" cx="32" cy="33" r="3"/>
  <circle class="f" cx="32" cy="32" r="3"/>
  <path class="e" d="M32,16A17.5,17.5,0,1,1,14.5,33.5,17.52,17.52,0,0,1,32,16m0-4A22,22,0,1,0,54,34,22,22,0,0,0,32,12Z"/>
  <path class="d" d="M32,14A18,18,0,1,1,14,32,18,18,0,0,1,32,14m0-4A22,22,0,1,0,54,32,22,22,0,0,0,32,10Z"/>
</svg>
