<svg xmlns="http://www.w3.org/2000/svg" viewBox="0 0 64 64">
  <defs>
    <style>
      .a {
        fill: #4f5d73;
      }

      .b {
        fill: #231f20;
        opacity: 0.2;
      }

      .c {
        fill: #c75c5c;
      }

      .d {
        fill: #fff;
      }
    </style>
  </defs>
  <title>Elegant_circle-icons_2</title>
  <circle class="a" cx="32" cy="32" r="32"/>
  <path class="b" d="M26.3,55a8.33,8.33,0,0,1-5.12-2.12l-8.06-8.06A8.33,8.33,0,0,1,11,39.7V28.3a8.33,8.33,0,0,1,2.12-5.12l8.06-8.06A8.33,8.33,0,0,1,26.3,13H37.7a8.33,8.33,0,0,1,5.12,2.12l8.06,8.06A8.33,8.33,0,0,1,53,28.3V39.7a8.33,8.33,0,0,1-2.12,5.12l-8.06,8.06A8.33,8.33,0,0,1,37.7,55Z"/>
  <path class="c" d="M26.3,53a8.33,8.33,0,0,1-5.12-2.12l-8.06-8.06A8.33,8.33,0,0,1,11,37.7V26.3a8.33,8.33,0,0,1,2.12-5.12l8.06-8.06A8.33,8.33,0,0,1,26.3,11H37.7a8.33,8.33,0,0,1,5.12,2.12l8.06,8.06A8.33,8.33,0,0,1,53,26.3V37.7a8.33,8.33,0,0,1-2.12,5.12l-8.06,8.06A8.33,8.33,0,0,1,37.7,53Z"/>
  <rect class="d" x="19" y="26" width="26" height="12" rx="4"/>
</svg>
