<svg xmlns="http://www.w3.org/2000/svg" viewBox="0 0 64 64">
  <defs>
    <style>
      .a {
        fill: #4f5d73;
      }

      .b {
        fill: #f5cf87;
      }

      .c {
        fill: #e0995e;
      }

      .d {
        fill: #231f20;
        opacity: 0.2;
      }
    </style>
  </defs>
  <title>Elegant_circle-icons_2</title>
  <circle class="a" cx="32" cy="32" r="32"/>
  <path class="b" d="M44.17,26.58S40.27,20,38.58,20H29.41c-1.68,0-5.58,6.58-5.58,6.58h0c0,3.09.84,4.59,2.53,4.59H41.64c1.69,0,2.53-1.5,2.53-4.59Z"/>
  <path class="b" d="M20.83,38.29s4,6.59,5.77,6.59H42.27C44,44.88,48,38.29,48,38.29h0c0-3.08-.87-4.58-2.61-4.58h-22c-1.74,0-2.61,1.5-2.61,4.58Z"/>
  <path class="c" d="M16,36c0,1.09-2.89,6-4,6h0a2,2,0,0,1-2-2V26a2,2,0,0,1,2-2h0c1.09,0,4,4.88,4,6Z"/>
  <path class="d" d="M56,35c0-5.52-8.85-9-21-9S8,33.31,8,35s14.85,9,27,9S56,40.52,56,35Z"/>
  <path class="b" d="M56,33c0-5.52-8.85-9-21-9S8,31.31,8,33s14.85,9,27,9S56,38.52,56,33Z"/>
  <circle class="c" cx="36" cy="32" r="3"/>
  <circle class="c" cx="46" cy="32" r="3"/>
  <circle class="c" cx="26" cy="32" r="3"/>
</svg>
