<svg xmlns="http://www.w3.org/2000/svg" viewBox="0 0 64 64">
  <defs>
    <style>
      .a {
        fill: #4f5d73;
      }

      .b {
        opacity: 0.2;
      }

      .c {
        fill: #231f20;
      }

      .d {
        fill: #fff;
      }

      .e {
        fill: #e0995e;
      }
    </style>
  </defs>
  <title>Elegant_circle-icons</title>
  <circle class="a" cx="32" cy="32" r="32"/>
  <g class="b">
    <path class="c" d="M10,34A22,22,0,1,0,32,12,22,22,0,0,0,10,34Zm34,0A12,12,0,1,1,32,22,12,12,0,0,1,44,34Z"/>
  </g>
  <path class="d" d="M10,32A22,22,0,1,0,32,10,22,22,0,0,0,10,32Zm34,0A12,12,0,1,1,32,20,12,12,0,0,1,44,32Z"/>
  <g class="b">
    <path class="c" d="M27.93,22.86A2.2,2.2,0,0,1,28,26l-4,4a2.2,2.2,0,0,1-3.11-.08l-7.42-7.42a2.21,2.21,0,0,1-.08-3.11l4-4a2.21,2.21,0,0,1,3.11.08Z"/>
  </g>
  <g class="b">
    <path class="c" d="M50.56,45.49a2.21,2.21,0,0,1,.08,3.11l-4,4a2.21,2.21,0,0,1-3.11-.08l-7.42-7.42A2.2,2.2,0,0,1,36,42l4-4a2.2,2.2,0,0,1,3.11.08Z"/>
  </g>
  <g class="b">
    <path class="c" d="M43.14,29.93A2.2,2.2,0,0,1,40,30l-4-4a2.2,2.2,0,0,1,.08-3.11l7.42-7.42a2.21,2.21,0,0,1,3.11-.08l4,4a2.21,2.21,0,0,1-.08,3.11Z"/>
  </g>
  <g class="b">
    <path class="c" d="M20.51,52.56a2.21,2.21,0,0,1-3.11.08l-4-4a2.21,2.21,0,0,1,.08-3.11l7.42-7.42A2.2,2.2,0,0,1,24,38l4,4a2.2,2.2,0,0,1-.08,3.11Z"/>
  </g>
  <path class="e" d="M27.93,20.86A2.2,2.2,0,0,1,28,24l-4,4a2.2,2.2,0,0,1-3.11-.08l-7.42-7.42a2.21,2.21,0,0,1-.08-3.11l4-4a2.21,2.21,0,0,1,3.11.08Z"/>
  <path class="e" d="M50.56,43.49a2.21,2.21,0,0,1,.08,3.11l-4,4a2.21,2.21,0,0,1-3.11-.08l-7.42-7.42A2.2,2.2,0,0,1,36,40l4-4a2.2,2.2,0,0,1,3.11.08Z"/>
  <path class="e" d="M43.14,27.93A2.2,2.2,0,0,1,40,28l-4-4a2.2,2.2,0,0,1,.08-3.11l7.42-7.42a2.21,2.21,0,0,1,3.11-.08l4,4a2.21,2.21,0,0,1-.08,3.11Z"/>
  <path class="e" d="M20.51,50.56a2.21,2.21,0,0,1-3.11.08l-4-4a2.21,2.21,0,0,1,.08-3.11l7.42-7.42A2.2,2.2,0,0,1,24,36l4,4a2.2,2.2,0,0,1-.08,3.11Z"/>
</svg>
