<svg xmlns="http://www.w3.org/2000/svg" viewBox="0 0 64 64">
  <defs>
    <style>
      .a {
        fill: #4f5d73;
      }

      .b, .k {
        opacity: 0.2;
      }

      .c, .k {
        fill: #231f20;
      }

      .d {
        fill: #77b3d4;
      }

      .e {
        fill: #e0e0d1;
      }

      .f {
        fill: #76c2af;
      }

      .g {
        fill: #f5cf87;
      }

      .h {
        fill: #fff;
      }

      .i {
        fill: #e0995e;
      }

      .j {
        fill: #c75c5c;
      }
    </style>
  </defs>
  <title>Elegant_circle-icons_3</title>
  <circle class="a" cx="32" cy="32" r="32"/>
  <g class="b">
    <rect class="c" x="13.96" y="33.02" width="40" height="12" rx="2" transform="translate(-11.68 14.67) rotate(-20.89)"/>
  </g>
  <g>
    <path class="d" d="M19.2,48.28a1,1,0,0,1-.93-.64l-2.86-7.48A1,1,0,0,1,16,38.87L49.62,26A.92.92,0,0,1,50,26a1,1,0,0,1,.94.65l2.85,7.47a1,1,0,0,1,0,.77,1,1,0,0,1-.56.52L19.56,48.22A1.13,1.13,0,0,1,19.2,48.28Z"/>
    <path class="e" d="M50,27h0l2.85,7.48L19.2,47.28l-2.85-7.47L50,27m0-2a1.94,1.94,0,0,0-.71.13L15.63,37.94a2,2,0,0,0-1.15,2.58L17.33,48a2,2,0,0,0,1.87,1.29,1.94,1.94,0,0,0,.71-.13L53.55,36.32a2,2,0,0,0,1.15-2.59l-2.85-7.47A2,2,0,0,0,50,25Z"/>
  </g>
  <g class="b">
    <rect class="c" x="12.63" y="30.44" width="40" height="12" rx="2" transform="translate(-14.74 24.23) rotate(-33.71)"/>
  </g>
  <g>
    <path class="f" d="M20.51,48.86a1,1,0,0,1-.84-.44l-4.44-6.66a1,1,0,0,1,.28-1.38l30-20a1,1,0,0,1,.55-.17,1,1,0,0,1,.83.45l4.44,6.65a1,1,0,0,1,.15.75,1,1,0,0,1-.42.64l-29.95,20A1,1,0,0,1,20.51,48.86Z"/>
    <path class="e" d="M46,21.23h0l4.44,6.66-29.94,20-4.44-6.65L46,21.23m0-2a2,2,0,0,0-1.11.34L15,39.55a2,2,0,0,0-.56,2.77L18.84,49a2,2,0,0,0,2.78.56l29.94-20a2,2,0,0,0,.56-2.77l-4.44-6.66A2,2,0,0,0,46,19.23Z"/>
  </g>
  <g class="b">
    <rect class="c" x="10.91" y="28.38" width="40" height="12" rx="2" transform="translate(-15.28 32.38) rotate(-45.57)"/>
  </g>
  <g>
    <path class="g" d="M21.8,49.13a1,1,0,0,1-.7-.28l-5.71-5.6a1,1,0,0,1-.3-.71,1,1,0,0,1,.28-.71l25.21-25.7a1,1,0,0,1,.71-.3,1,1,0,0,1,.7.28l5.71,5.6a1,1,0,0,1,0,1.42L22.51,48.83A.94.94,0,0,1,21.8,49.13Z"/>
    <path class="h" d="M41.29,16.83h0L47,22.43,21.8,48.13l-5.71-5.6,25.2-25.7h0m0-2a2,2,0,0,0-1.43.6l-25.2,25.7a2,2,0,0,0,0,2.83l5.71,5.6a2,2,0,0,0,2.83,0l25.2-25.7a2,2,0,0,0,0-2.83l-5.71-5.6a2,2,0,0,0-1.4-.57Z"/>
  </g>
  <g class="b">
    <rect class="c" x="8.5" y="26.51" width="40" height="12" rx="2" transform="translate(-14.04 40.24) rotate(-59.07)"/>
  </g>
  <g>
    <path class="i" d="M23.3,49.11a1,1,0,0,1-.51-.15l-6.86-4.11a1,1,0,0,1-.34-1.37L34.09,12.6a1,1,0,0,1,.86-.48.91.91,0,0,1,.51.14l6.87,4.11a1,1,0,0,1,.34,1.37L24.16,48.62A1,1,0,0,1,23.3,49.11Z"/>
    <path class="h" d="M35,13.12h0l6.86,4.11L23.31,48.11,16.44,44,35,13.12h0m0-2a2,2,0,0,0-1.72,1L14.73,43a2,2,0,0,0,.69,2.74l6.86,4.11a1.91,1.91,0,0,0,1,.29,2,2,0,0,0,1.72-1L43.53,18.26a2,2,0,0,0-.69-2.75L36,11.4a2,2,0,0,0-1-.28Z"/>
  </g>
  <g class="b">
    <rect class="c" x="5.92" y="25.33" width="40" height="12" rx="2" transform="translate(-11.99 46.01) rotate(-71.56)"/>
  </g>
  <g>
    <path class="j" d="M24.66,48.77a1.19,1.19,0,0,1-.32-.05l-7.59-2.53a1,1,0,0,1-.58-.5,1.08,1.08,0,0,1-.05-.77L27.5,10.77a1,1,0,0,1,.95-.68.86.86,0,0,1,.32.05l7.59,2.53a1,1,0,0,1,.58.5,1,1,0,0,1,.05.76L25.61,48.09A1,1,0,0,1,24.66,48.77Z"/>
    <path class="h" d="M28.45,11.09,36,13.62,24.66,47.77l-7.59-2.53L28.45,11.09m0-2a2,2,0,0,0-1.89,1.37L15.17,44.61a2,2,0,0,0,1.27,2.53L24,49.67a2,2,0,0,0,.63.1,2,2,0,0,0,1.9-1.37L37.94,14.25a2,2,0,0,0-1.26-2.53L29.09,9.19a2,2,0,0,0-.64-.1Z"/>
  </g>
  <path class="k" d="M23.88,43.43a1.87,1.87,0,1,1-1.18-2.37A1.87,1.87,0,0,1,23.88,43.43Z"/>
  <path class="h" d="M24.28,42.24a1.88,1.88,0,1,1-1.19-2.37A1.89,1.89,0,0,1,24.28,42.24Z"/>
</svg>
