<svg xmlns="http://www.w3.org/2000/svg" viewBox="0 0 64 64">
  <defs>
    <style>
      .a {
        fill: #76c2af;
      }

      .b {
        fill: #231f20;
        opacity: 0.2;
      }

      .c {
        fill: #fff;
      }
    </style>
  </defs>
  <title>Elegant_circle-icons_2</title>
  <circle class="a" cx="32" cy="32" r="32"/>
  <path class="b" d="M50.49,25.37,31,43.15a14.07,14.07,0,0,1-10.37,3,42.9,42.9,0,0,1-10.52-3.08L12,40.63H22.25S39.82,26,42.08,23.73C44,21.81,48.83,20.47,52,21.21,53.06,21.45,53.49,22.37,50.49,25.37Z"/>
  <polygon class="b" points="33.17 35.3 15.75 32.63 18.34 29.07 40.5 29.07 33.17 35.3"/>
  <path class="c" d="M50.49,23.37,31,41.15a14.07,14.07,0,0,1-10.37,3,42.9,42.9,0,0,1-10.52-3.08L12,38.63H22.25S39.82,24,42.08,21.73C44,19.81,48.83,18.47,52,19.21,53.06,19.45,53.49,20.37,50.49,23.37Z"/>
  <polygon class="c" points="33.17 33.3 15.75 30.63 18 26.63 41 26.63 33.17 33.3"/>
</svg>
