<svg xmlns="http://www.w3.org/2000/svg" viewBox="0 0 64 64">
  <defs>
    <style>
      .a {
        fill: #76c2af;
      }

      .b {
        opacity: 0.2;
      }

      .c {
        fill: #231f20;
      }

      .d {
        fill: #4f5d73;
      }

      .e {
        fill: #f5cf87;
      }

      .f {
        fill: #fff;
      }
    </style>
  </defs>
  <title>Elegant_circle-icons</title>
  <circle class="a" cx="32" cy="32" r="32"/>
  <g class="b">
    <path class="c" d="M49.9,46.24,35.76,32.1a4,4,0,0,0-3.8-1l-8.09-8-3-5.9-5.91-3L12.05,17l3,5.91L21,26h0l8.07,8a4,4,0,0,0,1,3.85L44.24,51.9a4,4,0,0,0,5.66-5.66Z"/>
  </g>
  <polygon class="d" points="34.5 37.26 18.4 21.36 21.33 18.57 37.43 34.47 34.5 37.26"/>
  <path class="e" d="M49.9,49.9a4,4,0,0,1-5.66,0L30.1,35.76a4,4,0,0,1,0-5.66h0a4,4,0,0,1,5.66,0L49.9,44.24a4,4,0,0,1,0,5.66Z"/>
  <g class="b">
    <path class="c" d="M53.3,18.35l-6.47,6.48a4,4,0,0,1-5.66-5.66l6.48-6.47A9.84,9.84,0,0,0,44,12,10,10,0,0,0,34,22a9.84,9.84,0,0,0,.7,3.65L23.65,36.7A9.84,9.84,0,0,0,20,36,10,10,0,0,0,10,46a9.84,9.84,0,0,0,.7,3.65l6.47-6.48a4,4,0,0,1,5.66,5.66L16.35,55.3A9.84,9.84,0,0,0,20,56,10,10,0,0,0,30,46a9.84,9.84,0,0,0-.7-3.65l11.05-11A9.84,9.84,0,0,0,44,32,10,10,0,0,0,54,22,9.84,9.84,0,0,0,53.3,18.35Z"/>
  </g>
  <rect class="f" x="23.43" y="28" width="17.14" height="8" transform="translate(-13.25 32) rotate(-45)"/>
  <polygon class="d" points="21 23.95 15.09 20.91 12.05 14.99 14.92 12.13 20.83 15.17 23.87 21.08 21 23.95"/>
  <path class="f" d="M46.83,22.83a4,4,0,0,1-5.66-5.66l6.48-6.47A9.84,9.84,0,0,0,44,10,10,10,0,1,0,54,20a9.84,9.84,0,0,0-.7-3.65Z"/>
  <path class="f" d="M17.17,41.17a4,4,0,0,1,5.66,5.66L16.35,53.3A9.84,9.84,0,0,0,20,54,10,10,0,1,0,10,44a9.84,9.84,0,0,0,.7,3.65Z"/>
</svg>
