<svg xmlns="http://www.w3.org/2000/svg" viewBox="0 0 64 64">
  <defs>
    <style>
      .a {
        fill: #c75c5c;
      }

      .b, .f {
        opacity: 0.2;
      }

      .c, .f {
        fill: #231f20;
      }

      .d {
        fill: #76c2af;
      }

      .e {
        fill: #f5cf87;
      }

      .g {
        fill: #4f5d73;
      }
    </style>
  </defs>
  <title>Elegant_circle-icons_2</title>
  <circle class="a" cx="32" cy="32" r="32"/>
  <g class="b">
    <path class="c" d="M47.5,38A6.44,6.44,0,0,1,52,39.82V34a4,4,0,0,0-4-4H37.58C36.1,24.73,34.12,17.62,34,17a2,2,0,0,0-2-2H20a2,2,0,0,0-2,2V27.7a11.8,11.8,0,0,1,4-.7V19h8.38c.58,2.16,1.82,6.61,3.05,11h-3.5a11.95,11.95,0,0,1,2.45,15H41a4.19,4.19,0,0,1,0-.5A6.5,6.5,0,0,1,47.5,38Z"/>
    <circle class="c" cx="22" cy="39" r="8"/>
    <circle class="c" cx="47.5" cy="44.5" r="2.5"/>
  </g>
  <path class="d" d="M30.38,17c.67,2.51,2.23,8.1,3.64,13.1l-12,1V17h8.38M32,13H20a2,2,0,0,0-2,2V35.44l21.19-1.75S34.19,16,34,15a2,2,0,0,0-2-2Z"/>
  <rect class="d" x="26" y="28" width="26" height="15" rx="4"/>
  <circle class="e" cx="22" cy="37" r="8"/>
  <circle class="e" cx="47.5" cy="42.5" r="2.5"/>
  <path class="f" d="M29.93,30A11.94,11.94,0,0,0,22,27a11.8,11.8,0,0,0-4,.7A12,12,0,1,0,29.93,30ZM22,47a8,8,0,1,1,8-8A8,8,0,0,1,22,47Z"/>
  <path class="f" d="M52,39.82A6.49,6.49,0,0,0,41,44.5a4.19,4.19,0,0,0,0,.5,6.49,6.49,0,1,0,11-5.18ZM50,44.5A2.5,2.5,0,1,1,47.5,42,2.5,2.5,0,0,1,50,44.5Z"/>
  <path class="g" d="M22,25A12,12,0,1,0,34,37,12,12,0,0,0,22,25Zm0,20a8,8,0,1,1,8-8A8,8,0,0,1,22,45Z"/>
  <path class="g" d="M47.5,36A6.5,6.5,0,1,0,54,42.5,6.5,6.5,0,0,0,47.5,36Zm0,9A2.5,2.5,0,1,1,50,42.5,2.5,2.5,0,0,1,47.5,45Z"/>
  <path class="f" d="M34,15l-3.61,2s.53,2.08.53,2H34a2,2,0,0,0,0-4Z"/>
  <path class="d" d="M36,15a2,2,0,0,1-2,2H20a2,2,0,0,1-2-2h0a2,2,0,0,1,2-2H34a2,2,0,0,1,2,2Z"/>
</svg>
