<svg xmlns="http://www.w3.org/2000/svg" viewBox="0 0 64 64">
  <defs>
    <style>
      .a {
        fill: #e0e0d1;
      }

      .b, .f {
        opacity: 0.2;
      }

      .c, .f {
        fill: #231f20;
      }

      .d {
        fill: none;
        stroke: #e0995e;
        stroke-linecap: round;
        stroke-miterlimit: 10;
        stroke-width: 3px;
      }

      .e {
        fill: #c75c5c;
      }
    </style>
  </defs>
  <title>Elegant_circle-icons_2</title>
  <circle class="a" cx="32" cy="32" r="32"/>
  <g class="b">
    <path class="c" d="M51,36.91a8.5,8.5,0,0,1-17,0C34,30.73,42.5,23,42.5,23S51,30.73,51,36.91Z"/>
  </g>
  <g class="b">
    <path class="c" d="M11,42.5a1.5,1.5,0,0,1-.76-2.79l39-23a1.5,1.5,0,1,1,1.52,2.58l-39,23A1.5,1.5,0,0,1,11,42.5Z"/>
  </g>
  <line class="d" x1="11" y1="39" x2="50" y2="16"/>
  <path class="e" d="M51,34.91a8.5,8.5,0,0,1-17,0C34,28.73,42.5,21,42.5,21S51,28.73,51,34.91Z"/>
  <path class="f" d="M39.82,21.64c.56-1.11,0-4-4-3-4.95,1.24-5-2-5-2s-1.91,4.67,3.48,6.26C36.82,23.64,38.82,23.64,39.82,21.64Z"/>
  <path class="e" d="M39.82,20c.56-1.12,0-4-4-3-4.95,1.24-5-2-5-2s-1.91,4.66,3.48,6.26C36.82,22,38.82,22,39.82,20Z"/>
  <path class="f" d="M45.49,21.91c-.83.93-1.06,3.86,3.06,4,5.1.12,4.29,3.25,4.29,3.25s3.09-4-1.69-6.95C48.92,20.78,47,20.25,45.49,21.91Z"/>
  <path class="e" d="M45.49,20c-.83.93-1.06,3.86,3.06,4,5.1.12,4.29,3.25,4.29,3.25s3.09-4-1.69-6.95C48.92,18.9,47,18.37,45.49,20Z"/>
  <circle class="f" cx="42.5" cy="21.5" r="4.5"/>
  <circle class="e" cx="42.5" cy="20" r="4"/>
</svg>
