<svg xmlns="http://www.w3.org/2000/svg" viewBox="0 0 64 64">
  <defs>
    <style>
      .a {
        fill: #76c2af;
      }

      .b {
        fill: #fff;
      }

      .c {
        fill: #c75c5c;
      }

      .d {
        opacity: 0.2;
      }

      .e {
        fill: #231f20;
      }

      .f {
        fill: #4f5d73;
      }
    </style>
  </defs>
  <title>Elegant_circle-icons</title>
  <circle class="a" cx="32" cy="32" r="32"/>
  <path class="b" d="M29.12,44.5a1.52,1.52,0,0,1-1.22-.63L17.62,29.31,9.83,34.5A1.5,1.5,0,0,1,8.17,32l9-6a1.51,1.51,0,0,1,2.06.38L29,40.16,39.68,20.41a1.5,1.5,0,0,1,2.51-.2l13,16.87a1.5,1.5,0,0,1-2.38,1.84l-11.59-15L30.44,43.72a1.5,1.5,0,0,1-1.23.78Z"/>
  <circle class="c" cx="41" cy="23.13" r="4.38"/>
  <g class="d">
    <path class="e" d="M29.12,46.5a1.52,1.52,0,0,1-1.22-.63L17.62,31.31,9.83,36.5A1.5,1.5,0,1,1,8.17,34l9-6a1.51,1.51,0,0,1,2.06.38L29,42.16,39.68,22.41a1.5,1.5,0,0,1,2.51-.2l13,16.87a1.5,1.5,0,0,1-2.38,1.84l-11.59-15L30.44,45.72a1.5,1.5,0,0,1-1.23.78Z"/>
  </g>
  <path class="b" d="M29.12,44.5a1.52,1.52,0,0,1-1.22-.63L17.62,29.31,9.83,34.5A1.5,1.5,0,0,1,8.17,32l9-6a1.51,1.51,0,0,1,2.06.38L29,40.16,39.68,20.41a1.5,1.5,0,0,1,2.51-.2l13,16.87a1.5,1.5,0,0,1-2.38,1.84l-11.59-15L30.44,43.72a1.5,1.5,0,0,1-1.23.78Z"/>
  <g class="d">
    <circle class="e" cx="41" cy="25.13" r="4.38"/>
  </g>
  <circle class="f" cx="41" cy="23.13" r="4.38"/>
</svg>
