<svg xmlns="http://www.w3.org/2000/svg" viewBox="0 0 64 64">
  <defs>
    <style>
      .a {
        fill: #76c2af;
      }

      .b {
        opacity: 0.2;
      }

      .c {
        fill: #231f20;
      }

      .d {
        fill: #4f5d73;
      }

      .e {
        fill: #e0e0d1;
      }

      .f {
        fill: #fff;
      }
    </style>
  </defs>
  <title>Elegant_circle-icons_3</title>
  <circle class="a" cx="32" cy="32" r="32"/>
  <g class="b">
    <path class="c" d="M32,22a2,2,0,0,1-2-2V16a2,2,0,0,1,4,0v4A2,2,0,0,1,32,22Z"/>
  </g>
  <path class="d" d="M32,20a2,2,0,0,1-2-2V14a2,2,0,0,1,4,0v4A2,2,0,0,1,32,20Z"/>
  <g class="b">
    <path class="c" d="M36,18H28a2,2,0,0,1,0-4h8a2,2,0,0,1,0,4Z"/>
  </g>
  <path class="d" d="M36,16H28a2,2,0,0,1,0-4h8a2,2,0,0,1,0,4Z"/>
  <g class="b">
    <path class="c" d="M32,54a2,2,0,0,1-2-2V28a2,2,0,0,1,4,0V52A2,2,0,0,1,32,54Z"/>
  </g>
  <path class="e" d="M32,52a2,2,0,0,1-2-2V26a2,2,0,0,1,4,0V50A2,2,0,0,1,32,52Z"/>
  <g class="b">
    <path class="c" d="M48,54a2,2,0,0,1-1.66-.89L32,31.61,17.66,53.11a2,2,0,0,1-3.32-2.22l16-24a2,2,0,0,1,3.32,0l16,24A2,2,0,0,1,48,54Z"/>
  </g>
  <path class="f" d="M48,52a2,2,0,0,1-1.66-.89L32,29.61,17.66,51.11a2,2,0,0,1-3.32-2.22l16-24a2,2,0,0,1,3.32,0l16,24A2,2,0,0,1,48,52Z"/>
</svg>
