<svg xmlns="http://www.w3.org/2000/svg" viewBox="0 0 64 64">
  <defs>
    <style>
      .a {
        fill: #f5cf87;
      }

      .b, .f {
        fill: #231f20;
      }

      .b, .e, .h {
        opacity: 0.2;
      }

      .c {
        fill: #4f5d73;
      }

      .d {
        fill: #e0e0d1;
      }

      .g {
        fill: #76c2af;
      }

      .h {
        fill: #fff;
      }
    </style>
  </defs>
  <title>Elegant_circle-icons_3</title>
  <circle class="a" cx="32" cy="32" r="32"/>
  <rect class="b" x="12" y="17" width="40" height="34" rx="2"/>
  <rect class="c" x="12" y="15" width="40" height="34" rx="2"/>
  <rect class="d" x="16" y="18.87" width="32" height="20.13" rx="2"/>
  <g class="e">
    <path class="f" d="M46,18.87H18a2,2,0,0,0-2,2V22a2,2,0,0,1,2-2H46a2,2,0,0,1,2,2V20.87A2,2,0,0,0,46,18.87Z"/>
  </g>
  <path class="b" d="M20,45a2,2,0,0,1-2,2h0a2,2,0,0,1-2-2h0a2,2,0,0,1,2-2h0a2,2,0,0,1,2,2Z"/>
  <path class="b" d="M48,45a2,2,0,0,1-2,2h0a2,2,0,0,1-2-2h0a2,2,0,0,1,2-2h0a2,2,0,0,1,2,2Z"/>
  <path class="g" d="M20,44a2,2,0,0,1-2,2h0a2,2,0,0,1-2-2h0a2,2,0,0,1,2-2h0a2,2,0,0,1,2,2Z"/>
  <path class="g" d="M48,44a2,2,0,0,1-2,2h0a2,2,0,0,1-2-2h0a2,2,0,0,1,2-2h0a2,2,0,0,1,2,2Z"/>
  <path class="a" d="M25,45a1,1,0,0,1-1,1h0a1,1,0,0,1-1-1V43a1,1,0,0,1,1-1h0a1,1,0,0,1,1,1Z"/>
  <path class="a" d="M29,45a1,1,0,0,1-1,1h0a1,1,0,0,1-1-1V43a1,1,0,0,1,1-1h0a1,1,0,0,1,1,1Z"/>
  <path class="a" d="M37,45a1,1,0,0,1-1,1h0a1,1,0,0,1-1-1V43a1,1,0,0,1,1-1h0a1,1,0,0,1,1,1Z"/>
  <path class="a" d="M41,45a1,1,0,0,1-1,1h0a1,1,0,0,1-1-1V43a1,1,0,0,1,1-1h0a1,1,0,0,1,1,1Z"/>
  <path class="a" d="M33,45a1,1,0,0,1-1,1h0a1,1,0,0,1-1-1V43a1,1,0,0,1,1-1h0a1,1,0,0,1,1,1Z"/>
  <g class="e">
    <path class="f" d="M24,42a1,1,0,0,0-1,1v1a1,1,0,0,1,2,0V43A1,1,0,0,0,24,42Z"/>
    <path class="f" d="M28,42a1,1,0,0,0-1,1v1a1,1,0,0,1,2,0V43A1,1,0,0,0,28,42Z"/>
    <path class="f" d="M36,42a1,1,0,0,0-1,1v1a1,1,0,0,1,2,0V43A1,1,0,0,0,36,42Z"/>
    <path class="f" d="M40,42a1,1,0,0,0-1,1v1a1,1,0,0,1,2,0V43A1,1,0,0,0,40,42Z"/>
    <path class="f" d="M32,42a1,1,0,0,0-1,1v1a1,1,0,0,1,2,0V43A1,1,0,0,0,32,42Z"/>
  </g>
  <path class="h" d="M48,37V20.87a2,2,0,0,0-2-2H25.5L37.08,39H46A2,2,0,0,0,48,37Z"/>
</svg>
