<svg xmlns="http://www.w3.org/2000/svg" viewBox="0 0 64 64">
  <defs>
    <style>
      .a {
        fill: #77b3d4;
      }

      .b, .d {
        fill: #231f20;
      }

      .b, .c {
        opacity: 0.2;
      }

      .e {
        fill: none;
        stroke: #fff;
        stroke-linecap: round;
        stroke-linejoin: round;
        stroke-width: 3px;
      }
    </style>
  </defs>
  <title>Elegant_circle-icons_3</title>
  <circle class="a" cx="32" cy="32" r="32"/>
  <path class="b" d="M35.4,46.47l-12-32a1.5,1.5,0,0,0-2.8,0l-12,32a1.5,1.5,0,1,0,2.8,1.06L16.1,35H27.9l4.7,12.53a1.49,1.49,0,0,0,1.4,1,1.42,1.42,0,0,0,.53-.1A1.49,1.49,0,0,0,35.4,46.47ZM17.23,32,22,19.27,26.77,32Z"/>
  <g class="c">
    <path class="d" d="M53,48.5H45A8.51,8.51,0,0,1,36.5,40c0-4.56,3.65-8,8.5-8h6.5V31A4.23,4.23,0,0,0,50,27.45c-2.53-2-7.85-1.4-9.69-1a1.5,1.5,0,0,1-.66-2.92c.33-.08,8-1.77,12.22,1.57A7.13,7.13,0,0,1,54.5,31V47A1.5,1.5,0,0,1,53,48.5ZM45,35c-3.19,0-5.5,2.1-5.5,5A5.51,5.51,0,0,0,45,45.5h6.5V35Z"/>
  </g>
  <polyline class="e" points="10 45 22 13 34 45"/>
  <line class="e" x1="16" y1="31.5" x2="28" y2="31.5"/>
  <path class="e" d="M40,23s13-2.94,13,6V45H45a7,7,0,0,1-7-7h0c0-3.87,3.13-6.5,7-6.5h7"/>
</svg>
