<svg xmlns="http://www.w3.org/2000/svg" viewBox="0 0 64 64">
  <defs>
    <style>
      .a {
        fill: #77b3d4;
      }

      .b {
        opacity: 0.2;
      }

      .c {
        fill: #231f20;
      }

      .d {
        fill: #4f5d73;
      }

      .e {
        fill: #c75c5c;
      }

      .f {
        fill: #fff;
      }
    </style>
  </defs>
  <title>Elegant_circle-icons</title>
  <circle class="a" cx="32" cy="32" r="32"/>
  <g class="b">
    <path class="c" d="M26,56a8,8,0,0,1-8-8,2,2,0,0,1,4,0,4,4,0,0,0,8,0V12a2,2,0,0,1,4,0V48A8,8,0,0,1,26,56Z"/>
  </g>
  <path class="d" d="M26,54a8,8,0,0,1-8-8,2,2,0,0,1,4,0,4,4,0,0,0,8,0V10a2,2,0,0,1,4,0V46A8,8,0,0,1,26,54Z"/>
  <g class="b">
    <path class="c" d="M32,12A24,24,0,0,0,8,36c5.05-3.41,10.91,0,10.91,0,0-1.21,5.86-3.27,13.09-3.27S45.09,34.79,45.09,36c0,0,5.8-3.41,10.91,0A24,24,0,0,0,32,12Z"/>
  </g>
  <g>
    <path class="e" d="M18.91,34S19.18,16.34,32,10A24,24,0,0,0,8,34C13.05,30.59,18.91,34,18.91,34Z"/>
    <path class="e" d="M45.09,34s5.8-3.41,10.91,0A24,24,0,0,0,32,10C44.82,16.34,45.09,34,45.09,34Z"/>
    <path class="f" d="M18.91,34c0-1.21,5.86-3.27,13.09-3.27S45.09,32.79,45.09,34c0,0-.27-17.66-13.09-24C19.18,16.34,18.91,34,18.91,34Z"/>
  </g>
  <path class="d" d="M32,13a2,2,0,0,1-2-2V10a2,2,0,0,1,4,0v1A2,2,0,0,1,32,13Z"/>
</svg>
