<svg xmlns="http://www.w3.org/2000/svg" viewBox="0 0 64 64">
  <defs>
    <style>
      .a {
        fill: #76c2af;
      }

      .b {
        opacity: 0.2;
      }

      .c {
        fill: #231f20;
      }

      .d {
        fill: #4f5d73;
      }

      .e, .f, .g {
        fill: none;
        stroke-linecap: round;
        stroke-miterlimit: 10;
        stroke-width: 4px;
      }

      .e {
        stroke: #e0e0d1;
      }

      .f {
        stroke: #fff;
      }

      .g {
        stroke: #4f5d73;
      }
    </style>
  </defs>
  <title>Elegant_circle-icons_2</title>
  <circle class="a" cx="32" cy="31.76" r="32"/>
  <g class="b">
    <path class="c" d="M32,33a9,9,0,1,1-9,9,9,9,0,0,1,9-9m0-4A13,13,0,1,0,45,42,13,13,0,0,0,32,29Z"/>
  </g>
  <g class="b">
    <path class="c" d="M28,46.67A2,2,0,0,1,26.89,43l8-5.33A2,2,0,0,1,37.11,41l-8,5.33A2,2,0,0,1,28,46.67Z"/>
  </g>
  <path class="d" d="M32,31a9,9,0,1,1-9,9,9,9,0,0,1,9-9m0-4A13,13,0,1,0,45,40,13,13,0,0,0,32,27Z"/>
  <line class="e" x1="32" y1="40" x2="32" y2="14.41"/>
  <line class="f" x1="28" y1="42.67" x2="36" y2="37.33"/>
  <g class="b">
    <path class="c" d="M31.37,17.5a12.12,12.12,0,0,1-6.48-1.84,2,2,0,0,1,2.21-3.33,8.19,8.19,0,0,0,9.62-.87,2,2,0,0,1,2.56,3.08A12.17,12.17,0,0,1,31.37,17.5Z"/>
  </g>
  <path class="g" d="M26,12a10.2,10.2,0,0,0,12-1"/>
</svg>
