<svg xmlns="http://www.w3.org/2000/svg" viewBox="0 0 64 64">
  <defs>
    <style>
      .a {
        fill: #77b3d4;
      }

      .b {
        opacity: 0.2;
      }

      .c {
        fill: #231f20;
      }

      .d {
        fill: #4f5d73;
      }

      .e {
        fill: #fff;
      }
    </style>
  </defs>
  <title>Elegant_circle-icons</title>
  <circle class="a" cx="32" cy="32" r="32"/>
  <g class="b">
    <path class="c" d="M21,35.67a2.5,2.5,0,0,1-2.5-2.5V25.83A13.5,13.5,0,0,1,43.34,18.5a2.5,2.5,0,0,1-4.2,2.72A8.5,8.5,0,0,0,23.5,25.83v7.34A2.5,2.5,0,0,1,21,35.67Z"/>
  </g>
  <path class="d" d="M21,33.67a2.5,2.5,0,0,1-2.5-2.5V23.83A13.5,13.5,0,0,1,43.34,16.5a2.5,2.5,0,0,1-4.2,2.72A8.5,8.5,0,0,0,23.5,23.83v7.34A2.5,2.5,0,0,1,21,33.67Z"/>
  <path class="d" d="M32,32a4,4,0,0,0-2,7.45V42a2,2,0,0,0,4,0V39.45A4,4,0,0,0,32,32Z"/>
  <g class="b">
    <path class="c" d="M47,27H17a3,3,0,0,0-3,3V49a3,3,0,0,0,3,3H47a3,3,0,0,0,3-3V30A3,3,0,0,0,47,27ZM34,41.45V44a2,2,0,0,1-4,0V41.45a4,4,0,1,1,4,0Z"/>
  </g>
  <path class="e" d="M47,25H17a3,3,0,0,0-3,3V47a3,3,0,0,0,3,3H47a3,3,0,0,0,3-3V28A3,3,0,0,0,47,25ZM34,39.45V42a2,2,0,0,1-4,0V39.45a4,4,0,1,1,4,0Z"/>
</svg>
