<svg xmlns="http://www.w3.org/2000/svg" viewBox="0 0 64 64">
  <defs>
    <style>
      .a {
        fill: #76c2af;
      }

      .b {
        opacity: 0.2;
      }

      .c {
        fill: #231f20;
      }

      .d {
        fill: #fff;
      }
    </style>
  </defs>
  <title>Elegant_circle-icons</title>
  <circle class="a" cx="32" cy="32" r="32"/>
  <g class="b">
    <path class="c" d="M48,32a16,16,0,0,0-31.51-3.87A10,10,0,0,0,18,48h8a2,2,0,0,0,2-2V40.5A1.5,1.5,0,0,0,26.5,39H23.44c-1.47,0-1.88-1-.92-2.25l7.72-9.82a2.13,2.13,0,0,1,3.52,0l7.72,9.82C42.44,38,42,39,40.56,39H37.5A1.5,1.5,0,0,0,36,40.5V46a2,2,0,0,0,2,2H48a8,8,0,0,0,0-16Z"/>
  </g>
  <path class="d" d="M48,30a16,16,0,0,0-31.51-3.87A10,10,0,0,0,18,46h8a2,2,0,0,0,2-2V38.5A1.5,1.5,0,0,0,26.5,37H23.44c-1.47,0-1.88-1-.92-2.25l7.72-9.82a2.13,2.13,0,0,1,3.52,0l7.72,9.82C42.44,36,42,37,40.56,37H37.5A1.5,1.5,0,0,0,36,38.5V44a2,2,0,0,0,2,2H48a8,8,0,0,0,0-16Z"/>
</svg>
