<svg xmlns="http://www.w3.org/2000/svg" viewBox="0 0 64 64">
  <defs>
    <style>
      .a {
        fill: #76c2af;
      }

      .b {
        fill: #4f5d73;
      }

      .c {
        fill: #231f20;
        opacity: 0.2;
      }

      .d {
        fill: #c75c5c;
      }

      .e {
        fill: #e0e0d1;
      }
    </style>
  </defs>
  <title>Elegant_circle-icons_3</title>
  <circle class="a" cx="32" cy="32" r="32"/>
  <rect class="b" x="31" y="30" width="11" height="8"/>
  <rect class="c" x="14" y="24" width="20" height="28" rx="2"/>
  <rect class="c" x="37" y="24" width="18" height="24" rx="2"/>
  <rect class="c" x="31" y="30" width="11" height="10"/>
  <rect class="b" x="14" y="22" width="20" height="28" rx="2"/>
  <rect class="b" x="37" y="22" width="18" height="24" rx="2"/>
  <circle class="b" cx="24" cy="24" r="9"/>
  <circle class="c" cx="18.5" cy="42.5" r="2.5"/>
  <circle class="d" cx="18.5" cy="40.5" r="2.5"/>
  <path class="c" d="M24,14A12,12,0,1,0,36,26,12,12,0,0,0,24,14Zm0,21a9,9,0,1,1,9-9A9,9,0,0,1,24,35Z"/>
  <path class="e" d="M24,12A12,12,0,1,0,36,24,12,12,0,0,0,24,12Zm0,21a9,9,0,1,1,9-9A9,9,0,0,1,24,33Z"/>
</svg>
