<svg xmlns="http://www.w3.org/2000/svg" viewBox="0 0 64 64">
  <defs>
    <style>
      .a {
        fill: #4f5d73;
      }

      .b {
        opacity: 0.2;
      }

      .c {
        fill: #231f20;
      }

      .d {
        fill: #e0995e;
      }

      .e {
        fill: #fff;
      }
    </style>
  </defs>
  <title>Elegant_circle-icons</title>
  <circle class="a" cx="32" cy="32" r="32"/>
  <g class="b">
    <circle class="c" cx="22" cy="24" r="10"/>
  </g>
  <circle class="d" cx="22" cy="22" r="10"/>
  <g class="b">
    <path class="c" d="M48.67,36c0-7.73-6.57-14-14.67-14A14.55,14.55,0,0,0,19.78,32.61,8.73,8.73,0,0,0,21.17,50h27.5a7,7,0,1,0,0-14Z"/>
  </g>
  <g class="b">
    <path class="c" d="M32,22a9.8,9.8,0,0,0-.44-2.93A14.49,14.49,0,0,0,18.78,29.61a9.55,9.55,0,0,0-2.38.67A9.89,9.89,0,0,0,22,32,10,10,0,0,0,32,22Z"/>
  </g>
  <path class="e" d="M48.67,34c0-7.73-6.57-14-14.67-14A14.55,14.55,0,0,0,19.78,30.61,8.73,8.73,0,0,0,21.17,48h27.5a7,7,0,1,0,0-14Z"/>
</svg>
