<svg xmlns="http://www.w3.org/2000/svg" viewBox="0 0 64 64">
  <defs>
    <style>
      .a {
        fill: #4f5d73;
      }

      .b, .d {
        opacity: 0.2;
      }

      .c, .d {
        fill: #231f20;
      }

      .e {
        fill: none;
        stroke: #e0e0d1;
        stroke-linecap: round;
        stroke-miterlimit: 10;
        stroke-width: 3px;
      }

      .f {
        fill: #e0995e;
      }

      .g {
        fill: #fff;
      }
    </style>
  </defs>
  <title>Elegant_circle-icons_2</title>
  <circle class="a" cx="32" cy="32" r="32"/>
  <g class="b">
    <path class="c" d="M21.5,57.5A1.5,1.5,0,0,1,20,56V16a1.5,1.5,0,0,1,3,0V56A1.5,1.5,0,0,1,21.5,57.5Z"/>
  </g>
  <path class="d" d="M49.59,23.06,44,21.94h0l-2.41-.48-3.82-.76-2.18-.44-6-1.2L26,18.34V45.66l3.59-.72,6-1.2L38,43.26h0l3.59-.72L44,42.06h0l5.59-1.12A3,3,0,0,0,52,38V26A3,3,0,0,0,49.59,23.06Z"/>
  <line class="e" x1="21.5" y1="54" x2="21.5" y2="14"/>
  <g>
    <g>
      <polygon class="f" points="27.5 18.17 36.5 19.97 36.5 40.03 27.5 41.83 27.5 18.17"/>
      <path class="f" d="M29,20l6,1.2V38.8L29,40V20m-3-3.66V43.66l3.59-.72,6-1.2L38,41.26V18.74l-2.41-.48-6-1.2L26,16.34Z"/>
    </g>
    <g>
      <path class="f" d="M43,38.7a1.51,1.51,0,0,1-1-.34,1.48,1.48,0,0,1-.55-1.16V22.8a1.48,1.48,0,0,1,.55-1.16,1.51,1.51,0,0,1,1-.34,1.36,1.36,0,0,1,.29,0l6,1.2A1.5,1.5,0,0,1,50.5,24V36a1.5,1.5,0,0,1-1.21,1.47l-6,1.2A1.36,1.36,0,0,1,43,38.7Z"/>
      <path class="f" d="M43,22.8,49,24V36l-6,1.2V22.8m0-3a3,3,0,0,0-3,3V37.2a3,3,0,0,0,3,3,3,3,0,0,0,.59-.06l6-1.2A3,3,0,0,0,52,36V24a3,3,0,0,0-2.41-2.94l-6-1.2A3,3,0,0,0,43,19.8Z"/>
    </g>
    <g>
      <polygon class="g" points="35.5 19.77 42.5 21.17 42.5 38.83 35.5 40.23 35.5 19.77"/>
      <path class="g" d="M37,21.6l4,.8V37.6l-4,.8V21.6m-3-3.66V42.06l3.59-.72,4-.8L44,40.06V19.94l-2.41-.48-4-.8L34,17.94Z"/>
    </g>
  </g>
</svg>
