<svg xmlns="http://www.w3.org/2000/svg" viewBox="0 0 64 64">
  <defs>
    <style>
      .a {
        fill: #f5cf87;
      }

      .b {
        opacity: 0.2;
      }

      .c {
        fill: #231f20;
      }

      .d {
        fill: none;
        stroke: #4f5d73;
        stroke-linecap: round;
        stroke-miterlimit: 10;
        stroke-width: 6px;
      }

      .e {
        fill: #4f5d73;
      }
    </style>
  </defs>
  <title>Elegant_circle-icons_2</title>
  <circle class="a" cx="32" cy="32" r="32"/>
  <g class="b">
    <path class="c" d="M32,58a3,3,0,0,1-3-3V54c0-3.87,2.48-5.86,4.13-7.17,1.49-1.2,1.87-1.6,1.87-2.49-.36-.59-3.05-1.53-4.49-2C26.92,41,22,39.32,22,34.61c0-4,2.9-6,4.82-7.29S29,25.7,29,25V20a3,3,0,0,1,6,0v5c0,4-2.9,6-4.82,7.29S28,33.91,28,34.61c.36.58,3.05,1.53,4.49,2,3.59,1.26,8.51,3,8.51,7.7,0,3.87-2.48,5.86-4.13,7.17C35.38,52.71,35,53.11,35,54v1A3,3,0,0,1,32,58Z"/>
  </g>
  <path class="d" d="M32,53V52c0-4.86,6-4.8,6-9.66,0-5.17-13-4.57-13-9.73,0-4.86,7-4.75,7-9.61V18"/>
  <g class="b">
    <path class="c" d="M23.44,24c-1.47,0-1.88-1.09-.92-2.42L30.24,11a2.05,2.05,0,0,1,3.52,0l7.72,10.58c1,1.33.55,2.42-.92,2.42Z"/>
  </g>
  <path class="e" d="M23.44,22c-1.47,0-1.88-1.09-.92-2.42L30.24,9a2.05,2.05,0,0,1,3.52,0l7.72,10.58c1,1.33.55,2.42-.92,2.42Z"/>
</svg>
