<svg xmlns="http://www.w3.org/2000/svg" viewBox="0 0 64 64">
  <defs>
    <style>
      .a {
        fill: #e0e0d1;
      }

      .b {
        opacity: 0.2;
      }

      .c {
        fill: #231f20;
      }

      .d {
        fill: #fff;
      }

      .e {
        fill: #4f5d73;
      }

      .f {
        fill: #c75c5c;
      }
    </style>
  </defs>
  <title>Elegant_circle-icons</title>
  <circle class="a" cx="32" cy="32" r="32"/>
  <g class="b">
    <rect class="c" x="18" y="21" width="28" height="28" rx="4"/>
  </g>
  <g>
    <rect class="d" x="20" y="21" width="24" height="24" rx="2"/>
    <path class="e" d="M42,23V43H22V23H42m0-4H22a4,4,0,0,0-4,4V43a4,4,0,0,0,4,4H42a4,4,0,0,0,4-4V23a4,4,0,0,0-4-4Z"/>
  </g>
  <g class="b">
    <path class="c" d="M47,51.38a2,2,0,0,1-1.69-.92c-11.83-18.57-31-27.95-31.16-28a2,2,0,1,1,1.73-3.6c.83.39,20.34,9.93,32.8,29.49A2,2,0,0,1,47,51.38Z"/>
  </g>
  <path class="f" d="M47,49.38a2,2,0,0,1-1.69-.92c-11.83-18.57-31-27.95-31.16-28a2,2,0,1,1,1.73-3.6c.83.39,20.34,9.93,32.8,29.49A2,2,0,0,1,47,49.38Z"/>
  <g class="b">
    <path class="c" d="M17.62,52.05a2,2,0,0,1-1.52-3.3c.16-.19,15.93-18.61,28.84-32.07a2,2,0,0,1,2.89,2.77C35,32.82,19.29,51.16,19.14,51.35A2,2,0,0,1,17.62,52.05Z"/>
  </g>
  <path class="f" d="M17.62,50.05a2,2,0,0,1-1.52-3.3c.16-.19,15.93-18.61,28.84-32.07a2,2,0,1,1,2.88,2.77C35,30.82,19.3,49.16,19.14,49.35A2,2,0,0,1,17.62,50.05Z"/>
</svg>
