<svg xmlns="http://www.w3.org/2000/svg" viewBox="0 0 64 64">
  <defs>
    <style>
      .a {
        fill: #76c2af;
      }

      .b, .d {
        fill: #231f20;
      }

      .b, .c {
        opacity: 0.2;
      }

      .e {
        fill: #4f5d73;
      }

      .f {
        fill: #fff;
      }
    </style>
  </defs>
  <title>Elegant_circle-icons_3</title>
  <circle class="a" cx="32" cy="32" r="32"/>
  <path class="b" d="M49.77,48.38l-5.32-5.31a1.3,1.3,0,0,0-.18-.15,18.07,18.07,0,1,0-3.52,3.48c.06.07.11.14.17.2l5.31,5.32a2.51,2.51,0,0,0,3.54,0A2.52,2.52,0,0,0,49.77,48.38ZM30,46A14,14,0,1,1,44,32,14,14,0,0,1,30,46Z"/>
  <g class="c">
    <path class="d" d="M30,40.5a2,2,0,0,1-2-2v-13a2,2,0,0,1,4,0v13A2,2,0,0,1,30,40.5Z"/>
  </g>
  <g class="c">
    <path class="d" d="M36.5,34h-13a2,2,0,0,1,0-4h13a2,2,0,0,1,0,4Z"/>
  </g>
  <path class="e" d="M48,50.65a2.49,2.49,0,0,1-1.77-.73L40.92,44.6a2.5,2.5,0,0,1,3.53-3.53l5.32,5.31a2.52,2.52,0,0,1,0,3.54A2.49,2.49,0,0,1,48,50.65Z"/>
  <path class="e" d="M30,16A14,14,0,1,1,16,30,14,14,0,0,1,30,16m0-4A18,18,0,1,0,48,30,18,18,0,0,0,30,12Z"/>
  <path class="f" d="M30,38.5a2,2,0,0,1-2-2v-13a2,2,0,0,1,4,0v13A2,2,0,0,1,30,38.5Z"/>
  <path class="f" d="M36.5,32h-13a2,2,0,0,1,0-4h13a2,2,0,0,1,0,4Z"/>
</svg>
